<?xml version="1.0" encoding="utf-8"?>
<!-- Generator: Adobe Illustrator 17.0.0, SVG Export Plug-In . SVG Version: 6.00 Build 0)  -->
<!DOCTYPE svg PUBLIC "-//W3C//DTD SVG 1.1//EN" "http://www.w3.org/Graphics/SVG/1.1/DTD/svg11.dtd">
<svg version="1.1" id="Layer_1" xmlns="http://www.w3.org/2000/svg" xmlns:xlink="http://www.w3.org/1999/xlink" x="0px" y="0px"
	 width="690px" height="320px" viewBox="0 0 690 320" enable-background="new 0 0 690 320" xml:space="preserve">
<path fill="#FEFEFE" d="M571.16,187.874c0.634-0.119,1.392,0.087,1.701,0.457c0.309,0.37,0.044,0.766-0.585,0.884
	c-0.63,0.115-1.393-0.087-1.701-0.459C570.267,188.386,570.531,187.99,571.16,187.874"/>
<path fill="#FEFEFE" d="M571.16,187.876c0.634-0.119,1.392,0.086,1.701,0.457c0.309,0.37,0.044,0.766-0.585,0.884
	c-0.631,0.115-1.393-0.087-1.701-0.459C570.267,188.387,570.531,187.991,571.16,187.876z"/>
<path fill="none" stroke="#373435" stroke-width="0.7805" stroke-linecap="round" stroke-linejoin="round" d="M571.16,187.875
	c0.634-0.119,1.392,0.086,1.701,0.457c0.309,0.37,0.045,0.766-0.585,0.884c-0.631,0.115-1.393-0.087-1.701-0.459
	C570.267,188.387,570.531,187.991,571.16,187.875z"/>
<path fill="#FEFEFE" d="M568.4,184.556c0.632-0.117,1.393,0.086,1.703,0.457c0.304,0.372,0.044,0.767-0.588,0.884
	c-0.63,0.118-1.392-0.086-1.696-0.458C567.508,185.071,567.769,184.673,568.4,184.556"/>
<path fill="#FEFEFE" d="M568.4,184.557c0.632-0.117,1.393,0.086,1.703,0.457c0.304,0.372,0.045,0.767-0.588,0.884
	c-0.63,0.118-1.392-0.087-1.696-0.458C567.508,185.072,567.769,184.674,568.4,184.557z"/>
<path fill="none" stroke="#373435" stroke-width="0.7805" stroke-linecap="round" stroke-linejoin="round" d="M568.4,184.557
	c0.632-0.117,1.393,0.086,1.703,0.457c0.304,0.372,0.045,0.767-0.588,0.884c-0.63,0.118-1.392-0.086-1.696-0.458
	C567.509,185.072,567.769,184.674,568.4,184.557z"/>
<path fill="#FEFEFE" d="M565.64,181.238c0.632-0.117,1.392,0.087,1.7,0.456c0.31,0.373,0.048,0.768-0.584,0.887
	c-0.63,0.118-1.392-0.089-1.7-0.459C564.748,181.753,565.007,181.355,565.64,181.238"/>
<path fill="#FEFEFE" d="M565.641,181.239c0.632-0.117,1.392,0.087,1.699,0.457c0.31,0.373,0.049,0.767-0.584,0.887
	c-0.63,0.118-1.392-0.089-1.7-0.459C564.749,181.754,565.008,181.356,565.641,181.239z"/>
<path fill="none" stroke="#373435" stroke-width="0.7805" stroke-linecap="round" stroke-linejoin="round" d="M565.641,181.239
	c0.632-0.117,1.392,0.087,1.699,0.457c0.31,0.373,0.049,0.767-0.584,0.887c-0.63,0.118-1.392-0.089-1.7-0.459
	C564.749,181.754,565.008,181.356,565.641,181.239z"/>
<path fill="#FEFEFE" d="M565.344,178.49c0.283,0.345-0.035,0.728-0.715,0.855c-0.677,0.125-1.463-0.05-1.746-0.395
	c-0.289-0.342,0.032-0.724,0.712-0.849C564.276,177.971,565.057,178.149,565.344,178.49z"/>
<path fill="none" stroke="#373435" stroke-width="0.7805" stroke-linecap="round" stroke-linejoin="round" d="M565.344,178.49
	c0.283,0.345-0.035,0.728-0.715,0.855c-0.677,0.125-1.463-0.05-1.746-0.395c-0.289-0.342,0.032-0.724,0.712-0.849
	C564.276,177.97,565.057,178.149,565.344,178.49z"/>
<path fill="#FEFEFE" d="M573.409,176.793c0.287,0.344-0.033,0.726-0.714,0.853c-0.679,0.127-1.462-0.05-1.747-0.393
	c-0.285-0.343,0.034-0.726,0.712-0.851C572.34,176.273,573.124,176.45,573.409,176.793"/>
<path fill="#FEFEFE" d="M591.52,183.493c-0.628,0.116-1.391-0.086-1.698-0.461c-0.308-0.37-0.045-0.766,0.583-0.883
	c0.629-0.118,1.393,0.087,1.699,0.459C592.414,182.979,592.151,183.375,591.52,183.493"/>
<path fill="#FEFEFE" d="M589.845,186.799c-0.288-0.342,0.031-0.725,0.713-0.85c0.681-0.127,1.464,0.05,1.75,0.391
	c0.283,0.345-0.033,0.726-0.714,0.852C590.91,187.32,590.128,187.144,589.845,186.799"/>
<path fill="#FEFEFE" d="M589.845,186.8c-0.288-0.341,0.03-0.725,0.713-0.85c0.681-0.127,1.464,0.05,1.749,0.391
	c0.284,0.346-0.032,0.726-0.714,0.852C590.91,187.321,590.128,187.145,589.845,186.8z"/>
<path fill="none" stroke="#373435" stroke-width="0.7805" stroke-linecap="round" stroke-linejoin="round" d="M589.845,186.8
	c-0.288-0.342,0.03-0.725,0.713-0.85c0.681-0.127,1.464,0.05,1.749,0.391c0.284,0.346-0.032,0.726-0.714,0.852
	C590.91,187.321,590.128,187.145,589.845,186.8z"/>
<path fill="#FEFEFE" d="M583.75,187.938c-0.284-0.343,0.033-0.726,0.717-0.852c0.681-0.129,1.464,0.047,1.747,0.39
	c0.285,0.346-0.033,0.726-0.712,0.853C584.822,188.456,584.035,188.281,583.75,187.938"/>
<path fill="#FEFEFE" d="M583.75,187.939c-0.284-0.343,0.033-0.726,0.717-0.852c0.681-0.129,1.464,0.047,1.746,0.39
	c0.285,0.346-0.033,0.726-0.712,0.853C584.822,188.457,584.035,188.282,583.75,187.939z"/>
<path fill="none" stroke="#373435" stroke-width="0.7805" stroke-linecap="round" stroke-linejoin="round" d="M583.75,187.939
	c-0.284-0.343,0.033-0.726,0.717-0.852c0.681-0.129,1.464,0.047,1.746,0.39c0.285,0.346-0.033,0.726-0.712,0.853
	C584.822,188.457,584.035,188.282,583.75,187.939z"/>
<path fill="#FEFEFE" d="M577.662,189.074c-0.287-0.341,0.029-0.724,0.711-0.851c0.681-0.129,1.465,0.048,1.749,0.389
	c0.288,0.346-0.029,0.727-0.713,0.855C578.731,189.594,577.944,189.418,577.662,189.074"/>
<path fill="#FEFEFE" d="M577.663,189.075c-0.287-0.342,0.029-0.724,0.711-0.851c0.68-0.129,1.465,0.048,1.748,0.389
	c0.289,0.346-0.029,0.727-0.713,0.855C578.732,189.595,577.944,189.42,577.663,189.075z"/>
<path fill="none" stroke="#373435" stroke-width="0.7805" stroke-linecap="round" stroke-linejoin="round" d="M577.663,189.075
	c-0.287-0.342,0.029-0.724,0.711-0.851c0.68-0.129,1.465,0.048,1.748,0.389c0.289,0.346-0.029,0.727-0.713,0.855
	C578.732,189.595,577.944,189.419,577.663,189.075z"/>
<path fill="#FEFEFE" d="M611.153,198.322c0.627-0.118,1.39,0.086,1.698,0.458c0.312,0.371,0.044,0.764-0.582,0.883
	c-0.632,0.118-1.394-0.089-1.703-0.457C610.258,198.836,610.522,198.44,611.153,198.322"/>
<path fill="#FEFEFE" d="M611.153,198.324c0.627-0.118,1.389,0.086,1.698,0.458c0.311,0.371,0.044,0.764-0.582,0.883
	c-0.631,0.118-1.393-0.089-1.703-0.457C610.258,198.838,610.522,198.441,611.153,198.324z"/>
<path fill="none" stroke="#373435" stroke-width="0.7805" stroke-linecap="round" stroke-linejoin="round" d="M611.153,198.324
	c0.627-0.118,1.389,0.086,1.698,0.458c0.312,0.371,0.044,0.764-0.582,0.883c-0.631,0.118-1.394-0.089-1.703-0.457
	C610.258,198.838,610.522,198.441,611.153,198.324z"/>
<path fill="#FEFEFE" d="M608.393,195.004c0.627-0.116,1.389,0.086,1.699,0.459c0.308,0.37,0.045,0.766-0.585,0.882
	c-0.63,0.118-1.389-0.086-1.701-0.457C607.499,195.518,607.761,195.121,608.393,195.004"/>
<path fill="#FEFEFE" d="M608.394,195.005c0.627-0.116,1.389,0.086,1.699,0.459c0.308,0.37,0.045,0.766-0.586,0.882
	c-0.629,0.118-1.389-0.086-1.701-0.457C607.499,195.52,607.762,195.122,608.394,195.005z"/>
<path fill="none" stroke="#373435" stroke-width="0.7805" stroke-linecap="round" stroke-linejoin="round" d="M608.394,195.005
	c0.627-0.116,1.389,0.086,1.699,0.459c0.308,0.37,0.045,0.766-0.586,0.882c-0.629,0.118-1.389-0.086-1.701-0.457
	C607.499,195.52,607.762,195.122,608.394,195.005z"/>
<path fill="#FEFEFE" d="M605.63,191.685c0.63-0.115,1.391,0.089,1.702,0.46c0.307,0.37,0.046,0.767-0.586,0.882
	c-0.632,0.117-1.391-0.086-1.703-0.457C604.735,192.202,604.999,191.803,605.63,191.685"/>
<path fill="#FEFEFE" d="M605.631,191.687c0.631-0.115,1.391,0.089,1.702,0.459c0.307,0.37,0.046,0.767-0.586,0.882
	c-0.632,0.117-1.391-0.086-1.703-0.457C604.735,192.203,604.999,191.804,605.631,191.687z"/>
<path fill="none" stroke="#373435" stroke-width="0.7805" stroke-linecap="round" stroke-linejoin="round" d="M605.631,191.687
	c0.631-0.115,1.391,0.089,1.702,0.459c0.307,0.37,0.046,0.767-0.586,0.882c-0.632,0.117-1.391-0.086-1.703-0.457
	C604.735,192.203,604.999,191.804,605.631,191.687z"/>
<path fill="#FEFEFE" d="M607.305,188.377c0.291,0.345-0.033,0.726-0.71,0.851c-0.681,0.129-1.466-0.048-1.751-0.391
	c-0.281-0.342,0.036-0.723,0.718-0.852C606.239,187.858,607.022,188.035,607.305,188.377"/>
<path fill="#FEFEFE" d="M602.78,185.045c0.291,0.345-0.033,0.726-0.71,0.851c-0.681,0.129-1.466-0.048-1.752-0.392
	c-0.281-0.342,0.036-0.723,0.718-0.851C601.714,184.526,602.497,184.702,602.78,185.045z"/>
<path fill="none" stroke="#373435" stroke-width="0.7805" stroke-linecap="round" stroke-linejoin="round" d="M602.78,185.045
	c0.291,0.345-0.033,0.726-0.71,0.851c-0.681,0.129-1.466-0.048-1.752-0.392c-0.281-0.342,0.036-0.723,0.718-0.852
	C601.714,184.526,602.497,184.702,602.78,185.045z"/>
<path fill="#FEFEFE" d="M613.4,187.241c0.284,0.343-0.036,0.725-0.714,0.852c-0.68,0.127-1.466-0.048-1.749-0.393
	c-0.283-0.343,0.032-0.724,0.717-0.852C612.332,186.721,613.117,186.898,613.4,187.241"/>
<path fill="#FEFEFE" d="M628.754,190.621c-0.631,0.12-1.393-0.087-1.701-0.457c-0.307-0.37-0.048-0.767,0.583-0.885
	c0.628-0.116,1.392,0.089,1.699,0.459C629.643,190.108,629.38,190.504,628.754,190.621"/>
<path fill="#FEFEFE" d="M631.512,193.938c-0.632,0.12-1.395-0.087-1.703-0.457c-0.308-0.37-0.045-0.766,0.587-0.884
	c0.631-0.117,1.393,0.087,1.701,0.46C632.404,193.426,632.14,193.822,631.512,193.938"/>
<path fill="#FEFEFE" d="M623.742,198.385c-0.285-0.343,0.033-0.726,0.716-0.855c0.677-0.125,1.464,0.05,1.747,0.395
	c0.288,0.342-0.031,0.724-0.711,0.851C624.813,198.906,624.028,198.729,623.742,198.385"/>
<path fill="#FEFEFE" d="M621.554,199.133c-0.285-0.343,0.033-0.726,0.716-0.854c0.677-0.125,1.464,0.05,1.747,0.395
	c0.288,0.341-0.031,0.724-0.711,0.851C622.625,199.654,621.841,199.477,621.554,199.133z"/>
<path fill="none" stroke="#373435" stroke-width="0.7805" stroke-linecap="round" stroke-linejoin="round" d="M621.554,199.133
	c-0.285-0.343,0.033-0.726,0.716-0.854c0.677-0.125,1.464,0.05,1.747,0.395c0.288,0.341-0.031,0.724-0.71,0.851
	C622.625,199.654,621.841,199.477,621.554,199.133z"/>
<path fill="#FEFEFE" d="M617.649,199.523c-0.286-0.344,0.034-0.728,0.715-0.852c0.68-0.127,1.467,0.048,1.748,0.393
	c0.29,0.342-0.032,0.725-0.713,0.851C618.72,200.041,617.935,199.864,617.649,199.523"/>
<path fill="#FEFEFE" d="M616.411,199.45c-0.286-0.344,0.035-0.728,0.716-0.852c0.68-0.127,1.467,0.048,1.747,0.393
	c0.29,0.342-0.032,0.724-0.713,0.851C617.481,199.968,616.696,199.791,616.411,199.45z"/>
<path fill="none" stroke="#373435" stroke-width="0.7805" stroke-linecap="round" stroke-linejoin="round" d="M616.411,199.45
	c-0.286-0.344,0.035-0.728,0.716-0.852c0.68-0.127,1.467,0.048,1.747,0.393c0.29,0.342-0.032,0.724-0.713,0.851
	C617.481,199.968,616.696,199.791,616.411,199.45z"/>
<path fill="#FEFEFE" d="M595.785,188.761c-0.636,0.111-1.37-0.07-1.645-0.403c-0.265-0.334-0.005-0.695,0.617-0.832
	c0.609-0.133,1.384,0.052,1.666,0.401C596.707,188.277,596.418,188.651,595.785,188.761"/>
<path fill="#FEFEFE" d="M595.785,188.762c-0.636,0.111-1.37-0.07-1.645-0.403c-0.266-0.334-0.005-0.695,0.617-0.832
	c0.609-0.133,1.384,0.052,1.666,0.401C596.707,188.279,596.419,188.652,595.785,188.762z"/>
<path fill="none" stroke="#373435" stroke-width="0.7805" stroke-linecap="round" stroke-linejoin="round" d="M595.785,188.762
	c-0.636,0.111-1.37-0.07-1.645-0.403c-0.266-0.334-0.005-0.695,0.617-0.832c0.609-0.133,1.384,0.052,1.666,0.401
	C596.707,188.279,596.419,188.652,595.785,188.762z"/>
<path fill="#FEFEFE" d="M597.992,191.868c-0.657,0.085-1.352-0.129-1.568-0.471c-0.246-0.341,0.08-0.696,0.727-0.793
	c0.648-0.097,1.378,0.111,1.63,0.465C599.01,191.427,598.647,191.786,597.992,191.868"/>
<path fill="#FEFEFE" d="M597.992,191.868c-0.657,0.085-1.353-0.128-1.568-0.471c-0.246-0.341,0.08-0.696,0.727-0.793
	c0.648-0.097,1.377,0.111,1.63,0.466C599.01,191.428,598.647,191.788,597.992,191.868z"/>
<path fill="none" stroke="#373435" stroke-width="0.7805" stroke-linecap="round" stroke-linejoin="round" d="M597.992,191.868
	c-0.657,0.085-1.353-0.128-1.568-0.471c-0.246-0.341,0.08-0.696,0.727-0.793c0.648-0.097,1.377,0.111,1.63,0.466
	C599.01,191.428,598.647,191.788,597.992,191.868z"/>
<path fill="#FEFEFE" d="M599.709,195.037c-0.673,0.051-1.347-0.193-1.504-0.54c-0.155-0.347,0.26-0.684,0.915-0.754
	c0.672-0.067,1.341,0.175,1.509,0.539C600.796,194.648,600.382,194.984,599.709,195.037"/>
<path fill="#FEFEFE" d="M599.709,195.038c-0.673,0.051-1.347-0.193-1.504-0.54c-0.155-0.347,0.26-0.684,0.915-0.754
	c0.672-0.068,1.341,0.175,1.509,0.539C600.796,194.65,600.382,194.985,599.709,195.038z"/>
<path fill="none" stroke="#373435" stroke-width="0.7805" stroke-linecap="round" stroke-linejoin="round" d="M599.709,195.038
	c-0.673,0.051-1.347-0.193-1.504-0.54c-0.155-0.347,0.26-0.684,0.915-0.754c0.672-0.068,1.341,0.175,1.509,0.539
	C600.796,194.65,600.382,194.985,599.709,195.038z"/>
<path fill="#FEFEFE" d="M600.832,198.246c-0.684,0.008-1.318-0.271-1.405-0.617c-0.09-0.349,0.392-0.656,1.075-0.688
	c0.677-0.031,1.313,0.246,1.405,0.617C602.004,197.93,601.519,198.239,600.832,198.246"/>
<path fill="#FEFEFE" d="M600.832,198.247c-0.684,0.009-1.318-0.27-1.404-0.616c-0.091-0.35,0.392-0.657,1.075-0.688
	c0.677-0.031,1.313,0.246,1.404,0.617C602.004,197.931,601.519,198.24,600.832,198.247z"/>
<path fill="none" stroke="#373435" stroke-width="0.7805" stroke-linecap="round" stroke-linejoin="round" d="M600.832,198.247
	c-0.684,0.009-1.318-0.27-1.404-0.616c-0.091-0.35,0.392-0.657,1.075-0.688c0.677-0.031,1.313,0.246,1.404,0.617
	C602.004,197.931,601.519,198.24,600.832,198.247z"/>
<path fill="#FEFEFE" d="M601.099,201.459c-0.687-0.054-1.246-0.375-1.234-0.718c0.005-0.34,0.575-0.6,1.271-0.579
	c0.69,0.024,1.244,0.344,1.233,0.72C602.359,201.256,601.793,201.514,601.099,201.459"/>
<path fill="#FEFEFE" d="M601.099,201.46c-0.687-0.054-1.246-0.376-1.234-0.718c0.004-0.34,0.575-0.6,1.27-0.579
	c0.69,0.024,1.243,0.344,1.233,0.72C602.36,201.257,601.793,201.515,601.099,201.46z"/>
<path fill="none" stroke="#373435" stroke-width="0.7805" stroke-linecap="round" stroke-linejoin="round" d="M601.1,201.46
	c-0.687-0.054-1.246-0.376-1.234-0.718c0.004-0.34,0.575-0.6,1.27-0.579c0.69,0.024,1.243,0.344,1.233,0.72
	C602.36,201.257,601.793,201.515,601.1,201.46z"/>
<path fill="#FEFEFE" d="M600.087,204.563c-0.658-0.15-1.075-0.531-0.931-0.848c0.139-0.316,0.803-0.494,1.486-0.392
	c0.681,0.102,1.096,0.484,0.935,0.849C601.411,204.538,600.737,204.711,600.087,204.563"/>
<path fill="#FEFEFE" d="M600.087,204.564c-0.658-0.15-1.076-0.531-0.932-0.848c0.139-0.316,0.803-0.494,1.485-0.392
	c0.681,0.102,1.097,0.484,0.936,0.849C601.411,204.54,600.738,204.713,600.087,204.564z"/>
<path fill="none" stroke="#373435" stroke-width="0.7805" stroke-linecap="round" stroke-linejoin="round" d="M600.087,204.564
	c-0.658-0.15-1.076-0.531-0.932-0.848c0.139-0.316,0.803-0.494,1.485-0.392c0.681,0.102,1.097,0.484,0.936,0.849
	C601.411,204.54,600.738,204.712,600.087,204.564z"/>
<path fill="#FEFEFE" d="M597.057,207.159c-0.47-0.272-0.515-0.664-0.178-0.913c0.366-0.232,1.146-0.242,1.73-0.021
	c0.588,0.223,0.696,0.642,0.23,0.939C598.398,207.472,597.561,207.447,597.057,207.159"/>
<path fill="#FEFEFE" d="M597.057,207.16c-0.47-0.272-0.515-0.664-0.179-0.913c0.366-0.232,1.146-0.242,1.731-0.02
	c0.588,0.223,0.695,0.642,0.23,0.939C598.398,207.473,597.562,207.448,597.057,207.16z"/>
<path fill="none" stroke="#373435" stroke-width="0.7805" stroke-linecap="round" stroke-linejoin="round" d="M597.057,207.16
	c-0.47-0.272-0.515-0.664-0.179-0.913c0.366-0.232,1.146-0.242,1.731-0.02c0.588,0.223,0.695,0.642,0.23,0.939
	C598.398,207.473,597.562,207.448,597.057,207.16z"/>
<path fill="#FEFEFE" d="M591.956,208.657c-0.26-0.349-0.006-0.719,0.57-0.827c0.594-0.087,1.27,0.019,1.644,0.354
	c0.359,0.314,0.174,0.763-0.521,0.874C592.977,209.187,592.214,209.006,591.956,208.657"/>
<path fill="#FEFEFE" d="M591.956,208.659c-0.26-0.349-0.006-0.719,0.57-0.827c0.593-0.087,1.27,0.019,1.644,0.353
	c0.359,0.314,0.174,0.763-0.521,0.874C592.977,209.188,592.215,209.007,591.956,208.659z"/>
<path fill="none" stroke="#373435" stroke-width="0.7805" stroke-linecap="round" stroke-linejoin="round" d="M591.956,208.659
	c-0.26-0.349-0.006-0.719,0.57-0.827c0.593-0.087,1.27,0.019,1.644,0.353c0.359,0.314,0.174,0.763-0.521,0.874
	C592.977,209.188,592.215,209.007,591.956,208.659z"/>
<path fill="#FEFEFE" d="M586.019,209.153c-0.081-0.368,0.387-0.642,1.016-0.689c0.634-0.034,1.272,0.23,1.433,0.591
	c0.157,0.361-0.295,0.683-1.006,0.722C586.749,209.827,586.097,209.511,586.019,209.153"/>
<path fill="#FEFEFE" d="M586.02,209.154c-0.081-0.368,0.387-0.641,1.015-0.689c0.635-0.034,1.272,0.23,1.433,0.591
	c0.157,0.361-0.295,0.682-1.006,0.722C586.75,209.828,586.098,209.512,586.02,209.154z"/>
<path fill="none" stroke="#373435" stroke-width="0.7805" stroke-linecap="round" stroke-linejoin="round" d="M586.02,209.154
	c-0.082-0.368,0.387-0.641,1.015-0.689c0.635-0.034,1.272,0.23,1.433,0.591c0.157,0.361-0.295,0.682-1.006,0.722
	C586.75,209.828,586.098,209.512,586.02,209.154z"/>
<path fill="#FEFEFE" d="M579.877,208.911c0.063-0.359,0.64-0.605,1.293-0.552c0.653,0.064,1.193,0.365,1.192,0.727
	c0.007,0.359-0.576,0.647-1.296,0.577C580.35,209.604,579.817,209.267,579.877,208.911"/>
<path fill="#FEFEFE" d="M579.877,208.912c0.062-0.359,0.639-0.605,1.293-0.552c0.653,0.064,1.193,0.365,1.192,0.726
	c0.007,0.36-0.576,0.647-1.295,0.577C580.35,209.605,579.817,209.268,579.877,208.912z"/>
<path fill="none" stroke="#373435" stroke-width="0.7805" stroke-linecap="round" stroke-linejoin="round" d="M579.877,208.912
	c0.062-0.359,0.639-0.605,1.293-0.552c0.653,0.064,1.193,0.364,1.192,0.726c0.007,0.36-0.576,0.647-1.295,0.577
	C580.35,209.605,579.817,209.268,579.877,208.912z"/>
<path fill="#FEFEFE" d="M573.849,208.009c0.219-0.332,0.891-0.498,1.502-0.369c0.637,0.103,1.038,0.468,0.905,0.816
	c-0.137,0.347-0.825,0.536-1.529,0.419C574.02,208.729,573.63,208.341,573.849,208.009"/>
<path fill="#FEFEFE" d="M573.849,208.01c0.22-0.332,0.892-0.498,1.502-0.368c0.637,0.102,1.038,0.468,0.905,0.816
	c-0.137,0.347-0.826,0.536-1.529,0.419C574.02,208.73,573.63,208.342,573.849,208.01z"/>
<path fill="none" stroke="#373435" stroke-width="0.7805" stroke-linecap="round" stroke-linejoin="round" d="M573.849,208.01
	c0.22-0.332,0.892-0.498,1.502-0.368c0.637,0.102,1.038,0.468,0.905,0.816c-0.137,0.347-0.826,0.536-1.529,0.419
	C574.02,208.73,573.63,208.342,573.849,208.01z"/>
<path fill="#FEFEFE" d="M568.774,206.06c0.57-0.194,1.322-0.07,1.703,0.137c0.343,0.185,0.384,0.582,0.048,0.861
	c-0.381,0.301-1.225,0.305-1.875-0.057C568.049,206.661,568.237,206.239,568.774,206.06"/>
<path fill="#FEFEFE" d="M568.774,206.061c0.57-0.194,1.323-0.07,1.704,0.137c0.343,0.185,0.384,0.582,0.047,0.861
	c-0.38,0.301-1.224,0.305-1.874-0.057C568.05,206.662,568.238,206.24,568.774,206.061z"/>
<path fill="none" stroke="#373435" stroke-width="0.7805" stroke-linecap="round" stroke-linejoin="round" d="M568.774,206.061
	c0.571-0.194,1.323-0.07,1.704,0.137c0.343,0.185,0.384,0.582,0.047,0.861c-0.38,0.301-1.224,0.305-1.874-0.057
	C568.05,206.662,568.238,206.24,568.774,206.061z"/>
<path fill="#FEFEFE" d="M566.014,203.064c0.662-0.08,1.356,0.12,1.589,0.443c0.26,0.321-0.035,0.681-0.663,0.809
	c-0.622,0.124-1.37-0.069-1.665-0.431C565.015,203.515,565.362,203.146,566.014,203.064"/>
<path fill="#FEFEFE" d="M566.014,203.065c0.661-0.08,1.355,0.12,1.589,0.443c0.26,0.321-0.035,0.681-0.663,0.808
	c-0.622,0.125-1.37-0.069-1.666-0.431C565.015,203.516,565.362,203.147,566.014,203.065z"/>
<path fill="none" stroke="#373435" stroke-width="0.7805" stroke-linecap="round" stroke-linejoin="round" d="M566.014,203.065
	c0.662-0.08,1.356,0.12,1.589,0.443c0.26,0.321-0.035,0.681-0.663,0.808c-0.622,0.125-1.37-0.069-1.666-0.431
	C565.015,203.516,565.362,203.147,566.014,203.065z"/>
<path fill="#FEFEFE" d="M564.918,199.867c0.69,0.033,1.28,0.329,1.312,0.655c0.018,0.329-0.391,0.621-1.094,0.646
	c-0.665,0.024-1.377-0.266-1.406-0.657C563.692,200.117,564.225,199.83,564.918,199.867"/>
<path fill="#FEFEFE" d="M564.918,199.868c0.691,0.034,1.281,0.329,1.313,0.655c0.018,0.329-0.391,0.621-1.094,0.646
	c-0.665,0.024-1.377-0.267-1.406-0.657C563.692,200.119,564.226,199.831,564.918,199.868z"/>
<path fill="none" stroke="#373435" stroke-width="0.7805" stroke-linecap="round" stroke-linejoin="round" d="M564.918,199.868
	c0.691,0.034,1.281,0.329,1.313,0.655c0.019,0.329-0.391,0.621-1.094,0.646c-0.665,0.024-1.377-0.267-1.406-0.657
	C563.692,200.118,564.226,199.831,564.918,199.868z"/>
<path fill="#FEFEFE" d="M566.13,196.804c0.623,0.189,0.956,0.572,0.734,0.856c-0.265,0.276-0.83,0.45-1.531,0.331
	c-0.647-0.11-1.156-0.525-0.84-0.878C564.77,196.757,565.509,196.618,566.13,196.804"/>
<path fill="#FEFEFE" d="M566.13,196.805c0.622,0.189,0.956,0.572,0.735,0.856c-0.265,0.276-0.83,0.45-1.531,0.331
	c-0.647-0.11-1.156-0.525-0.84-0.878C564.77,196.758,565.509,196.619,566.13,196.805z"/>
<path fill="none" stroke="#373435" stroke-width="0.7805" stroke-linecap="round" stroke-linejoin="round" d="M566.13,196.805
	c0.622,0.189,0.956,0.572,0.735,0.856c-0.265,0.276-0.83,0.45-1.531,0.331c-0.647-0.11-1.156-0.525-0.84-0.878
	C564.77,196.757,565.509,196.619,566.13,196.805z"/>
<path fill="#FEFEFE" d="M569.875,194.484c0.444,0.3,0.415,0.695-0.063,0.881c-0.403,0.223-1.155,0.198-1.694-0.057
	c-0.534-0.256-0.575-0.69-0.074-0.96C568.611,194.121,569.435,194.183,569.875,194.484"/>
<path fill="#FEFEFE" d="M569.875,194.485c0.444,0.3,0.415,0.695-0.064,0.881c-0.403,0.223-1.155,0.198-1.694-0.057
	c-0.533-0.256-0.575-0.69-0.074-0.96C568.611,194.122,569.435,194.184,569.875,194.485z"/>
<path fill="none" stroke="#373435" stroke-width="0.7805" stroke-linecap="round" stroke-linejoin="round" d="M569.875,194.485
	c0.444,0.3,0.415,0.695-0.064,0.881c-0.403,0.223-1.155,0.198-1.693-0.057c-0.533-0.256-0.575-0.69-0.074-0.96
	C568.611,194.122,569.435,194.184,569.875,194.485z"/>
<path fill="#FEFEFE" d="M575.112,193.089c0.274,0.348,0.016,0.717-0.58,0.824c-0.604,0.096-1.303-0.039-1.654-0.37
	c-0.344-0.327-0.13-0.752,0.543-0.857C574.086,192.561,574.843,192.743,575.112,193.089"/>
<path fill="#FEFEFE" d="M575.112,193.09c0.274,0.348,0.016,0.717-0.58,0.824c-0.603,0.096-1.303-0.039-1.653-0.37
	c-0.344-0.327-0.13-0.752,0.543-0.857C574.086,192.562,574.843,192.744,575.112,193.09z"/>
<path fill="none" stroke="#373435" stroke-width="0.7805" stroke-linecap="round" stroke-linejoin="round" d="M575.112,193.09
	c0.274,0.348,0.016,0.717-0.58,0.824c-0.603,0.096-1.303-0.039-1.653-0.37c-0.344-0.327-0.13-0.752,0.543-0.857
	C574.087,192.562,574.843,192.744,575.112,193.09z"/>
<path fill="#FEFEFE" d="M580.997,192.5c0.06,0.363-0.382,0.668-0.995,0.68c-0.616-0.001-1.26-0.186-1.442-0.56
	c-0.172-0.341,0.213-0.741,0.964-0.749C580.278,191.855,580.936,192.137,580.997,192.5"/>
<path fill="#FEFEFE" d="M580.997,192.502c0.06,0.363-0.382,0.668-0.995,0.68c-0.616-0.001-1.26-0.186-1.442-0.56
	c-0.172-0.342,0.213-0.741,0.963-0.749C580.278,191.856,580.936,192.139,580.997,192.502z"/>
<path fill="none" stroke="#373435" stroke-width="0.7805" stroke-linecap="round" stroke-linejoin="round" d="M580.997,192.502
	c0.06,0.363-0.382,0.668-0.995,0.68c-0.616-0.001-1.26-0.186-1.442-0.56c-0.172-0.342,0.213-0.741,0.964-0.749
	C580.278,191.856,580.936,192.138,580.997,192.502z"/>
<path fill="#FEFEFE" d="M586.904,193.367c-0.398,0.302-1.024,0.329-1.569,0.226c-0.535-0.111-0.852-0.49-0.709-0.836
	c0.143-0.348,0.89-0.499,1.664-0.327C587.068,192.596,587.271,193.105,586.904,193.367"/>
<path fill="#FEFEFE" d="M586.905,193.369c-0.398,0.302-1.024,0.329-1.569,0.226c-0.535-0.111-0.852-0.49-0.709-0.836
	c0.143-0.348,0.89-0.499,1.665-0.327C587.068,192.597,587.271,193.106,586.905,193.369z"/>
<path fill="none" stroke="#373435" stroke-width="0.7805" stroke-linecap="round" stroke-linejoin="round" d="M586.905,193.369
	c-0.398,0.302-1.024,0.329-1.569,0.226c-0.535-0.111-0.852-0.49-0.709-0.836c0.143-0.348,0.89-0.499,1.665-0.327
	C587.068,192.597,587.271,193.106,586.905,193.369z"/>
<path fill="#FEFEFE" d="M590.57,196.045c-0.655,0.088-1.379-0.088-1.605-0.393c-0.253-0.293-0.086-0.643,0.5-0.821
	c0.556-0.174,1.424-0.021,1.757,0.36C591.52,195.576,591.223,195.959,590.57,196.045"/>
<path fill="#FEFEFE" d="M590.57,196.047c-0.655,0.088-1.379-0.088-1.605-0.393c-0.253-0.293-0.085-0.643,0.5-0.821
	c0.556-0.174,1.424-0.021,1.757,0.359C591.52,195.577,591.223,195.96,590.57,196.047z"/>
<path fill="none" stroke="#373435" stroke-width="0.7805" stroke-linecap="round" stroke-linejoin="round" d="M590.57,196.047
	c-0.655,0.088-1.379-0.088-1.605-0.393c-0.253-0.293-0.085-0.643,0.5-0.821c0.556-0.174,1.424-0.021,1.757,0.359
	C591.52,195.577,591.223,195.96,590.57,196.047z"/>
<path fill="#FEFEFE" d="M591.599,199.248c-0.689-0.036-1.28-0.334-1.311-0.669c-0.008-0.338,0.427-0.617,1.126-0.635
	c0.667-0.017,1.364,0.284,1.376,0.668C592.828,198.995,592.293,199.282,591.599,199.248"/>
<path fill="#FEFEFE" d="M591.6,199.249c-0.689-0.036-1.281-0.334-1.311-0.669c-0.007-0.338,0.427-0.618,1.126-0.636
	c0.668-0.017,1.364,0.284,1.376,0.668C592.828,198.996,592.294,199.283,591.6,199.249z"/>
<path fill="none" stroke="#373435" stroke-width="0.7805" stroke-linecap="round" stroke-linejoin="round" d="M591.6,199.249
	c-0.689-0.036-1.281-0.334-1.311-0.669c-0.007-0.338,0.427-0.618,1.126-0.636c0.668-0.017,1.364,0.284,1.376,0.668
	C592.828,198.996,592.294,199.283,591.6,199.249z"/>
<path fill="#FEFEFE" d="M590.8,202.376c-0.672-0.158-1.004-0.492-0.904-0.814c0.125-0.318,0.794-0.503,1.46-0.421
	c0.704,0.086,1.132,0.455,0.988,0.829C592.223,202.348,591.427,202.528,590.8,202.376"/>
<path fill="#FEFEFE" d="M590.8,202.377c-0.672-0.158-1.004-0.492-0.904-0.814c0.125-0.318,0.794-0.503,1.46-0.421
	c0.704,0.086,1.131,0.455,0.988,0.829C592.223,202.349,591.427,202.529,590.8,202.377z"/>
<path fill="none" stroke="#373435" stroke-width="0.7805" stroke-linecap="round" stroke-linejoin="round" d="M590.8,202.377
	c-0.672-0.158-1.004-0.492-0.904-0.814c0.125-0.318,0.794-0.503,1.46-0.421c0.704,0.086,1.131,0.455,0.988,0.829
	C592.223,202.349,591.427,202.529,590.8,202.377z"/>
<path fill="#FEFEFE" d="M586.571,204.325c-0.254-0.344,0.027-0.687,0.505-0.836c0.499-0.126,1.258,0.025,1.683,0.33
	c0.426,0.307,0.224,0.702-0.468,0.876C587.609,204.89,586.831,204.677,586.571,204.325"/>
<path fill="#FEFEFE" d="M586.571,204.326c-0.253-0.344,0.028-0.687,0.505-0.835c0.5-0.126,1.257,0.025,1.683,0.33
	c0.426,0.307,0.224,0.703-0.467,0.876C587.609,204.891,586.832,204.678,586.571,204.326z"/>
<path fill="none" stroke="#373435" stroke-width="0.7805" stroke-linecap="round" stroke-linejoin="round" d="M586.571,204.326
	c-0.253-0.344,0.028-0.687,0.505-0.835c0.5-0.126,1.257,0.025,1.683,0.33c0.426,0.307,0.224,0.703-0.467,0.876
	C587.609,204.891,586.832,204.678,586.571,204.326z"/>
<path fill="#FEFEFE" d="M580.618,204.805c-0.082-0.364,0.37-0.676,1.017-0.698c0.653-0.013,1.284,0.236,1.437,0.596
	c0.148,0.362-0.304,0.697-1.014,0.715C581.353,205.443,580.707,205.169,580.618,204.805"/>
<path fill="#FEFEFE" d="M580.619,204.807c-0.082-0.364,0.371-0.676,1.017-0.698c0.653-0.013,1.284,0.237,1.437,0.597
	c0.148,0.362-0.304,0.697-1.014,0.715C581.353,205.444,580.707,205.17,580.619,204.807z"/>
<path fill="none" stroke="#373435" stroke-width="0.7805" stroke-linecap="round" stroke-linejoin="round" d="M580.619,204.807
	c-0.082-0.364,0.371-0.676,1.017-0.698c0.652-0.013,1.284,0.237,1.437,0.597c0.148,0.362-0.304,0.697-1.014,0.715
	C581.353,205.444,580.707,205.17,580.619,204.807z"/>
<path fill="#FEFEFE" d="M579.719,197.674c2.088,0.514,3.149,1.785,2.362,2.839c-0.786,1.051-3.123,1.485-5.211,0.971
	c-2.091-0.515-3.151-1.785-2.364-2.837C575.293,197.593,577.627,197.159,579.719,197.674"/>
<path fill="#FEFEFE" d="M579.719,197.675c2.088,0.514,3.15,1.785,2.362,2.839c-0.786,1.052-3.122,1.485-5.211,0.971
	c-2.091-0.515-3.151-1.785-2.364-2.837C575.293,197.594,577.628,197.16,579.719,197.675z"/>
<path fill="none" stroke="#373435" stroke-width="0.7805" stroke-linecap="round" stroke-linejoin="round" d="M579.719,197.675
	c2.088,0.514,3.15,1.785,2.362,2.839c-0.786,1.052-3.123,1.485-5.211,0.971c-2.091-0.515-3.151-1.785-2.364-2.837
	C575.293,197.594,577.628,197.16,579.719,197.675z"/>
<path fill="#FEFEFE" d="M564.452,192.023c-0.278-0.341,0.071-0.759,0.882-0.835c0.769-0.105,1.591,0.145,1.693,0.511
	c0.102,0.359-0.27,0.684-0.923,0.77C565.453,192.528,564.732,192.372,564.452,192.023"/>
<path fill="#FEFEFE" d="M564.452,192.024c-0.278-0.341,0.071-0.759,0.882-0.835c0.77-0.105,1.591,0.145,1.693,0.511
	c0.102,0.359-0.27,0.684-0.923,0.77C565.453,192.529,564.732,192.373,564.452,192.024z"/>
<path fill="none" stroke="#373435" stroke-width="0.7805" stroke-linecap="round" stroke-linejoin="round" d="M564.452,192.024
	c-0.277-0.341,0.071-0.759,0.882-0.835c0.77-0.105,1.591,0.145,1.693,0.511c0.102,0.359-0.27,0.684-0.922,0.77
	C565.453,192.529,564.732,192.373,564.452,192.024z"/>
<path fill="#FEFEFE" d="M558.982,193.758c-0.502-0.274-0.448-0.72,0.127-0.995c0.537-0.299,1.509-0.148,1.886,0.142
	c0.438,0.334,0.207,0.663-0.231,0.924C560.286,194.065,559.487,194.031,558.982,193.758"/>
<path fill="#FEFEFE" d="M558.982,193.759c-0.502-0.275-0.448-0.72,0.127-0.995c0.537-0.298,1.509-0.149,1.885,0.142
	c0.438,0.334,0.208,0.663-0.23,0.924C560.286,194.067,559.487,194.032,558.982,193.759z"/>
<path fill="none" stroke="#373435" stroke-width="0.7805" stroke-linecap="round" stroke-linejoin="round" d="M558.982,193.759
	c-0.502-0.274-0.448-0.72,0.127-0.995c0.537-0.298,1.509-0.149,1.885,0.142c0.439,0.334,0.208,0.663-0.23,0.924
	C560.287,194.067,559.487,194.032,558.982,193.759z"/>
<path fill="#FEFEFE" d="M555.281,196.48c-0.607-0.166-1.027-0.646-0.547-0.97c0.426-0.342,1.247-0.435,1.832-0.215
	c0.583,0.223,0.764,0.64,0.399,0.927C556.537,196.493,555.945,196.66,555.281,196.48"/>
<path fill="#FEFEFE" d="M555.281,196.482c-0.607-0.166-1.027-0.646-0.546-0.97c0.426-0.342,1.246-0.435,1.832-0.215
	c0.583,0.223,0.764,0.64,0.399,0.927C556.537,196.495,555.945,196.661,555.281,196.482z"/>
<path fill="none" stroke="#373435" stroke-width="0.7805" stroke-linecap="round" stroke-linejoin="round" d="M555.281,196.482
	c-0.607-0.166-1.027-0.646-0.547-0.97c0.426-0.342,1.246-0.435,1.832-0.215c0.583,0.223,0.764,0.64,0.399,0.927
	C556.537,196.495,555.945,196.661,555.281,196.482z"/>
<path fill="#FEFEFE" d="M553.604,199.786c-0.687-0.082-1.169-0.479-1.074-0.883c0.052-0.409,0.755-0.631,1.463-0.503
	c0.64,0.118,1.038,0.496,0.997,0.872C554.911,199.639,554.29,199.87,553.604,199.786"/>
<path fill="#FEFEFE" d="M553.605,199.787c-0.688-0.082-1.169-0.478-1.074-0.883c0.052-0.408,0.755-0.631,1.463-0.503
	c0.64,0.118,1.039,0.496,0.997,0.872C554.912,199.64,554.29,199.871,553.605,199.787z"/>
<path fill="none" stroke="#373435" stroke-width="0.7805" stroke-linecap="round" stroke-linejoin="round" d="M553.605,199.787
	c-0.688-0.082-1.169-0.478-1.074-0.883c0.052-0.408,0.755-0.631,1.463-0.503c0.64,0.118,1.039,0.496,0.997,0.872
	C554.912,199.64,554.29,199.871,553.605,199.787z"/>
<path fill="#FEFEFE" d="M549.757,203.849c-0.686-0.084-1.165-0.48-1.073-0.886c0.056-0.408,0.759-0.627,1.464-0.501
	c0.639,0.115,1.04,0.494,1,0.87C551.068,203.701,550.442,203.933,549.757,203.849"/>
<path fill="#FEFEFE" d="M549.757,203.849c-0.686-0.084-1.165-0.48-1.072-0.886c0.057-0.408,0.758-0.627,1.464-0.5
	c0.638,0.115,1.04,0.494,0.999,0.87C551.069,203.702,550.442,203.934,549.757,203.849z"/>
<path fill="none" stroke="#373435" stroke-width="0.7805" stroke-linecap="round" stroke-linejoin="round" d="M549.757,203.849
	c-0.686-0.084-1.165-0.48-1.072-0.886c0.057-0.408,0.758-0.627,1.464-0.5c0.638,0.115,1.04,0.494,0.999,0.87
	C551.069,203.702,550.442,203.934,549.757,203.849z"/>
<path fill="#FEFEFE" d="M554.241,202.226c-0.687-0.082-1.169-0.478-1.074-0.883c0.052-0.409,0.757-0.628,1.462-0.501
	c0.638,0.115,1.042,0.494,0.998,0.87C555.55,202.08,554.927,202.31,554.241,202.226"/>
<path fill="#FEFEFE" d="M554.242,202.227c-0.687-0.082-1.169-0.479-1.074-0.884c0.052-0.408,0.757-0.627,1.462-0.501
	c0.638,0.114,1.042,0.494,0.998,0.87C555.551,202.081,554.927,202.311,554.242,202.227z"/>
<path fill="none" stroke="#373435" stroke-width="0.7805" stroke-linecap="round" stroke-linejoin="round" d="M554.242,202.227
	c-0.687-0.082-1.169-0.479-1.074-0.884c0.052-0.408,0.757-0.627,1.462-0.501c0.638,0.114,1.042,0.494,0.998,0.87
	C555.551,202.081,554.927,202.311,554.242,202.227z"/>
<path fill="#FEFEFE" d="M553.207,206.845c-0.685-0.084-1.169-0.481-1.075-0.884c0.054-0.408,0.761-0.629,1.462-0.503
	c0.639,0.117,1.047,0.495,1.001,0.872C554.514,206.698,553.893,206.929,553.207,206.845"/>
<path fill="#FEFEFE" d="M553.208,206.846c-0.686-0.084-1.169-0.481-1.076-0.884c0.055-0.408,0.762-0.629,1.462-0.503
	c0.639,0.117,1.047,0.495,1.001,0.872C554.514,206.7,553.893,206.93,553.208,206.846z"/>
<path fill="none" stroke="#373435" stroke-width="0.7805" stroke-linecap="round" stroke-linejoin="round" d="M553.208,206.846
	c-0.686-0.084-1.169-0.481-1.076-0.884c0.055-0.408,0.762-0.629,1.462-0.503c0.639,0.117,1.047,0.495,1.001,0.872
	C554.515,206.7,553.893,206.93,553.208,206.846z"/>
<path fill="#FEFEFE" d="M556.932,205.461c-0.687-0.082-1.165-0.48-1.074-0.883c0.052-0.409,0.759-0.627,1.464-0.501
	c0.64,0.113,1.039,0.494,0.996,0.869C558.244,205.313,557.619,205.543,556.932,205.461"/>
<path fill="#FEFEFE" d="M556.931,205.462c-0.686-0.082-1.165-0.48-1.074-0.883c0.052-0.409,0.759-0.627,1.464-0.501
	c0.64,0.113,1.038,0.494,0.995,0.869C558.244,205.315,557.619,205.544,556.931,205.462z"/>
<path fill="none" stroke="#373435" stroke-width="0.7805" stroke-linecap="round" stroke-linejoin="round" d="M556.932,205.462
	c-0.687-0.082-1.165-0.48-1.074-0.883c0.052-0.409,0.759-0.627,1.464-0.501c0.64,0.113,1.038,0.494,0.995,0.869
	C558.244,205.315,557.619,205.544,556.932,205.462z"/>
<path fill="#FEFEFE" d="M607.486,184.796c0.631-0.115,1.392,0.089,1.702,0.459c0.307,0.37,0.046,0.767-0.586,0.882
	c-0.631,0.117-1.391-0.086-1.703-0.457C606.59,185.312,606.855,184.914,607.486,184.796z"/>
<path fill="none" stroke="#373435" stroke-width="0.7805" stroke-linecap="round" stroke-linejoin="round" d="M607.486,184.796
	c0.631-0.115,1.392,0.089,1.702,0.459c0.307,0.37,0.046,0.767-0.586,0.882c-0.631,0.117-1.391-0.086-1.703-0.457
	C606.59,185.312,606.855,184.914,607.486,184.796z"/>
<path fill="#FEFEFE" d="M602.772,188.068c0.631-0.115,1.392,0.089,1.703,0.459c0.307,0.37,0.046,0.767-0.586,0.882
	c-0.632,0.118-1.391-0.086-1.703-0.457C601.877,188.584,602.14,188.185,602.772,188.068z"/>
<path fill="none" stroke="#373435" stroke-width="0.7805" stroke-linecap="round" stroke-linejoin="round" d="M602.772,188.068
	c0.631-0.115,1.392,0.089,1.703,0.459c0.307,0.37,0.046,0.767-0.586,0.882c-0.632,0.118-1.391-0.086-1.703-0.457
	C601.877,188.584,602.141,188.185,602.772,188.068z"/>
<path fill="#FEFEFE" d="M626.894,198.738c-0.285-0.343,0.033-0.726,0.716-0.854c0.677-0.125,1.464,0.05,1.747,0.395
	c0.288,0.341-0.031,0.724-0.711,0.851C627.965,199.258,627.181,199.081,626.894,198.738z"/>
<path fill="none" stroke="#373435" stroke-width="0.7805" stroke-linecap="round" stroke-linejoin="round" d="M626.894,198.738
	c-0.285-0.343,0.033-0.726,0.716-0.854c0.677-0.125,1.464,0.05,1.747,0.395c0.288,0.341-0.031,0.724-0.71,0.851
	C627.965,199.258,627.181,199.081,626.894,198.738z"/>
<path fill="#FEFEFE" d="M578.747,179.03c2.089,0.515,3.149,1.786,2.361,2.839c-0.786,1.051-3.122,1.485-5.211,0.971
	c-2.091-0.515-3.151-1.785-2.364-2.837C574.321,178.949,576.655,178.515,578.747,179.03z"/>
<path fill="none" stroke="#373435" stroke-width="0.7805" stroke-linecap="round" stroke-linejoin="round" d="M578.747,179.03
	c2.089,0.515,3.149,1.786,2.362,2.839c-0.786,1.051-3.122,1.485-5.211,0.971c-2.091-0.515-3.151-1.785-2.364-2.837
	C574.321,178.949,576.655,178.515,578.747,179.03z"/>
<path fill="#FEFEFE" d="M563.254,174.733c0.283,0.345-0.035,0.728-0.715,0.855c-0.677,0.125-1.463-0.05-1.746-0.395
	c-0.289-0.342,0.032-0.724,0.712-0.848C562.186,174.213,562.967,174.391,563.254,174.733z"/>
<path fill="none" stroke="#373435" stroke-width="0.7805" stroke-linecap="round" stroke-linejoin="round" d="M563.254,174.733
	c0.283,0.345-0.035,0.728-0.715,0.855c-0.677,0.125-1.463-0.05-1.746-0.395c-0.289-0.342,0.032-0.724,0.712-0.848
	C562.186,174.213,562.967,174.391,563.254,174.733z"/>
<path fill="#FEFEFE" d="M620.032,189.204c1.901,1.005,2.623,2.495,1.604,3.326c-1.017,0.83-3.389,0.685-5.29-0.32
	c-1.904-1.006-2.625-2.495-1.607-3.325C615.758,188.054,618.128,188.198,620.032,189.204z"/>
<path fill="none" stroke="#373435" stroke-width="0.7805" stroke-linecap="round" stroke-linejoin="round" d="M620.032,189.204
	c1.901,1.005,2.623,2.495,1.604,3.326c-1.017,0.83-3.389,0.685-5.29-0.32c-1.904-1.006-2.625-2.495-1.607-3.325
	C615.758,188.054,618.128,188.198,620.032,189.204z"/>
<path fill="#FEFEFE" d="M591.279,182.166c-0.636,0.111-1.37-0.069-1.645-0.403c-0.265-0.333-0.005-0.695,0.617-0.832
	c0.609-0.132,1.384,0.052,1.666,0.401C592.201,181.683,591.912,182.056,591.279,182.166z"/>
<path fill="none" stroke="#373435" stroke-width="0.7805" stroke-linecap="round" stroke-linejoin="round" d="M591.279,182.166
	c-0.636,0.111-1.37-0.069-1.645-0.403c-0.265-0.334-0.005-0.695,0.617-0.832c0.609-0.132,1.384,0.052,1.666,0.401
	C592.201,181.683,591.912,182.056,591.279,182.166z"/>
<path fill="#FEFEFE" d="M590.054,178.574c-0.636,0.112-1.37-0.069-1.645-0.403c-0.266-0.334-0.005-0.695,0.617-0.831
	c0.609-0.133,1.384,0.051,1.666,0.401C590.975,178.091,590.687,178.464,590.054,178.574z"/>
<path fill="none" stroke="#373435" stroke-width="0.7805" stroke-linecap="round" stroke-linejoin="round" d="M590.054,178.574
	c-0.636,0.112-1.37-0.069-1.645-0.403c-0.266-0.334-0.005-0.695,0.617-0.831c0.609-0.133,1.384,0.052,1.666,0.401
	C590.975,178.091,590.687,178.464,590.054,178.574z"/>
<path fill="#FEFEFE" d="M612.754,184.715c0.631-0.115,1.392,0.089,1.702,0.459c0.307,0.37,0.046,0.767-0.586,0.882
	c-0.632,0.117-1.391-0.086-1.703-0.458C611.858,185.231,612.122,184.833,612.754,184.715z"/>
<path fill="none" stroke="#373435" stroke-width="0.7805" stroke-linecap="round" stroke-linejoin="round" d="M612.754,184.715
	c0.631-0.115,1.392,0.089,1.702,0.459c0.307,0.37,0.046,0.767-0.586,0.882c-0.632,0.117-1.391-0.086-1.703-0.458
	C611.858,185.231,612.122,184.833,612.754,184.715z"/>
<path fill="none" stroke="#201E1E" stroke-width="0.5" stroke-miterlimit="2.6131" d="M55.621,56.999
	c1.348-2.26,12.138,4.298,19.265,6.816c27.25,9.63,61.903,19.298,95.529,20.133c48.891,1.215,96.312-13.898,127.047-36.543
	c7.662-5.645,15.239-6.771,22.152-5.586c13.852,2.374,25.04,14.024,28.926,17.162c5.825,4.703,48.509,42.535,62.896,62.734"/>
<polyline fill="none" stroke="#201E1E" stroke-width="0.7087" stroke-miterlimit="4" points="143.379,81.447 143.502,81.689 
	150.695,95.87 "/>
<path fill="none" stroke="#000000" stroke-width="0.5669" stroke-miterlimit="2.6131" d="M329.592,55.82
	c-13.9-10.104-33.883,1.771-36.065,2.999c-5.975,3.36-16.498,9.308-17.34,9.811c-6.12,3.658-12.607,6.739-18.889,9.24
	c-16.339,6.733-31.388,12.658-48.827,15.85c-15.15,2.773-30.411,4.71-45.776,3.198c-14.474-1.424-28.828-5.622-42.427-10.613
	c-11.799-4.331-23.236-9.347-34.49-14.942L54.871,56c0,0-47.354,90.369-8.314,147.844l2.711,7.049l193.028,18.435
	c0,0,110.069,47.172,216.343,35.244c1.527-0.034,3.051-0.087,4.578-0.152c4.31-0.188,8.625-0.236,12.936-0.399
	c6.367-0.237,12.724-0.689,19.085-1.032c7.88-0.424,15.767-0.736,23.636-1.34c8.825-0.677,17.63-1.595,26.45-2.329
	c9.107-0.757,18.199-1.529,27.249-2.823c8.846-1.266,17.668-2.693,26.515-3.954c8.074-1.152,15.991-2.674,23.815-4.997
	c6.357-1.888,12.769-3.625,19.111-5.548c6.331-1.92,13.419-6.524,17.408-12.58c1.634-2.48,2.749-5.204,3.078-8.085
	c3.055-26.726-76.845-47.709-97.802-47.518c-12.719,0.116-16.892,0.503-29.609,0.751c-0.003,0-55.487-0.543-95.067-29.279"/>
<path fill="none" stroke="#201E1E" stroke-width="0.5669" stroke-miterlimit="2.6131" d="M330.342,56.819
	c17.705,13.544,35.313,27.223,53.164,40.572c7.67,5.735,15.991,10.911,22.633,17.89c13.979,14.685,16.845,18.844,35.822,31.38"/>
<path fill="#FFFFFF" d="M49.232,206.221c0.116-0.123,0.311-0.129,0.433-0.016c0.443,0.418,0.898,0.821,1.364,1.214
	c0.127,0.111,0.142,0.304,0.034,0.433c-0.108,0.13-0.301,0.144-0.43,0.032c-0.472-0.399-0.935-0.808-1.384-1.233
	C49.124,206.536,49.116,206.344,49.232,206.221z"/>
<path fill="none" stroke="#201E1E" stroke-width="0.216" stroke-miterlimit="2.6131" d="M49.232,206.221
	c0.116-0.123,0.311-0.129,0.433-0.016c0.443,0.418,0.898,0.821,1.364,1.214c0.127,0.111,0.142,0.304,0.034,0.433
	c-0.108,0.13-0.301,0.144-0.43,0.032c-0.472-0.399-0.935-0.808-1.384-1.233C49.124,206.536,49.116,206.344,49.232,206.221z"/>
<path fill="#FFFFFF" d="M47.361,204.336c0.123-0.116,0.317-0.109,0.432,0.013c0.415,0.446,0.847,0.875,1.283,1.299
	c0.119,0.118,0.122,0.312,0.006,0.435c-0.117,0.122-0.309,0.124-0.431,0.004c-0.442-0.432-0.88-0.866-1.301-1.319
	C47.233,204.644,47.237,204.45,47.361,204.336z"/>
<path fill="none" stroke="#201E1E" stroke-width="0.216" stroke-miterlimit="2.6131" d="M47.361,204.336
	c0.123-0.116,0.317-0.109,0.432,0.013c0.415,0.446,0.847,0.875,1.283,1.299c0.119,0.118,0.122,0.312,0.006,0.435
	c-0.117,0.122-0.309,0.124-0.431,0.004c-0.442-0.432-0.88-0.866-1.301-1.319C47.233,204.644,47.237,204.45,47.361,204.336z"/>
<path fill="#FFFFFF" d="M45.606,202.339c0.13-0.107,0.323-0.09,0.431,0.039c0.387,0.471,0.795,0.922,1.202,1.375
	c0.112,0.126,0.103,0.32-0.02,0.433c-0.125,0.116-0.318,0.106-0.431-0.022c-0.412-0.46-0.826-0.917-1.218-1.395
	C45.46,202.64,45.476,202.447,45.606,202.339z"/>
<path fill="none" stroke="#201E1E" stroke-width="0.216" stroke-miterlimit="2.6131" d="M45.606,202.339
	c0.13-0.107,0.323-0.09,0.431,0.039c0.387,0.471,0.795,0.922,1.202,1.375c0.112,0.126,0.103,0.32-0.02,0.433
	c-0.125,0.116-0.318,0.106-0.431-0.022c-0.412-0.46-0.826-0.917-1.218-1.395C45.46,202.64,45.476,202.447,45.606,202.339z"/>
<path fill="#33150D" d="M220.786,270.36c1.238-0.927,2.529-1.784,3.821-2.634c2.936-1.931,5.965-3.703,9.128-5.232
	c1.967-0.95,4.099-1.65,6.033-2.721c0.199-0.11,1.611-0.757,1.606-0.89l-0.27-7.095c0,0-11.087-8.62-19.699-1.029L220.786,270.36z"
	/>
<path fill="none" stroke="#231F1F" stroke-width="0.7447" stroke-linejoin="round" stroke-miterlimit="2.6131" d="M220.786,270.36
	c1.238-0.927,2.529-1.784,3.821-2.634c2.936-1.931,5.965-3.703,9.128-5.232c1.967-0.95,4.099-1.65,6.033-2.721
	c0.199-0.11,1.611-0.757,1.606-0.89l-0.27-7.095c0,0-11.087-8.62-19.699-1.029L220.786,270.36z"/>
<path fill="#33150D" d="M221.01,265.119c1.313-0.966,2.698-1.843,4.075-2.711c3.027-1.909,6.179-3.579,9.478-4.962
	c0.964-0.404,1.934-0.786,2.91-1.155c0.472-0.178,0.946-0.353,1.42-0.525c0.868-0.316,1.988-0.813,2.479-1.682
	c-0.023,1.539,0.048,3.169,0.002,4.708c-0.014,0.469-0.997,0.756-1.333,0.905c-1.15,0.512-2.26,1.091-3.423,1.58
	c-1.954,0.822-3.872,1.642-5.71,2.694c-2.92,1.671-5.747,3.355-8.529,5.249c-0.541,0.368-1.074,0.742-1.595,1.139L221.01,265.119z"
	/>
<path fill="none" stroke="#231F1F" stroke-width="0.498" stroke-linejoin="round" stroke-miterlimit="2.6131" d="M221.01,265.119
	c1.313-0.966,2.698-1.843,4.075-2.711c3.027-1.909,6.179-3.579,9.478-4.962c0.964-0.404,1.934-0.786,2.91-1.155
	c0.472-0.178,0.946-0.353,1.42-0.525c0.868-0.316,1.988-0.813,2.479-1.682c-0.023,1.539,0.048,3.169,0.002,4.708
	c-0.014,0.469-0.997,0.756-1.333,0.905c-1.15,0.512-2.26,1.091-3.423,1.58c-1.954,0.822-3.872,1.642-5.71,2.694
	c-2.92,1.671-5.747,3.355-8.529,5.249c-0.541,0.368-1.074,0.742-1.595,1.139L221.01,265.119z"/>
<path fill="none" stroke="#231F1F" stroke-width="0.2492" stroke-linecap="round" stroke-linejoin="round" stroke-miterlimit="4" d="
	M221.236,260.058c0,0,9.599-6.371,19.735-7.862"/>
<path fill="#754B3D" d="M33.888,227.707c-0.135,1.266,7.739,4.021,8.709,4.206c24.998,4.785,47.358,6.831,71.763,9.122
	c22.68,2.131,48.064,3.717,70.758,5.693c2.634,0.23,36.087,4.015,36.117,3.75l-0.358,3.253c0,0-174.475-3.207-187.307-15.135
	C33.572,238.597,33.888,227.719,33.888,227.707z"/>
<path fill="none" stroke="#231F1F" stroke-width="0.498" stroke-linejoin="round" stroke-miterlimit="2.6131" d="M33.888,227.707
	c-0.135,1.266,7.739,4.021,8.709,4.206c24.998,4.785,47.358,6.831,71.763,9.122c22.68,2.131,48.064,3.717,70.758,5.693
	c2.634,0.23,36.087,4.015,36.117,3.75l-0.358,3.253c0,0-174.475-3.207-187.307-15.135C33.572,238.597,33.888,227.719,33.888,227.707
	z"/>
<path fill="#C27549" d="M135.293,280.028c0,0,38.774,1.72,85.179,2.262l0.178-5.241l-87.234-2.892v5.422L135.293,280.028z"/>
<path fill="none" stroke="#231F1F" stroke-width="0.4986" stroke-miterlimit="2.6131" d="M135.293,280.028
	c0,0,38.774,1.72,85.179,2.262l0.178-5.241l-87.234-2.892v5.422L135.293,280.028z"/>
<path fill="#505050" d="M33.027,254.636c0,0-0.36,11.567-0.36,11.568c-0.136,4.483,12.371,6.612,15.355,7.319
	c9.477,2.243,17.242,2.535,26.927,3.29c12.149,0.946,24.29,1.919,36.465,2.456c7.989,0.352,15.982,0.59,23.978,0.672l0.179-4.79
	l84.946,2.26l0.179-8.224c-1.067-0.041-2.135-0.083-3.203-0.124c-3.024-0.118-6.049-0.235-9.075-0.353
	c-34.692-1.348-69.414-1.716-104.105-3.059c-9.927-0.384-19.851-0.921-29.75-1.774c-8.3-0.715-16.58-1.793-24.745-3.468
	C44.213,259.259,37.623,258.34,33.027,254.636z"/>
<path fill="none" stroke="#231F1F" stroke-width="0.7472" stroke-miterlimit="2.6131" d="M33.027,254.636
	c0,0-0.36,11.567-0.36,11.568c-0.136,4.483,12.371,6.612,15.355,7.319c9.477,2.243,17.242,2.535,26.927,3.29
	c12.149,0.946,24.29,1.919,36.465,2.456c7.989,0.352,15.982,0.59,23.978,0.672l0.179-4.79l84.946,2.26l0.179-8.224
	c-1.067-0.041-2.135-0.083-3.203-0.124c-3.024-0.118-6.049-0.235-9.075-0.353c-34.692-1.348-69.414-1.716-104.105-3.059
	c-9.927-0.384-19.851-0.921-29.75-1.774c-8.3-0.715-16.58-1.793-24.745-3.468C44.213,259.259,37.623,258.34,33.027,254.636z"/>
<path fill="#505050" d="M135.384,278.042L32.758,265.027C32.758,265.027,31.233,276.053,135.384,278.042"/>
<path fill="none" stroke="#231F1F" stroke-width="0.498" stroke-miterlimit="10" d="M32.758,265.027
	c0,0-1.525,11.026,102.626,13.015"/>
<path fill="#754B3D" d="M33.407,246.128l-0.21,7.59c0,0-2.826,11.286,97.466,13.582l90.143,2.167l0.212-7.952
	C221.018,261.514,38.016,261.87,33.407,246.128z"/>
<path fill="none" stroke="#231F1F" stroke-width="0.7472" stroke-miterlimit="2.6131" d="M33.407,246.128l-0.21,7.59
	c0,0-2.826,11.286,97.466,13.582l90.143,2.167l0.212-7.952C221.018,261.514,38.016,261.87,33.407,246.128z"/>
<path fill="#754B3D" d="M33.609,240.901l-0.224,6.868c0,0-3.024,10.03,97.352,12.691l90.218,2.483l0.247-7.124
	C221.202,255.819,38.151,255.034,33.609,240.901z"/>
<path fill="none" stroke="#231F1F" stroke-width="0.7472" stroke-miterlimit="2.6131" d="M33.609,240.901l-0.224,6.868
	c0,0-3.024,10.03,97.352,12.691l90.218,2.483l0.247-7.124C221.202,255.819,38.151,255.034,33.609,240.901z"/>
<path fill="#754B3D" d="M33.688,235.845l-0.244,6.799c0,0-2.881,10.096,97.494,12.757l90.217,2.483l0.249-7.124
	C221.405,250.76,38.23,249.977,33.688,235.845z"/>
<path fill="none" stroke="#231F1F" stroke-width="0.498" stroke-miterlimit="2.6131" d="M33.688,235.845l-0.244,6.799
	c0,0-2.881,10.096,97.494,12.757l90.217,2.483l0.249-7.124C221.405,250.76,38.23,249.977,33.688,235.845z"/>
<path fill="#754B3D" d="M34.611,201.547c0.599-1.279,2.531-2.53,3.84-2.668c5.858,5.063,20.443,6.285,27.597,7.049
	c35.558,3.795,55.175,4.475,89.159,7.59c20.699,1.898,53.397,4.641,75.361,8.133c20.638,3.282,37.617,8.543,57.868,13.684
	c40.833,10.367,80.36,23.209,127.613,22.373c30.203-0.534,61.168-1.085,91.282-3.253c31.364-2.259,58.908-4.88,90.103-10.191
	c18.653-3.176,38.859-6.618,56.642-13.381c1.087-0.413,9.438-4.269,9.018-6.521c0,0,9.201-0.542,8.661,4.338l-0.362,1.085
	c-0.457,0.513-0.849,0.853-1.618,1.377c-2.489,1.693-6.007,3.262-6.691,3.517c-18.168,6.763-38.813,10.205-57.871,13.381
	c-31.87,5.311-60.012,7.932-92.055,10.191c-30.766,2.168-62.406,2.72-93.261,3.253c-48.278,0.836-88.663-12.006-130.381-22.372
	c-20.69-5.141-38.037-10.403-59.122-13.685c-22.44-3.493-55.848-6.236-76.994-8.133c-34.721-3.116-54.764-3.796-91.093-7.591
	c-3.828-0.4-7.67-0.752-11.473-1.357c-4.994-0.795-10.794-1.72-15.166-4.435C34.588,203.261,34.264,202.287,34.611,201.547z"/>
<path fill="none" stroke="#231F1F" stroke-width="0.75" stroke-miterlimit="2.6131" d="M34.611,201.547
	c0.599-1.279,2.531-2.53,3.84-2.668c5.858,5.063,20.443,6.285,27.597,7.049c35.558,3.795,55.175,4.475,89.159,7.59
	c20.699,1.898,53.397,4.641,75.361,8.133c20.638,3.282,37.617,8.543,57.868,13.684c40.833,10.367,80.36,23.209,127.613,22.373
	c30.203-0.534,61.168-1.085,91.282-3.253c31.364-2.259,58.908-4.88,90.103-10.191c18.653-3.176,38.859-6.618,56.642-13.381
	c1.087-0.413,9.438-4.269,9.018-6.521c0,0,9.201-0.542,8.661,4.338l-0.362,1.085c-0.457,0.513-0.849,0.853-1.618,1.377
	c-2.489,1.693-6.007,3.262-6.691,3.517c-18.168,6.763-38.813,10.205-57.871,13.381c-31.87,5.311-60.012,7.932-92.055,10.191
	c-30.766,2.168-62.406,2.72-93.261,3.253c-48.278,0.836-88.663-12.006-130.381-22.372c-20.69-5.141-38.037-10.403-59.122-13.685
	c-22.44-3.493-55.848-6.236-76.994-8.133c-34.721-3.116-54.764-3.796-91.093-7.591c-3.828-0.4-7.67-0.752-11.473-1.357
	c-4.994-0.795-10.794-1.72-15.166-4.435C34.588,203.261,34.264,202.287,34.611,201.547z"/>
<path fill="#B76B54" d="M33.933,229.424c0,0,7.041,4.88,31.955,7.049c5.326,0.491,10.655,0.966,15.981,1.478
	c12.662,1.217,25.336,2.3,37.999,3.512c15.324,1.466,30.662,2.767,45.985,4.254c13.311,1.292,26.641,2.343,39.944,3.723
	c26.709,2.77,53.445,6.141,79.391,13.287c6.927,1.908,13.859,3.866,20.631,6.279c0,0,56.327,20.062,121.32,18.977
	c0,0,209.328-8.675,247.783-35.515c0,0-2.98-24.125-2.98-24.129c0.428,2.252-8.095,6.108-9.203,6.521
	c-18.147,6.763-38.768,10.205-57.805,13.381c-31.834,5.311-59.944,7.932-91.952,10.191c-30.732,2.168-62.336,2.72-93.157,3.253
	c-48.223,0.836-88.562-12.006-130.234-22.372c-20.666-5.141-37.994-10.403-59.056-13.685c-22.415-3.493-55.785-6.235-76.907-8.133
	c-34.681-3.116-54.702-3.796-90.989-7.591c-7.301-0.764-22.186-1.986-28.164-7.048L33.933,229.424z"/>
<path fill="none" stroke="#231F1F" stroke-width="0.75" stroke-miterlimit="2.6131" d="M33.933,229.424c0,0,7.041,4.88,31.955,7.049
	c5.326,0.491,10.655,0.966,15.981,1.478c12.662,1.217,25.336,2.3,37.999,3.512c15.324,1.466,30.662,2.767,45.985,4.254
	c13.311,1.292,26.641,2.343,39.944,3.723c26.709,2.77,53.445,6.141,79.391,13.287c6.927,1.908,13.859,3.866,20.631,6.279
	c0,0,56.327,20.062,121.32,18.977c0,0,209.328-8.675,247.783-35.515c0,0-2.98-24.125-2.98-24.129
	c0.428,2.252-8.095,6.108-9.203,6.521c-18.147,6.763-38.768,10.205-57.805,13.381c-31.834,5.311-59.944,7.932-91.952,10.191
	c-30.732,2.168-62.336,2.72-93.157,3.253c-48.223,0.836-88.562-12.006-130.234-22.372c-20.666-5.141-37.994-10.403-59.056-13.685
	c-22.415-3.493-55.785-6.235-76.907-8.133c-34.681-3.116-54.702-3.796-90.989-7.591c-7.301-0.764-22.186-1.986-28.164-7.048
	L33.933,229.424z"/>
<path fill="none" stroke="#231F1F" stroke-width="0.25" stroke-miterlimit="4" d="M34.011,225.51c0,0,7.032,4.881,31.918,7.053
	c5.321,0.491,10.643,0.967,15.962,1.48c12.648,1.217,25.307,2.302,37.956,3.515c15.306,1.467,30.627,2.771,45.933,4.26
	c13.295,1.293,26.611,2.345,39.899,3.725c26.678,2.775,53.384,6.148,79.299,13.297c6.92,1.909,13.843,3.868,20.607,6.281
	c0,0,56.261,20.07,121.18,18.992c0,0,209.095-8.651,247.51-35.485"/>
<path fill="#754B3D" d="M672.779,236.342c0.426,2.149-8.091,5.814-9.196,6.206c-18.128,6.42-38.718,9.669-57.729,12.667
	c-31.787,5.014-59.855,7.467-91.814,9.569c-30.681,2.017-62.232,2.492-93.002,2.949c-48.141,0.718-88.385-10.23-129.98-21.554
	c-20.447-5.567-37.913-9.986-58.933-13.151c-22.373-3.369-55.682-6.039-76.765-7.885c-34.618-3.029-54.603-3.71-90.824-7.39
	c-3.328-0.339-6.658-0.653-9.98-1.055c-3.771-0.456-7.536-1.042-11.226-1.954c-1.642-0.406-3.286-0.848-4.843-1.52
	c-1.849-0.797-3.198-1.419-4.218-2.763l-0.2,12.411c0,0,7.021,4.667,31.889,6.778c5.317,0.477,10.636,0.938,15.951,1.437
	c12.639,1.18,25.29,2.235,37.929,3.411c15.297,1.423,30.607,2.69,45.901,4.132c13.286,1.255,26.592,2.279,39.871,3.618
	c26.658,2.687,53.345,5.947,79.234,12.806c6.914,1.831,13.829,3.712,20.586,6.023c0,0,57.104,17.506,121.628,17.268
	c0,0,208.447-6.895,246.876-32.434L672.779,236.342z"/>
<path fill="#FEFEFE" d="M660.731,232.256c-0.121-0.343,0.062-0.723,0.4-0.859c1.061-0.43,2.146-0.974,2.755-1.723
	c0.292-0.378,0.398-0.739,0.301-1.133c-0.093-0.4-0.398-0.831-0.775-1.214c-0.233-0.24-0.267-0.649-0.034-0.931
	c0.231-0.281,0.68-0.302,0.981,0.005c0.457,0.479,0.917,1.046,1.114,1.831c0.222,0.794-0.078,1.706-0.547,2.259
	c-0.953,1.129-2.152,1.644-3.302,2.133C661.255,232.773,660.854,232.599,660.731,232.256z"/>
<path fill="none" stroke="#201E1E" stroke-width="0.2503" stroke-miterlimit="2.6131" d="M660.731,232.256
	c-0.121-0.343,0.062-0.723,0.4-0.859c1.061-0.43,2.146-0.974,2.755-1.723c0.292-0.378,0.398-0.739,0.301-1.133
	c-0.093-0.4-0.398-0.831-0.775-1.214c-0.233-0.24-0.267-0.649-0.034-0.931c0.231-0.281,0.68-0.302,0.981,0.005
	c0.457,0.479,0.917,1.046,1.114,1.831c0.222,0.794-0.078,1.706-0.547,2.259c-0.953,1.129-2.152,1.644-3.302,2.133
	C661.255,232.773,660.854,232.599,660.731,232.256z"/>
<path fill="#FEFEFE" d="M652.323,235.195c-0.11-0.347,0.093-0.722,0.455-0.839c2.29-0.747,4.562-1.542,6.814-2.396
	c0.385-0.144,0.76,0.047,0.885,0.387c0.125,0.344-0.089,0.727-0.417,0.85c-2.271,0.862-4.565,1.664-6.873,2.416
	C652.82,235.731,652.435,235.542,652.323,235.195z"/>
<path fill="none" stroke="#201E1E" stroke-width="0.2503" stroke-miterlimit="2.6131" d="M652.323,235.195
	c-0.11-0.347,0.093-0.722,0.455-0.839c2.29-0.747,4.562-1.542,6.814-2.396c0.385-0.144,0.76,0.047,0.885,0.387
	c0.125,0.344-0.089,0.727-0.417,0.85c-2.271,0.862-4.565,1.664-6.873,2.416C652.82,235.731,652.435,235.542,652.323,235.195z"/>
<path fill="#FEFEFE" d="M643.779,237.713c-0.093-0.352,0.127-0.716,0.493-0.819c2.326-0.636,4.639-1.312,6.937-2.036
	c0.362-0.116,0.745,0.073,0.856,0.421c0.112,0.347-0.093,0.724-0.458,0.842c-2.317,0.729-4.645,1.409-6.985,2.05
	C644.251,238.273,643.874,238.065,643.779,237.713z"/>
<path fill="none" stroke="#201E1E" stroke-width="0.2503" stroke-miterlimit="2.6131" d="M643.779,237.713
	c-0.093-0.352,0.127-0.716,0.493-0.819c2.326-0.636,4.639-1.312,6.937-2.036c0.362-0.116,0.745,0.073,0.856,0.421
	c0.112,0.347-0.093,0.724-0.458,0.842c-2.317,0.729-4.645,1.409-6.985,2.05C644.251,238.273,643.874,238.065,643.779,237.713z"/>
<path fill="#FEFEFE" d="M635.137,239.875c-0.081-0.354,0.153-0.714,0.523-0.802c2.349-0.55,4.689-1.131,7.019-1.751
	c0.368-0.098,0.743,0.109,0.838,0.459c0.096,0.353-0.127,0.72-0.497,0.819c-2.345,0.623-4.698,1.208-7.057,1.76
	C635.588,240.449,635.22,240.231,635.137,239.875z"/>
<path fill="none" stroke="#201E1E" stroke-width="0.2503" stroke-miterlimit="2.6131" d="M635.137,239.875
	c-0.081-0.354,0.153-0.714,0.523-0.802c2.349-0.55,4.689-1.131,7.019-1.751c0.368-0.098,0.743,0.109,0.838,0.459
	c0.096,0.353-0.127,0.72-0.497,0.819c-2.345,0.623-4.698,1.208-7.057,1.76C635.588,240.449,635.22,240.231,635.137,239.875z"/>
<path fill="#FEFEFE" d="M626.432,241.762c-0.072-0.357,0.172-0.71,0.544-0.787c2.364-0.485,4.723-0.992,7.076-1.529
	c0.371-0.085,0.739,0.135,0.822,0.49c0.081,0.356-0.155,0.714-0.527,0.799c-2.364,0.539-4.732,1.049-7.106,1.536
	C626.867,242.347,626.504,242.118,626.432,241.762z"/>
<path fill="none" stroke="#201E1E" stroke-width="0.2503" stroke-miterlimit="2.6131" d="M626.432,241.762
	c-0.072-0.357,0.172-0.71,0.544-0.787c2.364-0.485,4.723-0.992,7.076-1.529c0.371-0.085,0.739,0.135,0.822,0.49
	c0.081,0.356-0.155,0.714-0.527,0.799c-2.364,0.539-4.732,1.049-7.106,1.536C626.867,242.347,626.504,242.118,626.432,241.762z"/>
<path fill="#FEFEFE" d="M617.685,243.447c-0.066-0.358,0.184-0.706,0.559-0.775l7.114-1.368c0.375-0.074,0.735,0.157,0.807,0.512
	c0.074,0.358-0.172,0.71-0.547,0.785l-7.133,1.372C618.109,244.042,617.75,243.805,617.685,243.447z"/>
<path fill="none" stroke="#201E1E" stroke-width="0.2503" stroke-miterlimit="2.6131" d="M617.685,243.447
	c-0.066-0.358,0.184-0.706,0.559-0.775l7.114-1.368c0.375-0.074,0.735,0.157,0.807,0.512c0.074,0.358-0.172,0.71-0.547,0.785
	l-7.133,1.372C618.109,244.042,617.75,243.805,617.685,243.447z"/>
<path fill="#FEFEFE" d="M608.914,245.003c-0.061-0.358,0.19-0.703,0.568-0.769l7.138-1.264c0.375-0.068,0.733,0.167,0.798,0.526
	c0.066,0.358-0.184,0.707-0.561,0.775l-7.148,1.267C609.331,245.602,608.975,245.363,608.914,245.003z"/>
<path fill="none" stroke="#201E1E" stroke-width="0.2503" stroke-miterlimit="2.6131" d="M608.914,245.003
	c-0.061-0.358,0.19-0.703,0.568-0.769l7.138-1.264c0.375-0.068,0.733,0.167,0.798,0.526c0.066,0.358-0.184,0.707-0.561,0.775
	l-7.148,1.267C609.331,245.602,608.975,245.363,608.914,245.003z"/>
<path fill="#FEFEFE" d="M600.131,246.499c-0.059-0.359,0.197-0.703,0.574-0.766l7.148-1.217c0.377-0.066,0.731,0.175,0.792,0.534
	c0.064,0.359-0.191,0.704-0.568,0.77l-7.155,1.217C600.546,247.1,600.192,246.859,600.131,246.499z"/>
<path fill="none" stroke="#201E1E" stroke-width="0.2503" stroke-miterlimit="2.6131" d="M600.131,246.499
	c-0.059-0.359,0.197-0.703,0.574-0.766l7.148-1.217c0.377-0.066,0.731,0.175,0.792,0.534c0.064,0.359-0.191,0.704-0.568,0.77
	l-7.155,1.217C600.546,247.1,600.192,246.859,600.131,246.499z"/>
<path fill="#FEFEFE" d="M591.337,247.911c-0.057-0.359,0.203-0.7,0.58-0.759l7.157-1.147c0.377-0.062,0.731,0.18,0.79,0.539
	c0.059,0.36-0.197,0.704-0.574,0.766l-7.169,1.149C591.744,248.518,591.392,248.272,591.337,247.911z"/>
<path fill="none" stroke="#201E1E" stroke-width="0.2503" stroke-miterlimit="2.6131" d="M591.337,247.911
	c-0.057-0.359,0.203-0.7,0.58-0.759l7.157-1.147c0.377-0.062,0.731,0.18,0.79,0.539c0.059,0.36-0.197,0.704-0.574,0.766
	l-7.169,1.149C591.744,248.518,591.392,248.272,591.337,247.911z"/>
<path fill="#FEFEFE" d="M582.524,249.218c-0.051-0.361,0.214-0.699,0.591-0.753l7.169-1.061c0.377-0.056,0.729,0.19,0.784,0.55
	c0.055,0.36-0.206,0.701-0.582,0.758l-7.184,1.062C582.924,249.829,582.574,249.579,582.524,249.218z"/>
<path fill="none" stroke="#231F1F" stroke-width="0.2503" stroke-miterlimit="2.6131" d="M582.524,249.218
	c-0.051-0.361,0.214-0.699,0.591-0.753l7.169-1.061c0.377-0.056,0.729,0.19,0.784,0.55c0.055,0.36-0.206,0.701-0.582,0.758
	l-7.184,1.062C582.924,249.829,582.574,249.579,582.524,249.218z"/>
<path fill="#FEFEFE" d="M573.698,250.418c-0.048-0.361,0.221-0.696,0.6-0.745l7.182-0.975c0.377-0.053,0.724,0.199,0.775,0.559
	c0.053,0.361-0.212,0.698-0.591,0.751l-7.195,0.977C574.09,251.034,573.744,250.78,573.698,250.418z"/>
<path fill="none" stroke="#231F1F" stroke-width="0.2503" stroke-miterlimit="2.6131" d="M573.698,250.418
	c-0.048-0.361,0.221-0.696,0.6-0.745l7.182-0.975c0.377-0.053,0.724,0.199,0.775,0.559c0.053,0.361-0.212,0.698-0.591,0.751
	l-7.195,0.977C574.09,251.034,573.744,250.78,573.698,250.418z"/>
<path fill="#FEFEFE" d="M564.857,251.514c-0.044-0.361,0.229-0.692,0.608-0.737l7.193-0.892c0.379-0.049,0.722,0.207,0.769,0.567
	c0.049,0.362-0.22,0.696-0.599,0.744l-7.205,0.894C565.241,252.137,564.899,251.876,564.857,251.514z"/>
<path fill="none" stroke="#231F1F" stroke-width="0.2503" stroke-miterlimit="2.6131" d="M564.857,251.514
	c-0.044-0.361,0.229-0.692,0.608-0.737l7.193-0.892c0.379-0.049,0.722,0.207,0.769,0.567c0.049,0.362-0.22,0.696-0.599,0.744
	l-7.205,0.894C565.241,252.137,564.899,251.876,564.857,251.514z"/>
<path fill="#FEFEFE" d="M556.004,252.514c-0.038-0.362,0.237-0.69,0.617-0.73l7.203-0.813c0.379-0.044,0.72,0.214,0.762,0.575
	c0.044,0.362-0.229,0.694-0.608,0.738l-7.216,0.814C556.383,253.14,556.044,252.877,556.004,252.514z"/>
<path fill="none" stroke="#231F1F" stroke-width="0.2503" stroke-miterlimit="2.6131" d="M556.004,252.514
	c-0.038-0.362,0.237-0.69,0.617-0.73l7.203-0.813c0.379-0.044,0.72,0.214,0.762,0.575c0.044,0.362-0.229,0.694-0.608,0.738
	l-7.216,0.814C556.383,253.14,556.044,252.877,556.004,252.514z"/>
<path fill="#FEFEFE" d="M547.142,253.426c-0.034-0.362,0.244-0.688,0.623-0.726l7.212-0.74c0.379-0.04,0.718,0.221,0.758,0.583
	c0.038,0.363-0.237,0.691-0.618,0.732l-7.22,0.741C547.515,254.053,547.178,253.788,547.142,253.426z"/>
<path fill="none" stroke="#231F1F" stroke-width="0.2503" stroke-miterlimit="2.6131" d="M547.142,253.426
	c-0.034-0.362,0.244-0.688,0.623-0.726l7.212-0.74c0.379-0.04,0.718,0.221,0.758,0.583c0.038,0.363-0.237,0.691-0.618,0.732
	l-7.22,0.741C547.515,254.053,547.178,253.788,547.142,253.426z"/>
<path fill="#FEFEFE" d="M538.274,254.256c-0.034-0.362,0.248-0.685,0.629-0.72l7.218-0.674c0.379-0.037,0.716,0.229,0.752,0.591
	c0.034,0.362-0.244,0.688-0.625,0.725l-7.227,0.676C538.64,254.888,538.306,254.62,538.274,254.256z"/>
<path fill="none" stroke="#231F1F" stroke-width="0.2503" stroke-miterlimit="2.6131" d="M538.274,254.256
	c-0.034-0.362,0.248-0.685,0.629-0.72l7.218-0.674c0.379-0.037,0.716,0.229,0.752,0.591c0.034,0.362-0.244,0.688-0.625,0.725
	l-7.227,0.676C538.64,254.888,538.306,254.62,538.274,254.256z"/>
<path fill="#FEFEFE" d="M529.397,255.018c-0.03-0.362,0.254-0.684,0.635-0.716l7.223-0.618c0.381-0.034,0.716,0.234,0.748,0.596
	c0.032,0.363-0.25,0.687-0.629,0.721l-7.233,0.62C529.76,255.652,529.427,255.382,529.397,255.018z"/>
<path fill="none" stroke="#231F1F" stroke-width="0.2503" stroke-miterlimit="2.6131" d="M529.397,255.018
	c-0.03-0.362,0.254-0.684,0.635-0.716l7.223-0.618c0.381-0.034,0.716,0.234,0.748,0.596c0.032,0.363-0.25,0.687-0.629,0.721
	l-7.233,0.62C529.76,255.652,529.427,255.382,529.397,255.018z"/>
<path fill="#FEFEFE" d="M520.516,255.724c-0.027-0.362,0.258-0.682,0.64-0.712l7.229-0.573c0.379-0.031,0.711,0.239,0.741,0.602
	c0.029,0.363-0.254,0.685-0.633,0.716l-7.235,0.573C520.877,256.36,520.544,256.088,520.516,255.724z"/>
<path fill="none" stroke="#231F1F" stroke-width="0.2503" stroke-miterlimit="2.6131" d="M520.516,255.724
	c-0.027-0.362,0.258-0.682,0.64-0.712l7.229-0.573c0.379-0.031,0.711,0.239,0.741,0.602c0.029,0.363-0.254,0.685-0.633,0.716
	l-7.235,0.573C520.877,256.36,520.544,256.088,520.516,255.724z"/>
<path fill="#FEFEFE" d="M511.634,256.383c-0.028-0.362,0.26-0.681,0.642-0.709l7.231-0.537c0.381-0.029,0.711,0.244,0.741,0.607
	c0.028,0.364-0.258,0.683-0.639,0.712l-7.237,0.537C511.989,257.021,511.659,256.747,511.634,256.383z"/>
<path fill="none" stroke="#231F1F" stroke-width="0.2503" stroke-miterlimit="2.6131" d="M511.634,256.383
	c-0.028-0.362,0.26-0.681,0.642-0.709l7.231-0.537c0.381-0.029,0.711,0.244,0.741,0.607c0.028,0.364-0.258,0.683-0.639,0.712
	l-7.237,0.537C511.989,257.021,511.659,256.747,511.634,256.383z"/>
<path fill="#FEFEFE" d="M502.744,256.975c-0.021-0.363,0.267-0.679,0.648-0.702l7.233-0.482c0.381-0.026,0.711,0.249,0.737,0.612
	c0.025,0.363-0.26,0.681-0.642,0.708l-7.243,0.482C503.094,257.617,502.767,257.34,502.744,256.975z"/>
<path fill="none" stroke="#231F1F" stroke-width="0.2503" stroke-miterlimit="2.6131" d="M502.744,256.975
	c-0.021-0.363,0.267-0.679,0.648-0.702l7.233-0.482c0.381-0.026,0.711,0.249,0.737,0.612c0.025,0.363-0.26,0.681-0.642,0.708
	l-7.243,0.482C503.094,257.617,502.767,257.34,502.744,256.975z"/>
<path fill="#FEFEFE" d="M493.851,257.49c-0.019-0.363,0.273-0.674,0.654-0.697l7.237-0.417c0.381-0.024,0.71,0.253,0.731,0.616
	c0.023,0.364-0.267,0.68-0.648,0.703l-7.248,0.418C494.196,258.136,493.87,257.854,493.851,257.49z"/>
<path fill="none" stroke="#231F1F" stroke-width="0.2503" stroke-miterlimit="2.6131" d="M493.851,257.49
	c-0.019-0.363,0.273-0.674,0.654-0.697l7.237-0.417c0.381-0.024,0.71,0.253,0.731,0.616c0.023,0.364-0.267,0.68-0.648,0.703
	l-7.248,0.418C494.196,258.136,493.87,257.854,493.851,257.49z"/>
<path fill="#FEFEFE" d="M484.953,257.922c-0.017-0.363,0.28-0.673,0.661-0.69l7.241-0.353c0.382-0.019,0.706,0.262,0.725,0.625
	c0.019,0.364-0.273,0.676-0.655,0.696l-7.252,0.353C485.292,258.57,484.97,258.288,484.953,257.922z"/>
<path fill="none" stroke="#231F1F" stroke-width="0.2503" stroke-miterlimit="2.6131" d="M484.953,257.922
	c-0.017-0.363,0.28-0.673,0.661-0.69l7.241-0.353c0.382-0.019,0.706,0.262,0.725,0.625c0.019,0.364-0.273,0.676-0.655,0.696
	l-7.252,0.353C485.292,258.57,484.97,258.288,484.953,257.922z"/>
<path fill="#FEFEFE" d="M476.053,258.294c-0.015-0.363,0.284-0.671,0.665-0.685l7.244-0.303c0.381-0.017,0.703,0.266,0.72,0.629
	c0.017,0.364-0.279,0.676-0.661,0.693l-7.252,0.303C476.387,258.944,476.066,258.659,476.053,258.294z"/>
<path fill="none" stroke="#231F1F" stroke-width="0.2503" stroke-miterlimit="2.6131" d="M476.053,258.294
	c-0.015-0.363,0.284-0.671,0.665-0.685l7.244-0.303c0.381-0.017,0.703,0.266,0.72,0.629c0.017,0.364-0.279,0.676-0.661,0.693
	l-7.252,0.303C476.387,258.944,476.066,258.659,476.053,258.294z"/>
<path fill="#FEFEFE" d="M467.149,258.606c-0.01-0.364,0.288-0.671,0.669-0.683l7.248-0.254c0.381-0.014,0.701,0.271,0.716,0.636
	c0.013,0.364-0.284,0.672-0.667,0.686l-7.252,0.254C467.479,259.257,467.161,258.97,467.149,258.606z"/>
<path fill="none" stroke="#231F1F" stroke-width="0.2503" stroke-miterlimit="2.6131" d="M467.149,258.606
	c-0.01-0.364,0.288-0.671,0.669-0.683l7.248-0.254c0.381-0.014,0.701,0.271,0.716,0.636c0.013,0.364-0.284,0.672-0.667,0.686
	l-7.252,0.254C467.479,259.257,467.161,258.97,467.149,258.606z"/>
<path fill="#FEFEFE" d="M458.245,258.872c-0.009-0.363,0.292-0.669,0.673-0.679l7.248-0.216c0.383-0.013,0.701,0.274,0.712,0.637
	c0.012,0.364-0.286,0.671-0.669,0.684l-7.254,0.216C458.573,259.525,458.255,259.236,458.245,258.872z"/>
<path fill="none" stroke="#231F1F" stroke-width="0.2503" stroke-miterlimit="2.6131" d="M458.245,258.872
	c-0.009-0.363,0.292-0.669,0.673-0.679l7.248-0.216c0.383-0.013,0.701,0.274,0.712,0.637c0.012,0.364-0.286,0.671-0.669,0.684
	l-7.254,0.216C458.573,259.525,458.255,259.236,458.245,258.872z"/>
<path fill="#FEFEFE" d="M449.341,259.099c-0.008-0.364,0.292-0.668,0.676-0.678l7.25-0.185c0.382-0.01,0.699,0.278,0.708,0.643
	c0.011,0.365-0.29,0.669-0.674,0.68l-7.254,0.184C449.665,259.752,449.349,259.463,449.341,259.099z"/>
<path fill="none" stroke="#231F1F" stroke-width="0.2503" stroke-miterlimit="2.6131" d="M449.341,259.099
	c-0.008-0.364,0.292-0.668,0.676-0.678l7.25-0.185c0.382-0.01,0.699,0.278,0.708,0.643c0.011,0.365-0.29,0.669-0.674,0.68
	l-7.254,0.184C449.665,259.752,449.349,259.463,449.341,259.099z"/>
<path fill="#FEFEFE" d="M440.434,259.295c-0.008-0.363,0.294-0.668,0.678-0.675l7.25-0.159c0.381-0.01,0.699,0.279,0.708,0.644
	c0.008,0.364-0.294,0.669-0.676,0.678l-7.254,0.16C440.756,259.95,440.441,259.66,440.434,259.295z"/>
<path fill="none" stroke="#231F1F" stroke-width="0.2503" stroke-miterlimit="2.6131" d="M440.434,259.295
	c-0.008-0.363,0.294-0.668,0.678-0.675l7.25-0.159c0.381-0.01,0.699,0.279,0.708,0.644c0.008,0.364-0.294,0.669-0.676,0.678
	l-7.254,0.16C440.756,259.95,440.441,259.66,440.434,259.295z"/>
<path fill="#FEFEFE" d="M431.528,259.469c-0.008-0.363,0.297-0.666,0.678-0.673l7.252-0.142c0.381-0.008,0.697,0.283,0.705,0.646
	c0.007,0.365-0.296,0.668-0.677,0.676l-7.254,0.143C431.848,260.126,431.534,259.835,431.528,259.469z"/>
<path fill="none" stroke="#231F1F" stroke-width="0.2503" stroke-miterlimit="2.6131" d="M431.528,259.469
	c-0.008-0.363,0.297-0.666,0.678-0.673l7.252-0.142c0.381-0.008,0.697,0.283,0.705,0.646c0.007,0.365-0.296,0.668-0.677,0.676
	l-7.254,0.143C431.848,260.126,431.534,259.835,431.528,259.469z"/>
<path fill="#FEFEFE" d="M422.62,259.632c-0.007-0.364,0.298-0.666,0.68-0.673l7.252-0.132c0.383-0.007,0.697,0.284,0.703,0.647
	c0.008,0.365-0.297,0.668-0.678,0.676l-7.254,0.132C422.941,260.288,422.626,259.997,422.62,259.632z"/>
<path fill="none" stroke="#231F1F" stroke-width="0.2503" stroke-miterlimit="2.6131" d="M422.62,259.632
	c-0.007-0.364,0.298-0.666,0.68-0.673l7.252-0.132c0.383-0.007,0.697,0.284,0.703,0.647c0.008,0.365-0.297,0.668-0.678,0.676
	l-7.254,0.132C422.941,260.288,422.626,259.997,422.62,259.632z"/>
<path fill="#FFFFFF" d="M413.713,259.733c0-0.363,0.31-0.659,0.691-0.658c2.412,0.001,4.823-0.044,7.241-0.087
	c0.383-0.007,0.697,0.285,0.703,0.648c0.007,0.365-0.297,0.667-0.68,0.675c-2.415,0.043-4.84,0.088-7.265,0.087
	C414.021,260.397,413.711,260.098,413.713,259.733z"/>
<path fill="none" stroke="#231F1F" stroke-width="0.2503" stroke-miterlimit="2.6131" d="M413.713,259.733
	c0-0.363,0.31-0.659,0.691-0.658c2.412,0.001,4.823-0.044,7.241-0.087c0.383-0.007,0.697,0.285,0.703,0.648
	c0.007,0.365-0.297,0.667-0.68,0.675c-2.415,0.043-4.84,0.088-7.265,0.087C414.021,260.397,413.711,260.098,413.713,259.733z"/>
<path fill="#FFFFFF" d="M404.807,259.55c0.013-0.363,0.333-0.648,0.714-0.633c2.41,0.082,4.823,0.133,7.233,0.151
	c0.381,0.002,0.688,0.301,0.688,0.664c-0.002,0.365-0.313,0.66-0.697,0.658c-2.425-0.018-4.848-0.069-7.271-0.152
	C405.091,260.223,404.792,259.914,404.807,259.55z"/>
<path fill="none" stroke="#231F1F" stroke-width="0.2503" stroke-miterlimit="2.6131" d="M404.807,259.55
	c0.013-0.363,0.333-0.648,0.714-0.633c2.41,0.082,4.823,0.133,7.233,0.151c0.381,0.002,0.688,0.301,0.688,0.664
	c-0.002,0.365-0.313,0.66-0.697,0.658c-2.425-0.018-4.848-0.069-7.271-0.152C405.091,260.223,404.792,259.914,404.807,259.55z"/>
<path fill="#FFFFFF" d="M395.911,259.06c0.027-0.362,0.356-0.636,0.735-0.61c2.408,0.166,4.816,0.3,7.227,0.401
	c0.379,0.015,0.676,0.324,0.663,0.687c-0.015,0.365-0.337,0.649-0.718,0.634c-2.423-0.101-4.844-0.237-7.263-0.404
	C396.174,259.743,395.886,259.425,395.911,259.06z"/>
<path fill="none" stroke="#231F1F" stroke-width="0.2503" stroke-miterlimit="2.6131" d="M395.911,259.06
	c0.027-0.362,0.356-0.636,0.735-0.61c2.408,0.166,4.816,0.3,7.227,0.401c0.379,0.015,0.676,0.324,0.663,0.687
	c-0.015,0.365-0.337,0.649-0.718,0.634c-2.423-0.101-4.844-0.237-7.263-0.404C396.174,259.743,395.886,259.425,395.911,259.06z"/>
<path fill="#FFFFFF" d="M387.039,258.279c0.038-0.362,0.375-0.626,0.754-0.587c2.4,0.244,4.804,0.458,7.208,0.641
	c0.381,0.028,0.667,0.346,0.642,0.709c-0.028,0.364-0.358,0.637-0.739,0.611c-2.419-0.184-4.834-0.399-7.244-0.644
	C387.278,258.969,387.001,258.642,387.039,258.279z"/>
<path fill="none" stroke="#231F1F" stroke-width="0.2503" stroke-miterlimit="2.6131" d="M387.039,258.279
	c0.038-0.362,0.375-0.626,0.754-0.587c2.4,0.244,4.804,0.458,7.208,0.641c0.381,0.028,0.667,0.346,0.642,0.709
	c-0.028,0.364-0.358,0.637-0.739,0.611c-2.419-0.184-4.834-0.399-7.244-0.644C387.278,258.969,387.001,258.642,387.039,258.279z"/>
<path fill="#FFFFFF" d="M378.194,257.222c0.049-0.36,0.394-0.614,0.771-0.565c2.393,0.317,4.789,0.608,7.186,0.863
	c0.38,0.044,0.654,0.369,0.617,0.731c-0.039,0.363-0.377,0.628-0.759,0.585c-2.41-0.257-4.816-0.55-7.218-0.868
	C378.412,257.919,378.146,257.584,378.194,257.222z"/>
<path fill="none" stroke="#231F1F" stroke-width="0.2503" stroke-miterlimit="2.6131" d="M378.194,257.222
	c0.049-0.36,0.394-0.614,0.771-0.565c2.393,0.317,4.789,0.608,7.186,0.863c0.38,0.044,0.654,0.369,0.617,0.731
	c-0.039,0.363-0.377,0.628-0.759,0.585c-2.41-0.257-4.816-0.55-7.218-0.868C378.412,257.919,378.146,257.584,378.194,257.222z"/>
<path fill="#FFFFFF" d="M369.383,255.908c0.059-0.359,0.411-0.601,0.786-0.54c2.383,0.383,4.77,0.739,7.161,1.068
	c0.377,0.052,0.644,0.389,0.595,0.75c-0.049,0.361-0.396,0.613-0.775,0.56c-2.402-0.33-4.797-0.688-7.191-1.073
	C369.582,256.612,369.324,256.268,369.383,255.908z"/>
<path fill="none" stroke="#231F1F" stroke-width="0.2503" stroke-miterlimit="2.6131" d="M369.383,255.908
	c0.059-0.359,0.411-0.601,0.786-0.54c2.383,0.383,4.77,0.739,7.161,1.068c0.377,0.052,0.644,0.389,0.595,0.75
	c-0.049,0.361-0.396,0.613-0.775,0.56c-2.402-0.33-4.797-0.688-7.191-1.073C369.582,256.612,369.324,256.268,369.383,255.908z"/>
<path fill="#FFFFFF" d="M360.611,254.365c0.065-0.357,0.426-0.592,0.8-0.522c2.372,0.443,4.749,0.862,7.129,1.257
	c0.377,0.063,0.633,0.406,0.574,0.764c-0.057,0.36-0.411,0.603-0.79,0.541c-2.389-0.397-4.776-0.819-7.157-1.262
	C360.79,255.072,360.543,254.724,360.611,254.365z"/>
<path fill="none" stroke="#231F1F" stroke-width="0.2503" stroke-miterlimit="2.6131" d="M360.611,254.365
	c0.065-0.357,0.426-0.592,0.8-0.522c2.372,0.443,4.749,0.862,7.129,1.257c0.377,0.063,0.633,0.406,0.574,0.764
	c-0.057,0.36-0.411,0.603-0.79,0.541c-2.389-0.397-4.776-0.819-7.157-1.262C360.79,255.072,360.543,254.724,360.611,254.365z"/>
<path fill="#FFFFFF" d="M351.874,252.621c0.076-0.356,0.438-0.584,0.811-0.506c2.363,0.494,4.731,0.971,7.101,1.423
	c0.375,0.072,0.625,0.42,0.557,0.778c-0.068,0.358-0.428,0.594-0.805,0.521c-2.378-0.454-4.753-0.931-7.123-1.427
	C352.041,253.331,351.798,252.978,351.874,252.621z"/>
<path fill="none" stroke="#231F1F" stroke-width="0.2503" stroke-miterlimit="2.6131" d="M351.874,252.621
	c0.076-0.356,0.438-0.584,0.811-0.506c2.363,0.494,4.731,0.971,7.101,1.423c0.375,0.072,0.625,0.42,0.557,0.778
	c-0.068,0.358-0.428,0.594-0.805,0.521c-2.378-0.454-4.753-0.931-7.123-1.427C352.041,253.331,351.798,252.978,351.874,252.621z"/>
<path fill="#FFFFFF" d="M343.175,250.703c0.081-0.355,0.449-0.575,0.819-0.49l7.077,1.56c0.373,0.079,0.612,0.435,0.538,0.791
	c-0.076,0.357-0.44,0.582-0.815,0.503l-7.093-1.565C343.328,251.417,343.092,251.057,343.175,250.703z"/>
<path fill="none" stroke="#231F1F" stroke-width="0.2503" stroke-miterlimit="2.6131" d="M343.175,250.703
	c0.081-0.355,0.449-0.575,0.819-0.49l7.077,1.56c0.373,0.079,0.612,0.435,0.538,0.791c-0.076,0.357-0.44,0.582-0.815,0.503
	l-7.093-1.565C343.328,251.417,343.092,251.057,343.175,250.703z"/>
<path fill="#FFFFFF" d="M334.506,248.646c0.087-0.354,0.457-0.57,0.828-0.479l7.051,1.676c0.373,0.086,0.606,0.444,0.525,0.799
	c-0.082,0.356-0.449,0.576-0.824,0.49l-7.064-1.68C334.65,249.362,334.422,249,334.506,248.646z"/>
<path fill="none" stroke="#231F1F" stroke-width="0.2503" stroke-miterlimit="2.6131" d="M334.506,248.646
	c0.087-0.354,0.457-0.57,0.828-0.479l7.051,1.676c0.373,0.086,0.606,0.444,0.525,0.799c-0.082,0.356-0.449,0.576-0.824,0.49
	l-7.064-1.68C334.65,249.362,334.422,249,334.506,248.646z"/>
<path fill="#FFFFFF" d="M325.865,246.483c0.09-0.353,0.462-0.564,0.833-0.469l7.032,1.761c0.371,0.091,0.599,0.453,0.513,0.807
	c-0.087,0.355-0.457,0.569-0.83,0.478l-7.042-1.764C326.001,247.201,325.775,246.836,325.865,246.483z"/>
<path fill="none" stroke="#231F1F" stroke-width="0.2503" stroke-miterlimit="2.6131" d="M325.865,246.483
	c0.09-0.353,0.462-0.564,0.833-0.469l7.032,1.761c0.371,0.091,0.599,0.453,0.513,0.807c-0.087,0.355-0.457,0.569-0.83,0.478
	l-7.042-1.764C326.001,247.201,325.775,246.836,325.865,246.483z"/>
<path fill="#FFFFFF" d="M317.241,244.248c0.093-0.352,0.467-0.56,0.836-0.464l7.019,1.819c0.37,0.096,0.595,0.46,0.506,0.811
	c-0.091,0.354-0.464,0.566-0.834,0.47l-7.025-1.822C317.373,244.967,317.149,244.601,317.241,244.248z"/>
<path fill="none" stroke="#201E1E" stroke-width="0.2503" stroke-miterlimit="2.6131" d="M317.241,244.248
	c0.093-0.352,0.467-0.56,0.836-0.464l7.019,1.819c0.37,0.096,0.595,0.46,0.506,0.811c-0.091,0.354-0.464,0.566-0.834,0.47
	l-7.025-1.822C317.373,244.967,317.149,244.601,317.241,244.248z"/>
<path fill="#FFFFFF" d="M308.628,241.977c0.093-0.351,0.467-0.559,0.837-0.462l7.014,1.849c0.37,0.097,0.593,0.463,0.5,0.814
	c-0.092,0.354-0.467,0.562-0.837,0.465l-7.015-1.85C308.757,242.697,308.534,242.331,308.628,241.977z"/>
<path fill="none" stroke="#201E1E" stroke-width="0.2503" stroke-miterlimit="2.6131" d="M308.628,241.977
	c0.093-0.351,0.467-0.559,0.837-0.462l7.014,1.849c0.37,0.097,0.593,0.463,0.5,0.814c-0.092,0.354-0.467,0.562-0.837,0.465
	l-7.015-1.85C308.757,242.697,308.534,242.331,308.628,241.977z"/>
<path fill="#FFFFFF" d="M300.014,239.707c0.092-0.352,0.466-0.56,0.836-0.464l7.016,1.85c0.37,0.097,0.593,0.464,0.5,0.815
	c-0.094,0.353-0.468,0.562-0.837,0.463l-7.014-1.849C300.144,240.426,299.921,240.061,300.014,239.707z"/>
<path fill="none" stroke="#201E1E" stroke-width="0.2503" stroke-miterlimit="2.6131" d="M300.014,239.707
	c0.092-0.352,0.466-0.56,0.836-0.464l7.016,1.85c0.37,0.097,0.593,0.464,0.5,0.815c-0.094,0.353-0.468,0.562-0.837,0.463
	l-7.014-1.849C300.144,240.426,299.921,240.061,300.014,239.707z"/>
<path fill="#FFFFFF" d="M291.39,237.472c0.09-0.352,0.464-0.564,0.834-0.468l7.026,1.82c0.37,0.097,0.594,0.463,0.501,0.814
	c-0.093,0.354-0.466,0.562-0.836,0.466l-7.019-1.82C291.526,238.189,291.3,237.825,291.39,237.472z"/>
<path fill="none" stroke="#201E1E" stroke-width="0.2503" stroke-miterlimit="2.6131" d="M291.39,237.472
	c0.09-0.352,0.464-0.564,0.834-0.468l7.026,1.82c0.37,0.097,0.594,0.463,0.501,0.814c-0.093,0.354-0.466,0.562-0.836,0.466
	l-7.019-1.82C291.526,238.189,291.3,237.825,291.39,237.472z"/>
<path fill="#FFFFFF" d="M282.764,235.248c0.092-0.352,0.467-0.561,0.836-0.464l7.02,1.81c0.371,0.094,0.597,0.458,0.507,0.811
	c-0.09,0.354-0.463,0.565-0.833,0.471l-7.029-1.813C282.895,235.967,282.671,235.6,282.764,235.248z"/>
<path fill="none" stroke="#201E1E" stroke-width="0.2503" stroke-miterlimit="2.6131" d="M282.764,235.248
	c0.092-0.352,0.467-0.561,0.836-0.464l7.02,1.81c0.371,0.094,0.597,0.458,0.507,0.811c-0.09,0.354-0.463,0.565-0.833,0.471
	l-7.029-1.813C282.895,235.967,282.671,235.6,282.764,235.248z"/>
<path fill="#FFFFFF" d="M274.152,232.967c0.094-0.352,0.469-0.559,0.838-0.462l7.01,1.86c0.369,0.097,0.593,0.463,0.5,0.814
	c-0.093,0.353-0.467,0.562-0.837,0.464l-7.014-1.86C274.281,233.685,274.059,233.319,274.152,232.967z"/>
<path fill="none" stroke="#201E1E" stroke-width="0.2503" stroke-miterlimit="2.6131" d="M274.152,232.967
	c0.094-0.352,0.469-0.559,0.838-0.462l7.01,1.86c0.369,0.097,0.593,0.463,0.5,0.814c-0.093,0.353-0.467,0.562-0.837,0.464
	l-7.014-1.86C274.281,233.685,274.059,233.319,274.152,232.967z"/>
<path fill="#FFFFFF" d="M265.54,230.691c0.091-0.352,0.466-0.562,0.836-0.465l7.017,1.854c0.37,0.098,0.592,0.465,0.498,0.816
	c-0.094,0.353-0.469,0.56-0.838,0.462l-7.011-1.852C265.672,231.409,265.448,231.044,265.54,230.691z"/>
<path fill="none" stroke="#201E1E" stroke-width="0.2503" stroke-miterlimit="2.6131" d="M265.54,230.691
	c0.091-0.352,0.466-0.562,0.836-0.465l7.017,1.854c0.37,0.098,0.592,0.465,0.498,0.816c-0.094,0.353-0.469,0.56-0.838,0.462
	l-7.011-1.852C265.672,231.409,265.448,231.044,265.54,230.691z"/>
<path fill="#FFFFFF" d="M256.905,228.5c0.087-0.354,0.458-0.569,0.83-0.477l7.039,1.787c0.37,0.095,0.595,0.461,0.503,0.813
	c-0.092,0.353-0.465,0.562-0.835,0.467l-7.024-1.782C257.047,229.215,256.819,228.853,256.905,228.5z"/>
<path fill="none" stroke="#201E1E" stroke-width="0.2503" stroke-miterlimit="2.6131" d="M256.905,228.5
	c0.087-0.354,0.458-0.569,0.83-0.477l7.039,1.787c0.37,0.095,0.595,0.461,0.503,0.813c-0.092,0.353-0.465,0.562-0.835,0.467
	l-7.024-1.782C257.047,229.215,256.819,228.853,256.905,228.5z"/>
<path fill="#FFFFFF" d="M248.232,226.468c0.078-0.356,0.445-0.578,0.819-0.495c2.364,0.53,4.723,1.083,7.076,1.656
	c0.372,0.091,0.602,0.452,0.515,0.806c-0.087,0.353-0.457,0.569-0.828,0.48c-2.346-0.571-4.697-1.122-7.052-1.65
	C248.389,227.181,248.153,226.824,248.232,226.468z"/>
<path fill="none" stroke="#201E1E" stroke-width="0.2503" stroke-miterlimit="2.6131" d="M248.232,226.468
	c0.078-0.356,0.445-0.578,0.819-0.495c2.364,0.53,4.723,1.083,7.076,1.656c0.372,0.091,0.602,0.452,0.515,0.806
	c-0.087,0.353-0.457,0.569-0.828,0.48c-2.346-0.571-4.697-1.122-7.052-1.65C248.389,227.181,248.153,226.824,248.232,226.468z"/>
<path fill="#FFFFFF" d="M159.896,215.423c0.033-0.362,0.368-0.63,0.747-0.596l7.226,0.653c0.38,0.034,0.662,0.358,0.629,0.72
	c-0.033,0.363-0.367,0.631-0.748,0.598l-7.225-0.654C160.144,216.11,159.863,215.786,159.896,215.423z"/>
<path fill="none" stroke="#201E1E" stroke-width="0.2503" stroke-miterlimit="2.6131" d="M159.896,215.423
	c0.033-0.362,0.368-0.63,0.747-0.596l7.226,0.653c0.38,0.034,0.662,0.358,0.629,0.72c-0.033,0.363-0.367,0.631-0.748,0.598
	l-7.225-0.654C160.144,216.11,159.863,215.786,159.896,215.423z"/>
<path fill="#FFFFFF" d="M151.024,214.618c0.032-0.362,0.367-0.631,0.747-0.596l7.226,0.657c0.381,0.034,0.662,0.358,0.629,0.72
	c-0.033,0.363-0.368,0.631-0.748,0.597l-7.224-0.656C151.273,215.304,150.991,214.981,151.024,214.618z"/>
<path fill="none" stroke="#201E1E" stroke-width="0.2503" stroke-miterlimit="2.6131" d="M151.024,214.618
	c0.032-0.362,0.367-0.631,0.747-0.596l7.226,0.657c0.381,0.034,0.662,0.358,0.629,0.72c-0.033,0.363-0.368,0.631-0.748,0.597
	l-7.224-0.656C151.273,215.304,150.991,214.981,151.024,214.618z"/>
<path fill="#FFFFFF" d="M142.149,213.851c0.03-0.363,0.363-0.633,0.744-0.602l7.231,0.625c0.38,0.034,0.662,0.357,0.63,0.719
	c-0.032,0.364-0.366,0.632-0.747,0.598l-7.224-0.624C142.401,214.536,142.118,214.215,142.149,213.851z"/>
<path fill="none" stroke="#201E1E" stroke-width="0.2503" stroke-miterlimit="2.6131" d="M142.149,213.851
	c0.03-0.363,0.363-0.633,0.744-0.602l7.231,0.625c0.38,0.034,0.662,0.357,0.63,0.719c-0.032,0.364-0.366,0.632-0.747,0.598
	l-7.224-0.624C142.401,214.536,142.118,214.215,142.149,213.851z"/>
<path fill="#FFFFFF" d="M133.27,213.129c0.029-0.363,0.36-0.634,0.741-0.605l7.233,0.588c0.382,0.032,0.665,0.354,0.634,0.716
	c-0.03,0.363-0.363,0.634-0.743,0.603l-7.228-0.588C133.526,213.813,133.241,213.492,133.27,213.129z"/>
<path fill="none" stroke="#201E1E" stroke-width="0.2503" stroke-miterlimit="2.6131" d="M133.27,213.129
	c0.029-0.363,0.36-0.634,0.741-0.605l7.233,0.588c0.382,0.032,0.665,0.354,0.634,0.716c-0.03,0.363-0.363,0.634-0.743,0.603
	l-7.228-0.588C133.526,213.813,133.241,213.492,133.27,213.129z"/>
<path fill="#FFFFFF" d="M124.388,212.442c0.027-0.363,0.358-0.635,0.739-0.607l7.235,0.559c0.381,0.03,0.666,0.351,0.637,0.713
	c-0.029,0.364-0.36,0.635-0.742,0.606l-7.231-0.559C124.645,213.125,124.36,212.805,124.388,212.442z"/>
<path fill="none" stroke="#201E1E" stroke-width="0.2503" stroke-miterlimit="2.6131" d="M124.388,212.442
	c0.027-0.363,0.358-0.635,0.739-0.607l7.235,0.559c0.381,0.03,0.666,0.351,0.637,0.713c-0.029,0.364-0.36,0.635-0.742,0.606
	l-7.231-0.559C124.645,213.125,124.36,212.805,124.388,212.442z"/>
<path fill="#FFFFFF" d="M115.505,211.773c0.027-0.363,0.358-0.637,0.739-0.608l7.234,0.545c0.381,0.028,0.667,0.348,0.639,0.711
	c-0.028,0.364-0.358,0.638-0.74,0.608l-7.234-0.545C115.763,212.456,115.477,212.136,115.505,211.773z"/>
<path fill="none" stroke="#201E1E" stroke-width="0.2503" stroke-miterlimit="2.6131" d="M115.505,211.773
	c0.027-0.363,0.358-0.637,0.739-0.608l7.234,0.545c0.381,0.028,0.667,0.348,0.639,0.711c-0.028,0.364-0.358,0.638-0.74,0.608
	l-7.234-0.545C115.763,212.456,115.477,212.136,115.505,211.773z"/>
<path fill="#FFFFFF" d="M106.622,211.098c0.028-0.363,0.359-0.635,0.74-0.607l7.233,0.55c0.382,0.029,0.667,0.348,0.639,0.711
	c-0.027,0.364-0.358,0.638-0.738,0.609l-7.235-0.55C106.879,211.781,106.594,211.461,106.622,211.098z"/>
<path fill="none" stroke="#201E1E" stroke-width="0.2503" stroke-miterlimit="2.6131" d="M106.622,211.098
	c0.028-0.363,0.359-0.635,0.74-0.607l7.233,0.55c0.382,0.029,0.667,0.348,0.639,0.711c-0.027,0.364-0.358,0.638-0.738,0.609
	l-7.235-0.55C106.879,211.781,106.594,211.461,106.622,211.098z"/>
<path fill="#FFFFFF" d="M97.741,210.394c0.03-0.362,0.362-0.633,0.742-0.602l7.23,0.573c0.38,0.03,0.666,0.349,0.638,0.713
	c-0.028,0.363-0.359,0.635-0.74,0.606l-7.234-0.573C97.996,211.079,97.712,210.757,97.741,210.394z"/>
<path fill="none" stroke="#201E1E" stroke-width="0.2503" stroke-miterlimit="2.6131" d="M97.741,210.394
	c0.03-0.362,0.362-0.633,0.742-0.602l7.23,0.573c0.38,0.03,0.666,0.349,0.638,0.713c-0.028,0.363-0.359,0.635-0.74,0.606
	l-7.234-0.573C97.996,211.079,97.712,210.757,97.741,210.394z"/>
<path fill="#FFFFFF" d="M88.864,209.643c0.032-0.362,0.366-0.631,0.746-0.598l7.226,0.612c0.381,0.031,0.664,0.352,0.634,0.715
	c-0.03,0.364-0.361,0.634-0.743,0.603l-7.232-0.613C89.115,210.329,88.833,210.006,88.864,209.643z"/>
<path fill="none" stroke="#201E1E" stroke-width="0.2503" stroke-miterlimit="2.6131" d="M88.864,209.643
	c0.032-0.362,0.366-0.631,0.746-0.598l7.226,0.612c0.381,0.031,0.664,0.352,0.634,0.715c-0.03,0.364-0.361,0.634-0.743,0.603
	l-7.232-0.613C89.115,210.329,88.833,210.006,88.864,209.643z"/>
<path fill="#FFFFFF" d="M79.993,208.834c0.034-0.362,0.369-0.629,0.75-0.593l7.22,0.66c0.381,0.033,0.662,0.356,0.631,0.719
	c-0.032,0.363-0.367,0.632-0.747,0.599l-7.228-0.661C80.238,209.522,79.959,209.197,79.993,208.834z"/>
<path fill="none" stroke="#201E1E" stroke-width="0.2503" stroke-miterlimit="2.6131" d="M79.993,208.834
	c0.034-0.362,0.369-0.629,0.75-0.593l7.22,0.66c0.381,0.033,0.662,0.356,0.631,0.719c-0.032,0.363-0.367,0.632-0.747,0.599
	l-7.228-0.661C80.238,209.522,79.959,209.197,79.993,208.834z"/>
<path fill="#FFFFFF" d="M71.128,207.962c0.037-0.362,0.374-0.626,0.754-0.588l7.216,0.711c0.38,0.036,0.659,0.36,0.626,0.722
	c-0.035,0.363-0.371,0.63-0.752,0.594l-7.223-0.711C71.368,208.652,71.091,208.326,71.128,207.962z"/>
<path fill="none" stroke="#201E1E" stroke-width="0.2503" stroke-miterlimit="2.6131" d="M71.128,207.962
	c0.037-0.362,0.374-0.626,0.754-0.588l7.216,0.711c0.38,0.036,0.659,0.36,0.626,0.722c-0.035,0.363-0.371,0.63-0.752,0.594
	l-7.223-0.711C71.368,208.652,71.091,208.326,71.128,207.962z"/>
<path fill="#FFFFFF" d="M62.267,207.038c0.038-0.362,0.376-0.624,0.756-0.585l7.214,0.755c0.38,0.039,0.657,0.365,0.621,0.727
	c-0.037,0.363-0.375,0.627-0.755,0.588l-7.216-0.755C62.506,207.728,62.229,207.401,62.267,207.038z"/>
<path fill="none" stroke="#201E1E" stroke-width="0.2503" stroke-miterlimit="2.6131" d="M62.267,207.038
	c0.038-0.362,0.376-0.624,0.756-0.585l7.214,0.755c0.38,0.039,0.657,0.365,0.621,0.727c-0.037,0.363-0.375,0.627-0.755,0.588
	l-7.216-0.755C62.506,207.728,62.229,207.401,62.267,207.038z"/>
<path fill="#FFFFFF" d="M53.43,205.927c0.057-0.359,0.407-0.605,0.782-0.547c2.377,0.36,4.769,0.644,7.169,0.9
	c0.379,0.04,0.655,0.368,0.617,0.729c-0.038,0.363-0.377,0.626-0.758,0.586c-2.409-0.257-4.821-0.544-7.226-0.908
	C53.633,206.629,53.372,206.287,53.43,205.927z"/>
<path fill="none" stroke="#201E1E" stroke-width="0.2503" stroke-miterlimit="2.6131" d="M53.43,205.927
	c0.057-0.359,0.407-0.605,0.782-0.547c2.377,0.36,4.769,0.644,7.169,0.9c0.379,0.04,0.655,0.368,0.617,0.729
	c-0.038,0.363-0.377,0.626-0.758,0.586c-2.409-0.257-4.821-0.544-7.226-0.908C53.633,206.629,53.372,206.287,53.43,205.927z"/>
<path fill="#FFFFFF" d="M44.728,204.047c0.104-0.349,0.48-0.548,0.843-0.446c2.298,0.642,4.65,1.12,7.018,1.518
	c0.374,0.064,0.63,0.405,0.573,0.765c-0.057,0.36-0.412,0.604-0.792,0.54c-2.4-0.405-4.794-0.891-7.156-1.55
	C44.841,204.771,44.624,204.397,44.728,204.047z"/>
<path fill="none" stroke="#201E1E" stroke-width="0.2503" stroke-miterlimit="2.6131" d="M44.728,204.047
	c0.104-0.349,0.48-0.548,0.843-0.446c2.298,0.642,4.65,1.12,7.018,1.518c0.374,0.064,0.63,0.405,0.573,0.765
	c-0.057,0.36-0.412,0.604-0.792,0.54c-2.4-0.405-4.794-0.891-7.156-1.55C44.841,204.771,44.624,204.397,44.728,204.047z"/>
<path fill="#FFFFFF" d="M36.744,200.232c0.238-0.275,0.65-0.314,0.937-0.101c1.851,1.364,4.076,2.272,6.329,3.004
	c0.357,0.113,0.563,0.487,0.458,0.835c-0.105,0.35-0.491,0.543-0.862,0.424c-2.332-0.761-4.658-1.692-6.715-3.202
	C36.564,200.949,36.506,200.508,36.744,200.232z"/>
<path fill="none" stroke="#201E1E" stroke-width="0.2503" stroke-miterlimit="2.6131" d="M36.744,200.232
	c0.238-0.275,0.65-0.314,0.937-0.101c1.851,1.364,4.076,2.272,6.329,3.004c0.357,0.113,0.563,0.487,0.458,0.835
	c-0.105,0.35-0.491,0.543-0.862,0.424c-2.332-0.761-4.658-1.692-6.715-3.202C36.564,200.949,36.506,200.508,36.744,200.232z"/>
<circle fill="#231F1F" cx="348.957" cy="90.527" r="4.066"/>
<circle fill="none" stroke="#201E1E" stroke-width="0.5" stroke-miterlimit="2.6131" cx="348.957" cy="90.527" r="4.066"/>
<circle fill="#231F1F" cx="368.114" cy="105.438" r="4.067"/>
<circle fill="none" stroke="#201E1E" stroke-width="0.5" stroke-miterlimit="2.6131" cx="368.114" cy="105.438" r="4.067"/>
<circle fill="#231F1F" cx="389.442" cy="122.156" r="4.067"/>
<circle fill="none" stroke="#201E1E" stroke-width="0.5" stroke-miterlimit="2.6131" cx="389.442" cy="122.156" r="4.067"/>
<path d="M326.814,74.713c-0.036-0.12-0.065-0.24-0.087-0.358c-0.413-2.277,1.357-5.117,2.278-7.114
	c1.989-4.308,5.546-7.796,8.7-11.266c1.842-2.025,5.128-6.672,8.082-7.017c3.554-0.414,2.805,3.984,1.689,5.52
	c-1.455,2.002-3.356,3.796-4.976,5.672c-1.838,2.129-3.971,4.056-5.54,6.403c-2.042,3.055-2.758,7.259-5.535,9.785
	C329.497,78.092,327.421,76.742,326.814,74.713z"/>
<path fill="none" stroke="#201E1E" stroke-width="0.5669" stroke-miterlimit="2.6131" d="M326.814,74.713
	c-0.036-0.12-0.065-0.24-0.087-0.358c-0.413-2.277,1.357-5.117,2.278-7.114c1.989-4.308,5.546-7.796,8.7-11.266
	c1.842-2.025,5.128-6.672,8.082-7.017c3.554-0.414,2.805,3.984,1.689,5.52c-1.455,2.002-3.356,3.796-4.976,5.672
	c-1.838,2.129-3.971,4.056-5.54,6.403c-2.042,3.055-2.758,7.259-5.535,9.785C329.497,78.092,327.421,76.742,326.814,74.713z"/>
<path d="M359.349,69.562c0,0,6.235-3.524,8.946-0.271c0,0,3.524,4.338-2.982,9.76c0,0-12.193,13.277-15.179,14.368
	c-2.315,0.846-4.501-3.423-3.574-5.101c0.808-1.461,4.043-3.632,5.314-4.941c3.452-3.556,6.857-7.171,10.186-10.833L359.349,69.562z
	"/>
<path fill="none" stroke="#201E1E" stroke-width="1.0001" stroke-miterlimit="2.6131" d="M359.349,69.562
	c0,0,6.235-3.524,8.946-0.271c0,0,3.524,4.338-2.982,9.76c0,0-12.193,13.277-15.179,14.368c-2.315,0.846-4.501-3.423-3.574-5.101
	c0.808-1.461,4.043-3.632,5.314-4.941c3.452-3.556,6.857-7.171,10.186-10.833L359.349,69.562z"/>
<path d="M375.886,84.292c0,0,2.576-4.157,6.507-4.157c0,0,4.067,1.626,0.814,6.777c0,0-9.489,19.791-14.64,21.417
	c0,0-4.88-1.355-1.898-6.235l11.568-15.634L375.886,84.292z"/>
<path fill="none" stroke="#201E1E" stroke-width="1.0001" stroke-miterlimit="2.6131" d="M375.886,84.292
	c0,0,2.576-4.157,6.507-4.157c0,0,4.067,1.626,0.814,6.777c0,0-9.489,19.791-14.64,21.417c0,0-4.88-1.355-1.898-6.235l11.568-15.634
	L375.886,84.292z"/>
<path d="M386.731,120.529c-0.043-1.083,10.302-15.091,9.76-17.802l-2.079-2.35c0,0,2.621-2.621,5.332-1.808l2.983,2.711
	c0,0,0.813,2.169-1.627,5.965l-8.133,15.724C392.966,122.97,387.002,127.307,386.731,120.529z"/>
<path fill="none" stroke="#201E1E" stroke-width="1.0001" stroke-miterlimit="2.6131" d="M386.731,120.529
	c-0.043-1.083,10.302-15.091,9.76-17.802l-2.079-2.35c0,0,2.621-2.621,5.332-1.808l2.983,2.711c0,0,0.813,2.169-1.627,5.965
	l-8.133,15.724C392.966,122.97,387.002,127.307,386.731,120.529z"/>
<path d="M410.588,120.259c1.717,0.362,7.043,0.919,8.719,1.793c2.646,1.379,3.898,3.514,3.582,6.505
	c-0.711,6.732-7.594,9.895-13.385,11.492c0,0-5.151-4.338,1.085-5.693c1.105-0.24,2.292-1.096,3.246-1.659
	c1.61-0.949,3.561-2.267,4.336-4.059c0.286-0.663,0.279-2.236-0.277-2.752c-0.581-0.539-2.026-0.332-2.785-0.386
	C415.107,125.5,410.136,120.8,410.588,120.259z"/>
<path fill="none" stroke="#201E1E" stroke-width="1.0001" stroke-miterlimit="2.6131" d="M410.588,120.259
	c1.717,0.362,7.043,0.919,8.719,1.793c2.646,1.379,3.898,3.514,3.582,6.505c-0.711,6.732-7.594,9.895-13.385,11.492
	c0,0-5.151-4.338,1.085-5.693c1.105-0.24,2.292-1.096,3.246-1.659c1.61-0.949,3.561-2.267,4.336-4.059
	c0.286-0.663,0.279-2.236-0.277-2.752c-0.581-0.539-2.026-0.332-2.785-0.386C415.107,125.5,410.136,120.8,410.588,120.259z"/>
<path fill="none" stroke="#201E1E" stroke-width="0.5" stroke-miterlimit="2.6131" stroke-dasharray="2.5,1.5" d="M54.661,58.915
	l36.749,18.482c0,0,27.22,12.239,41.358,16.67c14.137,4.431,45.695,10.613,83.465,0.907c37.771-9.706,62.686-24.34,62.689-24.505
	c0.001-0.08,11.389-6.991,20.977-11.531c10.445-4.946,19.515-7.337,28.791-1.585c15.7,9.736,31.109,24.761,47.029,35.825
	l23.416,17.867c0,0,7.942,6.367,13.489,11.981"/>
<path fill="none" stroke="#201E1E" stroke-width="0.5" stroke-miterlimit="2.6131" stroke-dasharray="2.5,1.5" d="M144.572,83.321
	c8.587,1.219,17.249,2.01,25.843,2.224c31.06,0.772,61.528-5.047,87.499-15.199c1.603-0.626,17.425-6.668,31.279-15.048
	c8.586-5.194,17.444-12.449,21.537-12.01c3.048-0.457,6.023-0.363,8.884,0.127c13.851,2.374,25.04,14.024,28.926,17.161
	c4.452,3.594,30.431,26.537,48.854,46.171 M72.907,64.643c0.685,0.285,1.349,0.544,1.979,0.767
	c19.443,6.871,42.657,13.763,66.576,17.449"/>
<line fill="none" stroke="#201E1E" stroke-width="0.7087" stroke-miterlimit="4" stroke-dasharray="2.16,0.65" x1="141.011" y1="81.196" x2="148.38" y2="95.638"/>
<path fill="none" stroke="#373435" stroke-width="0.5" stroke-miterlimit="2.6131" d="M61.638,59.635
	c0,0-41.319,64.227-13.556,144.382"/>
<path fill="none" stroke="#373435" stroke-width="0.5" stroke-miterlimit="2.6131" stroke-dasharray="2.5,1.5" d="M59.937,59.635
	c0,0-41.319,64.227-13.556,144.382"/>
<path fill="#FFFFFF" d="M169.19,216.322c0.033-0.362,0.368-0.63,0.747-0.596l7.225,0.653c0.38,0.034,0.662,0.358,0.629,0.72
	c-0.033,0.363-0.367,0.631-0.748,0.598l-7.225-0.654C169.438,217.009,169.157,216.685,169.19,216.322z"/>
<path fill="none" stroke="#201E1E" stroke-width="0.2503" stroke-miterlimit="2.6131" d="M169.19,216.322
	c0.033-0.362,0.368-0.63,0.747-0.596l7.225,0.653c0.38,0.034,0.662,0.358,0.629,0.72c-0.033,0.363-0.367,0.631-0.748,0.598
	l-7.225-0.654C169.438,217.009,169.157,216.685,169.19,216.322z"/>
<path fill="#FFFFFF" d="M178.261,217.172c0.033-0.362,0.368-0.63,0.747-0.596l7.226,0.653c0.38,0.034,0.662,0.358,0.629,0.72
	c-0.033,0.363-0.367,0.631-0.748,0.598l-7.225-0.654C178.509,217.86,178.228,217.536,178.261,217.172z"/>
<path fill="none" stroke="#201E1E" stroke-width="0.2503" stroke-miterlimit="2.6131" d="M178.261,217.172
	c0.033-0.362,0.368-0.63,0.747-0.596l7.226,0.653c0.38,0.034,0.662,0.358,0.629,0.72c-0.033,0.363-0.367,0.631-0.748,0.598
	l-7.225-0.654C178.509,217.86,178.228,217.536,178.261,217.172z"/>
<path fill="#FFFFFF" d="M187.511,218.11c0.033-0.362,0.368-0.63,0.747-0.596l7.225,0.653c0.38,0.034,0.662,0.358,0.629,0.72
	c-0.033,0.363-0.367,0.631-0.748,0.598l-7.225-0.654C187.759,218.797,187.478,218.473,187.511,218.11z"/>
<path fill="none" stroke="#201E1E" stroke-width="0.2503" stroke-miterlimit="2.6131" d="M187.511,218.11
	c0.033-0.362,0.368-0.63,0.747-0.596l7.225,0.653c0.38,0.034,0.662,0.358,0.629,0.72c-0.033,0.363-0.367,0.631-0.748,0.598
	l-7.225-0.654C187.759,218.797,187.478,218.473,187.511,218.11z"/>
<path fill="#FFFFFF" d="M196.619,219.142c0.04-0.361,0.381-0.622,0.76-0.58l7.21,0.803c0.38,0.042,0.654,0.372,0.614,0.733
	c-0.04,0.363-0.38,0.624-0.76,0.582l-7.21-0.803C196.853,219.835,196.579,219.505,196.619,219.142z"/>
<path fill="none" stroke="#201E1E" stroke-width="0.2503" stroke-miterlimit="2.6131" d="M196.619,219.142
	c0.04-0.361,0.381-0.622,0.76-0.58l7.21,0.803c0.38,0.042,0.654,0.372,0.614,0.733c-0.04,0.363-0.38,0.624-0.76,0.582l-7.21-0.803
	C196.853,219.835,196.579,219.505,196.619,219.142z"/>
<path fill="#FFFFFF" d="M205.854,220.142c0.04-0.361,0.381-0.622,0.76-0.581l7.21,0.803c0.38,0.042,0.654,0.372,0.614,0.733
	c-0.04,0.363-0.38,0.624-0.76,0.582l-7.21-0.803C206.088,220.834,205.814,220.505,205.854,220.142z"/>
<path fill="none" stroke="#201E1E" stroke-width="0.2503" stroke-miterlimit="2.6131" d="M205.854,220.142
	c0.04-0.361,0.381-0.622,0.76-0.581l7.21,0.803c0.38,0.042,0.654,0.372,0.614,0.733c-0.04,0.363-0.38,0.624-0.76,0.582l-7.21-0.803
	C206.088,220.834,205.814,220.505,205.854,220.142z"/>
<path fill="#FFFFFF" d="M215.095,221.072c0.054-0.36,0.404-0.608,0.781-0.551l7.174,1.076c0.378,0.056,0.64,0.396,0.586,0.756
	c-0.054,0.361-0.404,0.609-0.782,0.553l-7.174-1.077C215.301,221.772,215.04,221.433,215.095,221.072z"/>
<path fill="none" stroke="#201E1E" stroke-width="0.2503" stroke-miterlimit="2.6131" d="M215.095,221.072
	c0.054-0.36,0.404-0.608,0.781-0.551l7.174,1.076c0.378,0.056,0.64,0.396,0.586,0.756c-0.054,0.361-0.404,0.609-0.782,0.553
	l-7.174-1.077C215.301,221.772,215.04,221.433,215.095,221.072z"/>
<path fill="#FFFFFF" d="M224.032,222.447c0.054-0.36,0.404-0.608,0.781-0.551l7.175,1.076c0.378,0.056,0.64,0.396,0.586,0.756
	c-0.054,0.361-0.404,0.609-0.782,0.553l-7.174-1.077C224.239,223.148,223.978,222.808,224.032,222.447z"/>
<path fill="none" stroke="#201E1E" stroke-width="0.2503" stroke-miterlimit="2.6131" d="M224.032,222.447
	c0.054-0.36,0.404-0.608,0.781-0.551l7.175,1.076c0.378,0.056,0.64,0.396,0.586,0.756c-0.054,0.361-0.404,0.609-0.782,0.553
	l-7.174-1.077C224.239,223.148,223.978,222.808,224.032,222.447z"/>
<path fill="#FFFFFF" d="M232.686,223.884c0.05-0.36,0.372-0.607,0.721-0.551l6.617,1.076c0.349,0.056,0.59,0.396,0.54,0.756
	c-0.05,0.361-0.372,0.609-0.721,0.553l-6.617-1.077C232.876,224.585,232.636,224.245,232.686,223.884z"/>
<path fill="none" stroke="#201E1E" stroke-width="0.2503" stroke-miterlimit="2.6131" d="M232.686,223.884
	c0.05-0.36,0.372-0.607,0.721-0.551l6.617,1.076c0.349,0.056,0.59,0.396,0.54,0.756c-0.05,0.361-0.372,0.609-0.721,0.553
	l-6.617-1.077C232.876,224.585,232.636,224.245,232.686,223.884z"/>
<path fill="#FFFFFF" d="M240.735,225.009c0.045-0.36,0.339-0.608,0.654-0.551l6.007,1.076c0.317,0.056,0.536,0.396,0.49,0.756
	c-0.045,0.361-0.338,0.609-0.655,0.553l-6.007-1.077C240.909,225.71,240.69,225.37,240.735,225.009z"/>
<path fill="none" stroke="#201E1E" stroke-width="0.2503" stroke-miterlimit="2.6131" d="M240.735,225.009
	c0.045-0.36,0.339-0.608,0.654-0.551l6.007,1.076c0.317,0.056,0.536,0.396,0.49,0.756c-0.045,0.361-0.338,0.609-0.655,0.553
	l-6.007-1.077C240.909,225.71,240.69,225.37,240.735,225.009z"/>
<path fill="none" stroke="#201E1E" stroke-width="0.5" stroke-miterlimit="2.6131" stroke-dasharray="2.5,1.5" d="M54.378,60.332
	l36.749,18.482c0,0,27.221,12.239,41.358,16.67c14.137,4.431,45.695,10.613,83.465,0.907c37.77-9.706,62.686-24.34,62.688-24.505
	c0.001-0.08,11.389-6.991,20.977-11.531c10.445-4.946,19.515-7.337,28.791-1.585c15.7,9.737,31.109,24.761,47.029,35.825
	l23.416,17.867c0,0,7.942,6.367,13.489,11.981"/>
<path fill="none" stroke="#201E1E" stroke-width="0.5" stroke-miterlimit="2.6131" stroke-dasharray="2.5,1.5" d="M144.288,84.738
	c8.587,1.219,17.249,2.01,25.843,2.224c31.06,0.772,61.528-5.047,87.499-15.199c1.603-0.626,17.425-6.668,31.279-15.048
	c8.586-5.194,17.444-12.449,21.537-12.01c3.048-0.458,6.023-0.363,8.884,0.127c13.851,2.374,25.04,14.024,28.926,17.161
	c4.452,3.594,30.431,26.537,48.855,46.171 M82.478,69.484c17.711,5.84,37.934,11.57,58.701,14.794"/>
<path fill="#FEFEFE" d="M632.074,197.845c-0.285-0.343,0.033-0.726,0.716-0.854c0.677-0.125,1.464,0.05,1.747,0.395
	c0.287,0.341-0.031,0.724-0.71,0.851C633.144,198.365,632.36,198.189,632.074,197.845z"/>
<path fill="none" stroke="#373435" stroke-width="0.7805" stroke-linecap="round" stroke-linejoin="round" d="M632.074,197.845
	c-0.285-0.343,0.033-0.726,0.716-0.854c0.677-0.125,1.464,0.05,1.747,0.395c0.287,0.341-0.031,0.724-0.71,0.851
	C633.144,198.365,632.36,198.189,632.074,197.845z"/>
<path fill="#FEFEFE" d="M637.98,197.095c-0.285-0.343,0.032-0.726,0.715-0.854c0.677-0.125,1.464,0.05,1.747,0.395
	c0.287,0.341-0.031,0.724-0.711,0.851C639.05,197.615,638.266,197.439,637.98,197.095z"/>
<path fill="none" stroke="#373435" stroke-width="0.7805" stroke-linecap="round" stroke-linejoin="round" d="M637.98,197.095
	c-0.285-0.343,0.032-0.726,0.715-0.854c0.677-0.125,1.464,0.05,1.747,0.395c0.287,0.341-0.031,0.724-0.71,0.851
	C639.05,197.615,638.266,197.439,637.98,197.095z"/>
</svg>
