<svg height='300px' width='300px'  fill="#000000" xmlns="http://www.w3.org/2000/svg" xmlns:xlink="http://www.w3.org/1999/xlink" version="1.1" x="0px" y="0px" viewBox="0 0 96 96" style="enable-background:new 0 0 96 96;" xml:space="preserve"><g><g><path d="M8.5,91.3C8.9,91.8,9.4,92,10,92h76c0.6,0,1.1-0.2,1.5-0.7c0.4-0.4,0.6-1,0.5-1.6l-8-64c-0.1-1-1-1.8-2-1.8H65v-3    c0-9.4-7.6-17-17-17s-17,7.6-17,17v3H18c-1,0-1.9,0.8-2,1.8l-8,64C7.9,90.3,8.1,90.9,8.5,91.3z M12.3,88l1.5-12h68.5l1.5,12H12.3z     M35,21c0-7.2,5.8-13,13-13s13,5.8,13,13v3H35V21z M19.8,28H31v8c0,1.1,0.9,2,2,2s2-0.9,2-2v-8h26v8c0,1.1,0.9,2,2,2s2-0.9,2-2v-8    h11.2l5.5,44H14.3L19.8,28z"></path></g></g></svg>