<?xml version="1.0" encoding="utf-8"?>
<!-- Generator: Adobe Illustrator 17.0.0, SVG Export Plug-In . SVG Version: 6.00 Build 0)  -->
<!DOCTYPE svg PUBLIC "-//W3C//DTD SVG 1.1//EN" "http://www.w3.org/Graphics/SVG/1.1/DTD/svg11.dtd">
<svg version="1.1" id="Layer_1" xmlns="http://www.w3.org/2000/svg" xmlns:xlink="http://www.w3.org/1999/xlink" x="0px" y="0px"
	 width="78px" height="78px" viewBox="0 0 78 78" enable-background="new 0 0 78 78" xml:space="preserve">
<g id="icon_cart" display="none">
	<g id="Group-4" display="inline">
		<g id="Cart" transform="translate(9.000000, 9.000000)">
			<path id="Rectangle_1_" fill="none" stroke="#0E1022" stroke-width="3" stroke-linejoin="round" d="M6.483,13.997h47.034
				c1.474,0,2.74,1.045,3.019,2.492l8.119,42.069c0.322,1.667-0.769,3.28-2.437,3.602c-0.192,0.037-0.387,0.056-0.583,0.056H-1.636
				c-1.698,0-3.075-1.377-3.075-3.075c0-0.196,0.019-0.391,0.056-0.583l8.119-42.069C3.743,15.043,5.009,13.997,6.483,13.997z"/>
			<path id="Path-6" fill="none" stroke="#0E1022" stroke-width="3" stroke-linecap="round" d="M14.52,23.222
				C13.076,6.823,18.354-1.377,30.353-1.377s16.973,8.2,14.923,24.599"/>
		</g>
	</g>
</g>
<g id="icon_profile" display="none">
	<g id="Group-5" display="inline">
		<g id="profile" transform="translate(12.000000, 8.000000)">
			<circle id="Oval" fill="none" stroke="#010101" stroke-width="1.4" cx="27.488" cy="13.856" r="14.5"/>
			<path id="Rectangle_2_" fill="none" stroke="#010101" stroke-width="1.4" stroke-linejoin="round" d="M27.488,37.056
				c14.415,0,26.101,11.686,26.101,26.101l0,0l0,0H1.387C1.387,48.742,13.073,37.056,27.488,37.056z"/>
		</g>
	</g>
</g>
<g id="icon_wishlist" display="none">
	<g id="Group-3" display="inline">
		<path id="Rectangle_3_" fill="none" stroke="#010101" stroke-width="1.4" stroke-linejoin="round" d="M19.497,6.813h40.469
			c1.719,0,3.113,1.394,3.113,3.113v62.26l0,0L39.732,59.929L16.384,72.187V9.926C16.384,8.207,17.778,6.813,19.497,6.813z"/>
	</g>
</g>
<g display="none">
	<path display="inline" d="M3.306,30.571c0.185-1.072,0.306-2.159,0.565-3.212c1.643-6.679,5.609-11.517,11.887-14.26
		c5.879-2.568,11.812-2.371,17.604,0.47c2.284,1.12,4.253,2.666,5.941,4.569c0.11,0.124,0.226,0.244,0.344,0.36
		c0.03,0.03,0.082,0.038,0.125,0.056c0.805-0.765,1.571-1.573,2.418-2.287c4.58-3.862,9.897-5.449,15.81-4.745
		c8.694,1.035,15.477,7.108,17.636,15.645c1.268,5.011,0.443,9.782-1.821,14.359c-2.214,4.476-5.295,8.313-8.798,11.823
		c-7.123,7.138-15.278,12.901-23.988,17.922c-0.882,0.509-1.638,0.51-2.519-0.004c-8.683-5.065-16.82-10.855-23.94-17.993
		c-3.468-3.476-6.537-7.263-8.759-11.678c-1.224-2.433-2.087-4.978-2.39-7.698c-0.018-0.162-0.076-0.32-0.115-0.479
		C3.306,32.47,3.306,31.52,3.306,30.571z M23.829,15.017c-0.754,0.084-1.997,0.124-3.198,0.372
		C10.115,17.56,4.174,28.707,8.388,38.489c1.873,4.347,4.708,7.999,7.949,11.362c6.786,7.042,14.697,12.632,23.041,17.645
		c0.2,0.12,0.597,0.114,0.801-0.005c7.387-4.335,14.376-9.222,20.61-15.123c3.473-3.288,6.656-6.831,9.017-11.038
		c2.357-4.2,3.404-8.613,2.234-13.405c-1.709-7-7.917-12.367-15.134-12.838c-6.198-0.404-11.248,1.921-15.035,6.891
		c-0.244,0.32-0.475,0.656-0.756,0.941c-0.773,0.782-1.968,0.77-2.732-0.019c-0.229-0.237-0.418-0.515-0.613-0.784
		C34.45,17.536,29.921,15.263,23.829,15.017z"/>
	<path display="inline" fill="#FFFFFF" d="M23.829,15.017c6.092,0.246,10.621,2.519,13.94,7.099
		c0.195,0.269,0.384,0.547,0.613,0.784c0.764,0.789,1.958,0.801,2.732,0.019c0.282-0.285,0.512-0.621,0.756-0.941
		c3.787-4.97,8.837-7.295,15.035-6.891c7.217,0.471,13.425,5.838,15.134,12.838c1.17,4.792,0.123,9.205-2.234,13.405
		c-2.361,4.206-5.543,7.75-9.017,11.038c-6.234,5.901-13.223,10.788-20.61,15.123c-0.204,0.12-0.601,0.125-0.801,0.005
		c-8.344-5.013-16.255-10.603-23.041-17.645c-3.241-3.363-6.076-7.015-7.949-11.362c-4.214-9.782,1.727-20.929,12.243-23.101
		C21.832,15.14,23.076,15.101,23.829,15.017z"/>
</g>
<g display="none">
	<path display="inline" d="M41.015,3.422c1.814,0.434,3.711,0.661,5.428,1.341c5.71,2.261,9.585,6.394,11.185,12.322
		c2.036,7.542,0.038,14.095-5.803,19.282c-4.244,3.768-9.337,5.214-14.962,4.332c-6.754-1.059-11.651-4.791-14.384-11.015
		c-2.773-6.315-2.105-12.501,1.79-18.207c2.838-4.158,6.844-6.682,11.782-7.697c0.722-0.148,1.456-0.24,2.185-0.358
		C39.162,3.422,40.089,3.422,41.015,3.422z M39.605,7.594c-8.029,0.017-14.59,6.597-14.573,14.613
		c0.017,8.029,6.597,14.59,14.613,14.573c8.029-0.017,14.59-6.597,14.573-14.613C54.201,14.138,47.622,7.576,39.605,7.594z"/>
	<path display="inline" d="M73.496,74.578c-22.691,0-45.303,0-68.038,0c0-0.23,0-0.449,0-0.668c0-4.702-0.005-9.404,0.011-14.106
		c0.001-0.303,0.074-0.659,0.255-0.901c3.867-5.193,8.868-9.125,15.258-11.493c3.925-1.455,8.015-2.141,12.241-2.148
		c4.185-0.007,8.371-0.047,12.555,0.007c11.736,0.151,20.818,4.865,27.502,13.633c0.147,0.193,0.249,0.462,0.25,0.696
		c0.014,4.887,0.01,9.774,0.008,14.661C73.538,74.347,73.516,74.435,73.496,74.578z M69.002,70.394c0-3.245,0.004-6.415-0.009-9.585
		c-0.001-0.19-0.087-0.411-0.211-0.565c-4.964-6.174-11.583-9.965-19.896-10.576c-6.032-0.444-12.152-0.396-18.197-0.045
		c-8.517,0.495-15.287,4.26-20.392,10.533c-0.19,0.234-0.285,0.588-0.287,0.887c-0.021,2.918-0.013,5.835-0.011,8.753
		c0,0.199,0.028,0.397,0.043,0.6C29.709,70.394,49.31,70.394,69.002,70.394z"/>
</g>
<g>
	<path stroke="#0E1022" stroke-width="1.5" d="M5.661,11.037C5.982,10.408,6.403,9.832,7.19,9.97
		c1.877,0.328,3.816,0.517,5.593,1.149c3.346,1.191,5.092,3.809,5.663,7.265c0.286,1.729,0.612,3.451,0.929,5.223
		c0.355,0,0.655,0,0.955,0c16.688,0,33.377,0.004,50.065-0.011c0.891-0.001,1.616,0.186,2.069,1.01c0,0.304,0,0.609,0,0.913
		c-0.563,1.796-1.141,3.588-1.687,5.39c-1.716,5.67-3.414,11.345-5.132,17.014c-1.081,3.566-3.723,5.54-7.44,5.544
		c-10.022,0.01-20.043,0.011-30.065-0.001c-4.083-0.005-6.918-2.495-7.617-6.513c-1.387-7.978-2.82-15.949-4.239-23.921
		c-0.304-1.709-0.557-3.432-0.953-5.12c-0.566-2.41-2.162-3.852-4.558-4.388c-1.08-0.241-2.175-0.425-3.271-0.577
		c-0.798-0.111-1.433-0.416-1.842-1.128C5.661,11.559,5.661,11.298,5.661,11.037z M69.04,26.571c-16.43,0-32.75,0-49.129,0
		c0.255,1.446,0.503,2.851,0.752,4.256c0.93,5.26,1.844,10.522,2.796,15.778c0.467,2.579,2.126,3.944,4.718,3.945
		c10.022,0.005,20.045,0.005,30.067,0c2.349-0.001,3.891-1.159,4.575-3.413c1.525-5.025,3.043-10.053,4.563-15.079
		C67.927,30.253,68.473,28.448,69.04,26.571z"/>
	<path stroke="#0E1022" stroke-width="1.5" d="M58.379,72.903c-4.407,0.006-7.963-3.541-7.964-7.943
		c-0.001-4.384,3.595-7.978,7.967-7.961c4.351,0.017,7.924,3.587,7.941,7.933C66.34,69.323,62.778,72.897,58.379,72.903z
		 M63.379,64.932c-0.029-2.783-2.276-5.004-5.044-4.984c-2.762,0.019-5.039,2.318-4.997,5.042c0.043,2.77,2.332,5.035,5.056,5.002
		C61.158,69.958,63.408,67.676,63.379,64.932z"/>
	<path stroke="#0E1022" stroke-width="1.5" d="M35.602,64.951c0.012,4.389-3.556,7.956-7.956,7.953
		c-4.408-0.003-7.953-3.559-7.937-7.963c0.016-4.38,3.531-7.908,7.912-7.942C31.98,56.965,35.59,60.562,35.602,64.951z
		 M27.677,59.947c-2.76-0.015-5.032,2.229-5.051,4.989c-0.019,2.733,2.245,5.023,4.999,5.057c2.721,0.033,5.029-2.255,5.047-5.004
		C32.69,62.232,30.441,59.962,27.677,59.947z"/>
</g>
</svg>
