<?xml version="1.0" encoding="utf-8"?>
<!-- Generator: Adobe Illustrator 17.0.0, SVG Export Plug-In . SVG Version: 6.00 Build 0)  -->
<!DOCTYPE svg PUBLIC "-//W3C//DTD SVG 1.1//EN" "http://www.w3.org/Graphics/SVG/1.1/DTD/svg11.dtd">
<svg version="1.1" id="Layer_1" xmlns="http://www.w3.org/2000/svg" xmlns:xlink="http://www.w3.org/1999/xlink" x="0px" y="0px"
	 width="78px" height="78px" viewBox="0 0 78 78" enable-background="new 0 0 78 78" xml:space="preserve">
<g id="icon_cart">
	<g id="Group-4">
		<g id="Cart" transform="translate(9.000000, 9.000000)">
			<path id="Rectangle_1_" fill="none" stroke="#0E1022" stroke-width="3" stroke-linejoin="round" d="M6.483,13.997h47.034
				c1.474,0,2.74,1.045,3.019,2.492l8.119,42.069c0.322,1.667-0.769,3.28-2.437,3.602c-0.192,0.037-0.387,0.056-0.583,0.056H-1.636
				c-1.698,0-3.075-1.377-3.075-3.075c0-0.196,0.019-0.391,0.056-0.583l8.119-42.069C3.743,15.043,5.009,13.997,6.483,13.997z"/>
			<path id="Path-6" fill="none" stroke="#0E1022" stroke-width="3" stroke-linecap="round" d="M14.52,23.222
				C13.076,6.823,18.354-1.377,30.353-1.377s16.973,8.2,14.923,24.599"/>
		</g>
	</g>
</g>
<g id="icon_profile" display="none">
	<g id="Group-5" display="inline">
		<g id="profile" transform="translate(12.000000, 8.000000)">
			<circle id="Oval" fill="none" stroke="#010101" stroke-width="1.4" cx="27.488" cy="13.856" r="14.5"/>
			<path id="Rectangle_2_" fill="none" stroke="#010101" stroke-width="1.4" stroke-linejoin="round" d="M27.488,37.056
				c14.415,0,26.101,11.686,26.101,26.101l0,0l0,0H1.387C1.387,48.742,13.073,37.056,27.488,37.056z"/>
		</g>
	</g>
</g>
<g id="icon_wishlist" display="none">
	<g id="Group-3" display="inline">
		<path id="Rectangle_3_" fill="none" stroke="#010101" stroke-width="1.4" stroke-linejoin="round" d="M19.497,6.813h40.469
			c1.719,0,3.113,1.394,3.113,3.113v62.26l0,0L39.732,59.929L16.384,72.187V9.926C16.384,8.207,17.778,6.813,19.497,6.813z"/>
	</g>
</g>
</svg>
