<?xml version="1.0" encoding="utf-8"?>
<!-- Generator: Adobe Illustrator 17.0.0, SVG Export Plug-In . SVG Version: 6.00 Build 0)  -->
<!DOCTYPE svg PUBLIC "-//W3C//DTD SVG 1.1//EN" "http://www.w3.org/Graphics/SVG/1.1/DTD/svg11.dtd">
<svg version="1.1" id="Layer_1" xmlns="http://www.w3.org/2000/svg" xmlns:xlink="http://www.w3.org/1999/xlink" x="0px" y="0px"
	 width="888px" height="844px" viewBox="290.5 182.5 888 844" enable-background="new 290.5 182.5 888 844" xml:space="preserve">
<title>Delete 1.2</title>
<desc>Created with Sketch.</desc>
<g>
	<g>
		<path d="M986.01,379.5l-22.005,528.128C963.172,927.61,946.04,944,926,944H542c-20.045,0-37.174-16.424-38.005-36.372
			L481.99,379.5c-0.276-6.622-5.867-11.766-12.489-11.49s-11.766,5.867-11.49,12.489l22.005,528.128
			C481.383,941.432,509.091,968,542,968H926c32.892,0,60.616-26.522,61.985-59.373L1009.99,380.5
			c0.276-6.622-4.868-12.213-11.49-12.489C991.878,367.734,986.286,372.879,986.01,379.5z"/>
		<path d="M722,452v408c0,6.627,5.373,12,12,12s12-5.373,12-12V452c0-6.627-5.373-12-12-12S722,445.373,722,452z"/>
		<path d="M590.005,452.353l12,408c0.195,6.625,5.723,11.837,12.348,11.642c6.625-0.195,11.837-5.723,11.642-12.348l-12-408
			c-0.195-6.625-5.723-11.837-12.348-11.642C595.023,440.2,589.81,445.728,590.005,452.353z"/>
		<path d="M854.005,451.647l-12,408c-0.195,6.625,5.018,12.153,11.642,12.348c6.625,0.195,12.153-5.017,12.348-11.642l12-408
			c0.195-6.625-5.018-12.153-11.642-12.348C859.728,439.81,854.2,445.023,854.005,451.647z"/>
		<path d="M434,332h600c6.627,0,12-5.373,12-12s-5.373-12-12-12H434c-6.627,0-12,5.373-12,12S427.373,332,434,332z"/>
		<path d="M625.142,324.457l12.843-32.108C642.315,281.523,656.383,272,668,272h132c11.682,0,25.661,9.464,30.015,20.349
			l12.843,32.108l22.283-8.913l-12.843-32.108C844.3,263.439,821.496,248,800,248H668c-21.429,0-44.323,15.497-52.299,35.435
			l-12.843,32.108L625.142,324.457z"/>
	</g>
</g>
</svg>
