<?xml version="1.0" encoding="utf-8"?>
<!-- Generator: Adobe Illustrator 17.0.0, SVG Export Plug-In . SVG Version: 6.00 Build 0)  -->
<!DOCTYPE svg PUBLIC "-//W3C//DTD SVG 1.1//EN" "http://www.w3.org/Graphics/SVG/1.1/DTD/svg11.dtd">
<svg version="1.1" id="Layer_1" xmlns="http://www.w3.org/2000/svg" xmlns:xlink="http://www.w3.org/1999/xlink" x="0px" y="0px"
	 width="136.652px" height="136.652px" viewBox="187.674 187.674 136.652 136.652"
	 enable-background="new 187.674 187.674 136.652 136.652" xml:space="preserve">
<path fill="#FFFFFF" d="M314.471,187.674H197.529c-5.443,0-9.855,4.412-9.855,9.855v116.941c0,5.443,4.412,9.855,9.855,9.855h63.141
	V271.48h-17.749v-20.685h17.749v-15.223c0-17.653,10.777-27.261,26.524-27.261c7.542,0,14.024,0.562,15.913,0.813v18.45h-10.858
	c-8.568,0-10.227,4.071-10.227,10.046v13.174h20.484l-2.669,20.685h-17.815v52.846h32.448c5.443,0,9.855-4.412,9.855-9.855V197.529
	C324.326,192.086,319.914,187.674,314.471,187.674z"/>
</svg>
