<svg height='300px' width='300px'  fill="#000000" xmlns="http://www.w3.org/2000/svg" viewBox="0 0 32 32" x="0px" y="0px"><title>Artboard 17</title><g data-name="17-filter"><path d="M3,9H19.14a4,4,0,0,0,7.72,0H29a1,1,0,0,0,0-2H26.86a4,4,0,0,0-7.72,0H3A1,1,0,0,0,3,9ZM23,6a2,2,0,1,1-2,2A2,2,0,0,1,23,6Z"></path><path d="M29,15H12.86a4,4,0,0,0-7.72,0H3a1,1,0,0,0,0,2H5.14a4,4,0,0,0,7.72,0H29a1,1,0,0,0,0-2ZM9,18a2,2,0,1,1,2-2A2,2,0,0,1,9,18Z"></path><path d="M29,23H21.86a4,4,0,0,0-7.72,0H3a1,1,0,0,0,0,2H14.14a4,4,0,0,0,7.72,0H29a1,1,0,0,0,0-2ZM18,26a2,2,0,1,1,2-2A2,2,0,0,1,18,26Z"></path></g></svg>