<?xml version="1.0" encoding="utf-8"?>
<!-- Generator: Adobe Illustrator 17.0.0, SVG Export Plug-In . SVG Version: 6.00 Build 0)  -->
<!DOCTYPE svg PUBLIC "-//W3C//DTD SVG 1.1//EN" "http://www.w3.org/Graphics/SVG/1.1/DTD/svg11.dtd">
<svg version="1.1" id="Capa_1" xmlns="http://www.w3.org/2000/svg" xmlns:xlink="http://www.w3.org/1999/xlink" x="0px" y="0px"
	 width="1500px" height="1500px" viewBox="0 0 1500 1500" enable-background="new 0 0 1500 1500" xml:space="preserve">
<path fill="#A15D30" d="M465.287,1345.302h-53.203c-35.737,0.003-66.683-26.724-74.439-64.293l-62.982-305.205L45.913,585.779
	l53.985-64.6c67.226-80.476,68.596-202.161,3.202-284.369l16.089-8.663c89.703-48.302,188.618-73.448,288.91-73.448v348.97
	l57.187,307.915V1345.302z"/>
<g>
	<path fill="#824B27" d="M427.162,503.668c0.01,11.336-8.516,20.538-19.043,20.548c-2.299,0.003-4.577-0.441-6.729-1.314
		c-6.615-2.689-162.526-68.295-221.467-322.161c-2.886-10.903,2.986-22.26,13.11-25.367c10.125-3.107,20.671,3.215,23.556,14.118
		c0.112,0.421,0.21,0.844,0.295,1.273C271.022,423.96,413.361,483.88,414.79,484.434
		C422.237,487.439,427.167,495.106,427.162,503.668L427.162,503.668z"/>
	<path fill="#824B27" d="M416.582,548.172c-75.821,53.985-113.023,152.61-93.635,248.241l25.01,125.711l-22.189,9.566
		c-25.341,10.908-54.306,1.014-69.178-23.627c-6.31-10.49-191.863-327.395-197.83-337.31L31.75,599.06
		c6.005,9.976,186.45,320.703,192.835,331.316c24.798,41.084,73.081,57.598,115.347,39.454l52.04-22.437l-31.758-159.561
		c-15.972-79.152,14.804-160.744,77.508-205.482c8.764-6.287,11.137-19.034,5.299-28.472
		C437.184,544.441,425.346,541.886,416.582,548.172z"/>
</g>
<g>
	<path fill="#484A4D" d="M178.064,931.839l-20.359-34.692l96.646-65.771l20.359,34.692L178.064,931.839z"/>
	<path fill="#484A4D" d="M137.53,862.16l-20.371-34.728l96.716-65.786l20.371,34.728L137.53,862.16z"/>
	<path fill="#484A4D" d="M96.812,792.731l-20.361-34.71l96.699-65.778l20.361,34.71L96.812,792.731z"/>
	<path fill="#484A4D" d="M56.086,723.406l-20.371-34.728l96.716-65.786l20.371,34.728L56.086,723.406z"/>
	<path fill="#484A4D" d="M408.099,503.668v-348.97h133.437v348.97H408.099z"/>
	<path fill="#484A4D" d="M484.349,503.668l57.187,307.915v533.719h-76.25V811.583l-57.187-307.915H484.349z"/>
</g>
<g>
	<g>
		<path fill="#484A4D" d="M1163.299,196.349H998.613c-11.388,0-22.248,4.759-29.773,13.26
			c-14.886,16.757-36.362,27.414-60.359,27.414s-45.514-10.656-60.359-27.414c-7.565-8.501-18.425-13.26-29.814-13.26H695.555
			c-11.226,0-20.337,9.111-20.337,20.337v162.694c0,11.226,9.111,20.337,20.337,20.337h122.752c11.389,0,22.248-4.759,29.773-13.26
			c14.886-16.757,36.362-27.414,60.4-27.414c81.347,0,92.166,95.949,92.166,122.02l-0.691,162.694h162.694V481.063
			c0-71.585,42.097-122.02,122.671-122.02c81.347,0,144.838,50.598,180.427,108.598l21.557-11.185c0-0.081,0-0.081,0-0.081
			C1436.991,309.299,1267.179,196.349,1163.299,196.349z M797.239,277.696h-81.347v-40.673h81.347V277.696z"/>
	</g>
</g>
<g>
	<g>
		<path fill="#A15D30" d="M1204.013,969.143c11.389-128.243,2.4-177.865-40.714-284.714h-162.694
			c-43.114,106.849-52.103,156.471-40.673,284.714c20.54,230.537-1.586,241.763-2.034,287.114
			c-0.447,45.351,25.38,78.947,56.699,78.947h134.751c31.318,0,57.105-33.596,56.699-78.947
			C1205.6,1210.906,1183.473,1199.68,1204.013,969.143z"/>
	</g>
</g>
</svg>
