<?xml version="1.0" encoding="utf-8"?>
<!-- Generator: Adobe Illustrator 17.0.0, SVG Export Plug-In . SVG Version: 6.00 Build 0)  -->
<!DOCTYPE svg PUBLIC "-//W3C//DTD SVG 1.1//EN" "http://www.w3.org/Graphics/SVG/1.1/DTD/svg11.dtd">
<svg version="1.1" id="Layer_1" xmlns="http://www.w3.org/2000/svg" xmlns:xlink="http://www.w3.org/1999/xlink" x="0px" y="0px"
	 width="42px" height="38px" viewBox="0 0 42 38" enable-background="new 0 0 42 38" xml:space="preserve">
<title>icon_cart</title>
<g id="icon_cart">
	<g id="Group-4">
		<g id="Cart" transform="translate(9.000000, 9.000000)">
			<path id="Rectangle_1_" fill="#FFFFFF" stroke="#000000" stroke-width="1.4" stroke-linejoin="round" d="M-0.903,0.99h25.805
				c0.808,0,1.503,0.574,1.656,1.367l4.454,23.081c0.177,0.915-0.422,1.8-1.337,1.976c-0.105,0.02-0.212,0.031-0.32,0.031H-5.357
				c-0.932,0-1.687-0.755-1.687-1.687c0-0.107,0.01-0.214,0.031-0.32l4.454-23.081C-2.406,1.563-1.711,0.99-0.903,0.99z"/>
			<path id="Path-6" fill="none" stroke="#000000" stroke-width="1.4" stroke-linecap="round" d="M3.507,6.051
				C2.715-2.946,5.61-7.445,12.193-7.445s9.312,4.499,8.187,13.496"/>
		</g>
	</g>
</g>
</svg>
