<?xml version="1.0" encoding="utf-8"?>
<!-- Generator: Adobe Illustrator 17.0.0, SVG Export Plug-In . SVG Version: 6.00 Build 0)  -->
<!DOCTYPE svg PUBLIC "-//W3C//DTD SVG 1.1//EN" "http://www.w3.org/Graphics/SVG/1.1/DTD/svg11.dtd">
<svg version="1.1" id="Layer_1" xmlns="http://www.w3.org/2000/svg" xmlns:xlink="http://www.w3.org/1999/xlink" x="0px" y="0px"
	 width="136.652px" height="136.652px" viewBox="187.674 187.674 136.652 136.652"
	 enable-background="new 187.674 187.674 136.652 136.652" xml:space="preserve">
<path display="none" fill="#FFFFFF" d="M314.471,187.674H197.529c-5.443,0-9.855,4.412-9.855,9.855v116.941
	c0,5.443,4.412,9.855,9.855,9.855h63.141V271.48h-17.749v-20.685h17.749v-15.223c0-17.653,10.777-27.261,26.524-27.261
	c7.542,0,14.024,0.562,15.913,0.813v18.45h-10.858c-8.568,0-10.227,4.071-10.227,10.046v13.174h20.484l-2.669,20.685h-17.815v52.846
	h32.448c5.443,0,9.855-4.412,9.855-9.855V197.529C324.326,192.086,319.914,187.674,314.471,187.674z"/>
<g>
	<path fill="#FCFCFC" d="M287.793,212.284h-63.587c-6.574,0-11.923,5.349-11.923,11.923v63.587c0,6.574,5.349,11.923,11.923,11.923
		h63.587c6.574,0,11.923-5.349,11.923-11.923v-63.587C299.716,217.633,294.367,212.284,287.793,212.284z M256,283.819
		c-15.338,0-27.819-12.481-27.819-27.819s12.481-27.819,27.819-27.819s27.819,12.481,27.819,27.819S271.338,283.819,256,283.819z
		 M283.819,236.129c-4.382,0-7.948-3.566-7.948-7.948s3.566-7.948,7.948-7.948c4.382,0,7.948,3.566,7.948,7.948
		S288.201,236.129,283.819,236.129z"/>
	<path fill="#FCFCFC" d="M256,236.129c-10.956,0-19.871,8.915-19.871,19.871s8.915,19.871,19.871,19.871s19.871-8.915,19.871-19.871
		S266.956,236.129,256,236.129z"/>
	<path fill="#FCFCFC" d="M303.69,188.174h-95.38c-10.956,0-20.136,9.18-20.136,20.136v95.38c0,10.956,9.18,20.136,20.136,20.136
		h95.38c10.956,0,20.136-9.18,20.136-20.136v-95.38C323.826,197.354,314.646,188.174,303.69,188.174z M307.664,287.793
		c0,10.956-8.915,19.871-19.871,19.871h-63.587c-10.956,0-19.871-8.915-19.871-19.871v-63.587c0-10.956,8.915-19.871,19.871-19.871
		h63.587c10.956,0,19.871,8.915,19.871,19.871V287.793z"/>
</g>
</svg>
