<?xml version="1.0" encoding="utf-8"?>
<!-- Generator: Adobe Illustrator 17.0.0, SVG Export Plug-In . SVG Version: 6.00 Build 0)  -->
<!DOCTYPE svg PUBLIC "-//W3C//DTD SVG 1.1//EN" "http://www.w3.org/Graphics/SVG/1.1/DTD/svg11.dtd">
<svg version="1.1" id="Layer_1" xmlns="http://www.w3.org/2000/svg" xmlns:xlink="http://www.w3.org/1999/xlink" x="0px" y="0px"
	 width="60.667px" height="150px" viewBox="0 0 60.667 150" enable-background="new 0 0 60.667 150" xml:space="preserve">
<g>
	<defs>
		<path id="SVGID_1_" d="M35.402,144.559c5.039-2.356,10.809-7.181,11.004-16.939c0,0,1.22-12.27-1.568-24.955
			s0.357-25.638,1.834-27.526c1.477-1.888,7.227-12.865,7.228-12.866c1.409-2.69,1.837-6.48,2.223-9.426
			c1.117-8.517-1.062-17.012-2.7-25.311c-1.44-7.295-3.095-13.467-6.667-19.98c0,0-2.963-5.402-15.161-3.834
			c0,0-4.356-0.523-13.592,20.563c0,0-14.464,24.919-11.153,38.686s4.182,33.56,3.834,39.695c0,0-1.22,20.947-0.523,26.001
			c0.523,3.79,2.026,11.15,8.92,15.276C24.038,146.909,30.168,147.006,35.402,144.559z"/>
	</defs>
	<clipPath id="SVGID_2_">
		<use xlink:href="#SVGID_1_"  overflow="visible"/>
	</clipPath>
	<g clip-path="url(#SVGID_2_)">
		
			<linearGradient id="SVGID_3_" gradientUnits="userSpaceOnUse" x1="-480.807" y1="173.3268" x2="-478.8159" y2="7.3986" gradientTransform="matrix(-1 0 0 1 -432.6651 0)">
			<stop  offset="0.0012" style="stop-color:#010101"/>
			<stop  offset="1" style="stop-color:#120F22"/>
		</linearGradient>
		<path fill="url(#SVGID_3_)" d="M54.125,23.407c-5.462-0.24-19.551-0.389-20.983,3.233c-2.018,5.105,3.585,6.641,7.288,7.119
			c5.734,0.74,14.027,0.087,19.72-0.704L54.125,23.407z"/>
		
			<linearGradient id="SVGID_4_" gradientUnits="userSpaceOnUse" x1="-470.896" y1="173.4592" x2="-468.9049" y2="7.531" gradientTransform="matrix(-1 0 0 1 -432.6651 0)">
			<stop  offset="0.0012" style="stop-color:#010101"/>
			<stop  offset="1" style="stop-color:#120F22"/>
		</linearGradient>
		<path fill="url(#SVGID_4_)" d="M17.927,19.042c0,0,27.253-5.075,36.863-3.173c0,0-5.427-7.695-12.732-12.449
			C36.463-0.221,29.094,1.182,25.09,6.629C23.025,9.438,20.618,13.414,17.927,19.042z"/>
		
			<linearGradient id="SVGID_5_" gradientUnits="userSpaceOnUse" x1="-461.0082" y1="174.5052" x2="-459.0171" y2="8.5769" gradientTransform="matrix(-1 0 0 1 -432.6651 0)">
			<stop  offset="0.0012" style="stop-color:#010101"/>
			<stop  offset="1" style="stop-color:#120F22"/>
		</linearGradient>
		<path fill="url(#SVGID_5_)" d="M7.991,124.393c0,0,3.854,1.88,17.673,6.556c16.413,5.553,21.819-7.73,21.819-7.73
			s-0.695,9.691-0.916,10.916c-0.184,1.021-2.055,11.118-11.909,15.2c-4.146,1.718-8.758,1.881-13.027,0.525
			c-4.286-1.361-9.668-4.432-12.093-11.366c-0.535-1.529-0.853-3.13-1.012-4.748C8.322,131.675,7.991,127.776,7.991,124.393z"/>
		
			<linearGradient id="SVGID_6_" gradientUnits="userSpaceOnUse" x1="-458.9044" y1="173.401" x2="-456.9132" y2="7.4728" gradientTransform="matrix(-1 0 0 1 -432.6651 0)">
			<stop  offset="0.0012" style="stop-color:#010101"/>
			<stop  offset="1" style="stop-color:#120F22"/>
		</linearGradient>
		<path fill="url(#SVGID_6_)" d="M7.298,73.219c0,0,7.634,4.459,15.655-2.096c5.978-4.885,8.115-8.352,12.811-8.563
			c5.208-0.234,8.657,5.503,6.107,10.217c-0.03,0.055-0.06,0.11-0.091,0.165C36.63,82.141,9.65,82.423,9.65,82.423
			S7.713,75.066,7.298,73.219z"/>
		
			<linearGradient id="SVGID_7_" gradientUnits="userSpaceOnUse" x1="-473.5661" y1="173.3118" x2="-471.5725" y2="7.1787" gradientTransform="matrix(-1 0 0 1 -432.6651 0)">
			<stop  offset="0.0012" style="stop-color:#010101"/>
			<stop  offset="1" style="stop-color:#120F22"/>
		</linearGradient>
		<path fill="url(#SVGID_7_)" d="M44.91,81.118c0,0-8.352,3.667-9.879,5.175s3.392,3.957,8.745,5.766
			C43.776,92.059,44.807,81.807,44.91,81.118z"/>
		
			<linearGradient id="SVGID_8_" gradientUnits="userSpaceOnUse" x1="-458.2165" y1="174.5252" x2="-456.2254" y2="8.5969" gradientTransform="matrix(-1 0 0 1 -432.6651 0)">
			<stop  offset="0.0012" style="stop-color:#010101"/>
			<stop  offset="1" style="stop-color:#120F22"/>
		</linearGradient>
		<path fill="url(#SVGID_8_)" d="M33.085,104.943c-10.666,1.483-20.299-7.137-23.13-9.958c-0.322-0.321-0.858-0.093-0.87,0.37
			c-0.07,2.663-0.236,9.023-0.334,13.18c-0.036,1.53,1.01,2.857,2.463,3.126c23.983,4.434,26.544,1.701,27.575,1.256
			C41.712,111.658,42.575,103.623,33.085,104.943z"/>
		
			<linearGradient id="SVGID_9_" gradientUnits="userSpaceOnUse" x1="-465.5215" y1="173.389" x2="-463.5304" y2="7.4607" gradientTransform="matrix(-1 0 0 1 -432.6651 0)">
			<stop  offset="0.0012" style="stop-color:#010101"/>
			<stop  offset="1" style="stop-color:#120F22"/>
		</linearGradient>
		<path fill="url(#SVGID_9_)" d="M59.034,46.825c0,0-9.652-3.883-25.527-1.942c-13.649,1.669-28.788-1.487-28.788-1.487
			s-5.069,16.122,7.249,17.053c9.565,0.723,17.987-12.17,29.586-10.939s16.015,8.851,16.015,8.851L59.034,46.825z"/>
	</g>
</g>
</svg>
