<?xml version="1.0" encoding="utf-8"?>
<!-- Generator: Adobe Illustrator 17.0.0, SVG Export Plug-In . SVG Version: 6.00 Build 0)  -->
<!DOCTYPE svg PUBLIC "-//W3C//DTD SVG 1.1//EN" "http://www.w3.org/Graphics/SVG/1.1/DTD/svg11.dtd">
<svg version="1.1" id="Layer_1" xmlns="http://www.w3.org/2000/svg" xmlns:xlink="http://www.w3.org/1999/xlink" x="0px" y="0px"
	 width="261px" height="54.389px" viewBox="0 0 261 54.389" enable-background="new 0 0 261 54.389" xml:space="preserve">
<g>
	<path fill="#0E54D9" d="M31.164,9.929l-7.691,17.173l8.586,18.4H21.726l-5.992-16.324h0.047h-0.095v16.325H6.063V9.929h9.625
		v15.145h0.047l5.284-15.145C21.019,9.929,31.164,9.929,31.164,9.929z"/>
	<path fill="#0E54D9" d="M57.913,9.316c9.767,0,13.588,9.72,13.588,18.4c0,8.681-3.822,18.4-13.588,18.4
		s-13.588-9.718-13.588-18.399C44.325,19.034,48.147,9.316,57.913,9.316z M57.913,37.153c3.633,0,3.774-7.219,3.774-9.436
		s-0.142-9.436-3.774-9.436c-3.633,0-3.774,7.219-3.774,9.436S54.282,37.153,57.913,37.153z"/>
	<path fill="#0E54D9" d="M83.816,45.504l9.72-22.599c0.66-1.557,1.745-3.255,2.737-4.86c-1.887,0.095-4.011,0.284-6.087,0.284
		h-4.246V9.93h23.544L98.961,34.276c-0.472,1.133-1.038,2.17-1.51,3.255c1.745-0.142,3.539-0.425,5.378-0.425h5.473v8.399
		L83.816,45.504L83.816,45.504z"/>
	<path fill="#0E54D9" d="M138.263,45.504l-0.707-4.576h-6.463l-0.802,4.576h-9.91l8.54-35.574h11.748l7.549,35.574H138.263z
		 M136.422,33.379l-1.038-8.257c-0.284-2.217-0.472-4.482-0.707-6.7h-0.095c-0.284,2.217-0.518,4.482-0.896,6.7l-1.321,8.257
		H136.422z"/>
	<path fill="#0E54D9" d="M159.918,33.52c1.321,1.982,3.633,3.964,6.087,3.964c1.321,0,2.831-0.802,2.831-2.359
		c0-0.849-0.284-1.463-0.755-1.982c-0.425-0.518-0.991-0.944-1.604-1.368c-1.887-1.463-3.539-2.83-4.765-4.529
		c-1.18-1.652-1.934-3.633-1.934-6.228c0-4.152,2.643-11.701,10.853-11.701c2.312,0,4.813,0.707,6.841,1.794v10.805
		c-1.133-1.794-3.444-3.822-5.662-3.822c-1.133,0-2.501,0.802-2.501,2.17c0,0.754,0.425,1.415,0.944,1.982
		c0.518,0.565,1.227,1.038,1.747,1.463c2.029,1.415,3.633,2.737,4.718,4.341c1.133,1.605,1.747,3.492,1.747,6.181
		c0,6.605-4.624,11.89-11.323,11.89c-2.453,0-4.954-0.518-7.219-1.463V33.522h-0.003V33.52z"/>
	<path fill="#0E54D9" d="M217.62,9.929l-7.69,17.174l8.586,18.4h-10.332l-5.993-16.325h0.047h-0.095v16.325h-9.625V9.929h9.625
		v15.145h0.047l5.284-15.145C207.474,9.929,217.62,9.929,217.62,9.929z"/>
	<path fill="#0E54D9" d="M244.37,9.316c9.767,0,13.588,9.72,13.588,18.4c0,8.681-3.822,18.4-13.588,18.4
		c-9.767,0-13.588-9.72-13.588-18.4C230.782,19.034,234.604,9.316,244.37,9.316z M244.37,37.153c3.633,0,3.774-7.219,3.774-9.436
		s-0.142-9.436-3.774-9.436s-3.774,7.219-3.774,9.436S240.737,37.153,244.37,37.153z"/>
</g>
</svg>
