<?xml version="1.0" encoding="utf-8"?>
<!-- Generator: Adobe Illustrator 17.0.0, SVG Export Plug-In . SVG Version: 6.00 Build 0)  -->
<!DOCTYPE svg PUBLIC "-//W3C//DTD SVG 1.1//EN" "http://www.w3.org/Graphics/SVG/1.1/DTD/svg11.dtd">
<svg version="1.1" id="Layer_1" xmlns="http://www.w3.org/2000/svg" xmlns:xlink="http://www.w3.org/1999/xlink" x="0px" y="0px"
	 width="78px" height="78px" viewBox="0 0 78 78" enable-background="new 0 0 78 78" xml:space="preserve">
<g id="icon_cart" display="none">
	<g id="Group-4" display="inline">
		<g id="Cart" transform="translate(9.000000, 9.000000)">
			<path id="Rectangle_1_" fill="none" stroke="#0E1022" stroke-width="3" stroke-linejoin="round" d="M6.483,13.997h47.034
				c1.474,0,2.74,1.045,3.019,2.492l8.119,42.069c0.322,1.667-0.769,3.28-2.437,3.602c-0.192,0.037-0.387,0.056-0.583,0.056H-1.636
				c-1.698,0-3.075-1.377-3.075-3.075c0-0.196,0.019-0.391,0.056-0.583l8.119-42.069C3.743,15.043,5.009,13.997,6.483,13.997z"/>
			<path id="Path-6" fill="none" stroke="#0E1022" stroke-width="3" stroke-linecap="round" d="M14.52,23.222
				C13.076,6.823,18.354-1.377,30.353-1.377s16.973,8.2,14.923,24.599"/>
		</g>
	</g>
</g>
<g id="icon_profile" display="none">
	<g id="Group-5" display="inline">
		<g id="profile" transform="translate(12.000000, 8.000000)">
			<circle id="Oval" fill="none" stroke="#010101" stroke-width="3" cx="27.488" cy="13.856" r="14.5"/>
			<path id="Rectangle_2_" fill="none" stroke="#010101" stroke-width="3" stroke-linejoin="round" d="M27.488,37.056
				c14.415,0,26.101,11.686,26.101,26.101l0,0l0,0H1.387C1.387,48.742,13.073,37.056,27.488,37.056z"/>
		</g>
	</g>
</g>
<g id="icon_wishlist" display="none">
	<g id="Group-3" display="inline">
		<path id="Rectangle_3_" fill="none" stroke="#010101" stroke-width="3" stroke-linejoin="round" d="M19.497,6.813h40.469
			c1.719,0,3.113,1.394,3.113,3.113v62.26l0,0L39.732,59.929L16.384,72.187V9.926C16.384,8.207,17.778,6.813,19.497,6.813z"/>
	</g>
</g>
<g>
	<g>
		<path d="M51.182,32.343c0.79,0,1.431-0.641,1.431-1.431V13.736c0-3.945-3.209-7.157-7.157-7.157h-31.49
			c-3.948,0-7.157,3.212-7.157,7.157v51.528c0,3.945,3.209,7.157,7.157,7.157h31.49c3.948,0,7.157-3.212,7.157-7.157V48.088
			c0-0.79-0.641-1.431-1.431-1.431s-1.431,0.641-1.431,1.431v17.176c0,2.367-1.927,4.294-4.294,4.294h-31.49
			c-2.367,0-4.294-1.927-4.294-4.294V13.736c0-2.367,1.927-4.294,4.294-4.294h31.49c2.367,0,4.294,1.927,4.294,4.294v17.176
			C49.751,31.702,50.392,32.343,51.182,32.343z"/>
	</g>
</g>
<g>
	<g>
		<path d="M71.221,38.069H25.418c-0.79,0-1.431,0.641-1.431,1.431s0.641,1.431,1.431,1.431h45.803c0.79,0,1.431-0.641,1.431-1.431
			C72.652,38.71,72.011,38.069,71.221,38.069z"/>
	</g>
</g>
<g>
	<g>
		<path d="M72.232,38.492l-8.588-8.588c-0.558-0.558-1.466-0.558-2.024,0c-0.558,0.558-0.558,1.466,0,2.024l7.575,7.575
			l-7.575,7.575c-0.558,0.558-0.558,1.466,0,2.024c0.281,0.278,0.647,0.418,1.013,0.418s0.733-0.14,1.011-0.415l8.588-8.588
			C72.79,39.958,72.79,39.051,72.232,38.492z"/>
	</g>
</g>
</svg>
