<?xml version="1.0" encoding="utf-8"?>
<!-- Generator: Adobe Illustrator 17.0.0, SVG Export Plug-In . SVG Version: 6.00 Build 0)  -->
<!DOCTYPE svg PUBLIC "-//W3C//DTD SVG 1.1//EN" "http://www.w3.org/Graphics/SVG/1.1/DTD/svg11.dtd">
<svg version="1.1" id="Capa_1" xmlns="http://www.w3.org/2000/svg" xmlns:xlink="http://www.w3.org/1999/xlink" x="0px" y="0px"
	 width="62.683px" height="62.684px" viewBox="274.663 274.663 62.683 62.684"
	 enable-background="new 274.663 274.663 62.683 62.684" xml:space="preserve">
<g>
	<g id="_x34__4_">
		<g>
			<path d="M336.753,333.937l-16.184-15.926c4.238-4.605,6.842-10.694,6.842-17.395c-0.002-14.335-11.809-25.954-26.375-25.954
				c-14.566,0-26.373,11.619-26.373,25.954s11.807,25.954,26.373,25.954c6.293,0,12.066-2.177,16.6-5.796l16.247,15.988
				c0.792,0.78,2.077,0.78,2.868,0C337.545,335.982,337.545,334.717,336.753,333.937z M301.036,322.576
				c-12.324,0-22.315-9.832-22.315-21.96s9.991-21.96,22.315-21.96c12.324,0,22.315,9.832,22.315,21.96
				S313.36,322.576,301.036,322.576z"/>
		</g>
	</g>
</g>
</svg>
