<?xml version="1.0" encoding="utf-8"?>
<!-- Generator: Adobe Illustrator 17.0.0, SVG Export Plug-In . SVG Version: 6.00 Build 0)  -->
<!DOCTYPE svg PUBLIC "-//W3C//DTD SVG 1.1//EN" "http://www.w3.org/Graphics/SVG/1.1/DTD/svg11.dtd">
<svg version="1.1" id="Layer_1" xmlns="http://www.w3.org/2000/svg" xmlns:xlink="http://www.w3.org/1999/xlink" x="0px" y="0px"
	 width="78px" height="78px" viewBox="0 0 78 78" enable-background="new 0 0 78 78" xml:space="preserve">
<g id="icon_cart" display="none">
	<g id="Group-4" display="inline">
		<g id="Cart" transform="translate(9.000000, 9.000000)">
			<path id="Rectangle_1_" fill="none" stroke="#0E1022" stroke-width="3" stroke-linejoin="round" d="M6.483,13.997h47.034
				c1.474,0,2.74,1.045,3.019,2.492l8.119,42.069c0.322,1.667-0.769,3.28-2.437,3.602c-0.192,0.037-0.387,0.056-0.583,0.056H-1.636
				c-1.698,0-3.075-1.377-3.075-3.075c0-0.196,0.019-0.391,0.056-0.583l8.119-42.069C3.743,15.043,5.009,13.997,6.483,13.997z"/>
			<path id="Path-6" fill="none" stroke="#0E1022" stroke-width="3" stroke-linecap="round" d="M14.52,23.222
				C13.076,6.823,18.354-1.377,30.353-1.377s16.973,8.2,14.923,24.599"/>
		</g>
	</g>
</g>
<g id="icon_profile" display="none">
	<g id="Group-5" display="inline">
		<g id="profile" transform="translate(12.000000, 8.000000)">
			<circle id="Oval" fill="none" stroke="#010101" stroke-width="1.4" cx="27.488" cy="13.856" r="14.5"/>
			<path id="Rectangle_2_" fill="none" stroke="#010101" stroke-width="1.4" stroke-linejoin="round" d="M27.488,37.056
				c14.415,0,26.101,11.686,26.101,26.101l0,0l0,0H1.387C1.387,48.742,13.073,37.056,27.488,37.056z"/>
		</g>
	</g>
</g>
<g id="icon_wishlist" display="none">
	<g id="Group-3" display="inline">
		<path id="Rectangle_3_" fill="none" stroke="#010101" stroke-width="1.4" stroke-linejoin="round" d="M19.497,6.813h40.469
			c1.719,0,3.113,1.394,3.113,3.113v62.26l0,0L39.732,59.929L16.384,72.187V9.926C16.384,8.207,17.778,6.813,19.497,6.813z"/>
	</g>
</g>
<g display="none">
	<path display="inline" d="M3.306,30.571c0.185-1.072,0.306-2.159,0.565-3.212c1.643-6.679,5.609-11.517,11.887-14.26
		c5.879-2.568,11.812-2.371,17.604,0.47c2.284,1.12,4.253,2.666,5.941,4.569c0.11,0.124,0.226,0.244,0.344,0.36
		c0.03,0.03,0.082,0.038,0.125,0.056c0.805-0.765,1.571-1.573,2.418-2.287c4.58-3.862,9.897-5.449,15.81-4.745
		c8.694,1.035,15.477,7.108,17.636,15.645c1.268,5.011,0.443,9.782-1.821,14.359c-2.214,4.476-5.295,8.313-8.798,11.823
		c-7.123,7.138-15.278,12.901-23.988,17.922c-0.882,0.509-1.638,0.51-2.519-0.004c-8.683-5.065-16.82-10.855-23.94-17.993
		c-3.468-3.476-6.537-7.263-8.759-11.678c-1.224-2.433-2.087-4.978-2.39-7.698c-0.018-0.162-0.076-0.32-0.115-0.479
		C3.306,32.47,3.306,31.52,3.306,30.571z M23.829,15.017c-0.754,0.084-1.997,0.124-3.198,0.372
		C10.115,17.56,4.174,28.707,8.388,38.489c1.873,4.347,4.708,7.999,7.949,11.362c6.786,7.042,14.697,12.632,23.041,17.645
		c0.2,0.12,0.597,0.114,0.801-0.005c7.387-4.335,14.376-9.222,20.61-15.123c3.473-3.288,6.656-6.831,9.017-11.038
		c2.357-4.2,3.404-8.613,2.234-13.405c-1.709-7-7.917-12.367-15.134-12.838c-6.198-0.404-11.248,1.921-15.035,6.891
		c-0.244,0.32-0.475,0.656-0.756,0.941c-0.773,0.782-1.968,0.77-2.732-0.019c-0.229-0.237-0.418-0.515-0.613-0.784
		C34.45,17.536,29.921,15.263,23.829,15.017z"/>
	<path display="inline" fill="#FFFFFF" d="M23.829,15.017c6.092,0.246,10.621,2.519,13.94,7.099
		c0.195,0.269,0.384,0.547,0.613,0.784c0.764,0.789,1.958,0.801,2.732,0.019c0.282-0.285,0.512-0.621,0.756-0.941
		c3.787-4.97,8.837-7.295,15.035-6.891c7.217,0.471,13.425,5.838,15.134,12.838c1.17,4.792,0.123,9.205-2.234,13.405
		c-2.361,4.206-5.543,7.75-9.017,11.038c-6.234,5.901-13.223,10.788-20.61,15.123c-0.204,0.12-0.601,0.125-0.801,0.005
		c-8.344-5.013-16.255-10.603-23.041-17.645c-3.241-3.363-6.076-7.015-7.949-11.362c-4.214-9.782,1.727-20.929,12.243-23.101
		C21.832,15.14,23.076,15.101,23.829,15.017z"/>
</g>
<g>
	<path d="M40.88,6.591c1.653,0.396,3.381,0.602,4.945,1.222c5.202,2.059,8.732,5.824,10.189,11.225
		c1.854,6.871,0.034,12.84-5.286,17.564c-3.866,3.433-8.505,4.75-13.63,3.946c-6.153-0.965-10.613-4.364-13.103-10.034
		c-2.526-5.753-1.918-11.388,1.63-16.586c2.585-3.787,6.234-6.087,10.732-7.011c0.658-0.135,1.326-0.218,1.99-0.326
		C39.192,6.591,40.036,6.591,40.88,6.591z M39.596,10.391c-7.314,0.016-13.291,6.009-13.275,13.311
		c0.016,7.314,6.009,13.291,13.311,13.275c7.314-0.016,13.291-6.009,13.275-13.311C52.891,16.352,46.898,10.375,39.596,10.391z"/>
	<path d="M70.468,71.409c-20.67,0-41.268,0-61.977,0c0-0.209,0-0.409,0-0.609c0-4.283-0.004-8.566,0.01-12.849
		c0.001-0.276,0.068-0.6,0.232-0.821c3.523-4.73,8.079-8.312,13.899-10.469c3.576-1.325,7.301-1.95,11.151-1.957
		c3.812-0.006,7.625-0.043,11.436,0.007c10.691,0.138,18.963,4.431,25.053,12.419c0.134,0.176,0.227,0.421,0.228,0.634
		c0.012,4.452,0.009,8.904,0.007,13.356C70.506,71.199,70.486,71.279,70.468,71.409z M66.374,67.598
		c0-2.956,0.003-5.844-0.008-8.732c-0.001-0.173-0.079-0.374-0.192-0.515c-4.522-5.624-10.551-9.077-18.124-9.634
		c-5.495-0.404-11.07-0.361-16.577-0.041c-7.758,0.451-13.926,3.881-18.576,9.595c-0.173,0.213-0.259,0.535-0.261,0.808
		c-0.019,2.658-0.012,5.315-0.01,7.973c0,0.181,0.025,0.362,0.039,0.546C30.581,67.598,48.436,67.598,66.374,67.598z"/>
</g>
</svg>
