<?xml version="1.0" encoding="utf-8"?>
<!-- Generator: Adobe Illustrator 17.0.0, SVG Export Plug-In . SVG Version: 6.00 Build 0)  -->
<!DOCTYPE svg PUBLIC "-//W3C//DTD SVG 1.1//EN" "http://www.w3.org/Graphics/SVG/1.1/DTD/svg11.dtd">
<svg version="1.1" id="Layer_1" xmlns="http://www.w3.org/2000/svg" xmlns:xlink="http://www.w3.org/1999/xlink" x="0px" y="0px"
	 width="512px" height="512px" viewBox="0 0 512 512" enable-background="new 0 0 512 512" xml:space="preserve">
<g id="Layer_2">
	<path fill="#A7ADF0" d="M45.966,240.354l9.93-12.398c5.104-6.366,6.783-14.82,4.501-22.654l-4.432-15.199
		c-3.296-11.273,1.691-23.322,11.99-28.969l13.88-7.617c7.161-3.923,11.958-11.093,12.852-19.209l1.731-15.771
		c1.284-11.653,10.485-20.854,22.138-22.138l15.767-1.731c8.112-0.886,15.284-5.67,19.216-12.821l7.617-13.88
		c5.643-10.298,17.686-15.289,28.959-12l15.199,4.432c7.833,2.282,16.288,0.603,22.654-4.501l12.398-9.93
		c9.144-7.327,22.148-7.327,31.292,0l12.385,9.93c6.367,5.102,14.82,6.782,22.654,4.501l15.199-4.435
		c11.274-3.295,23.323,1.693,28.969,11.993l7.617,13.88c3.923,7.161,11.093,11.958,19.209,12.852l15.771,1.731
		c11.653,1.284,20.854,10.485,22.138,22.138l1.731,15.767c0.894,8.116,5.691,15.286,12.852,19.209l13.88,7.617
		c10.298,5.643,15.289,17.686,12,28.959l-4.432,15.199c-2.282,7.833-0.603,16.288,4.501,22.654l9.93,12.398
		c7.327,9.144,7.327,22.148,0,31.292l-9.944,12.392c-5.102,6.367-6.782,14.82-4.501,22.654l4.435,15.199
		c3.288,11.273-1.702,23.316-12,28.959l-13.88,7.617c-7.162,3.922-11.959,11.092-12.852,19.209l-1.731,15.771
		c-1.284,11.653-10.484,20.854-22.138,22.138l-15.767,1.731c-8.116,0.894-15.286,5.691-19.209,12.852l-7.617,13.88
		c-5.643,10.298-17.686,15.289-28.959,12l-15.199-4.432c-7.833-2.282-16.288-0.603-22.654,4.501l-12.398,9.93
		c-9.144,7.327-22.148,7.327-31.292,0l-12.402-9.933c-6.367-5.102-14.82-6.782-22.654-4.501l-15.203,4.435
		c-11.272,3.288-23.314-1.703-28.955-12l-7.617-13.88c-3.923-7.161-11.093-11.958-19.209-12.852l-15.771-1.731
		c-11.648-1.29-20.842-10.489-22.124-22.138l-1.731-15.767c-0.887-8.121-5.682-15.298-12.845-19.226l-13.891-7.593
		c-10.298-5.643-15.289-17.686-12-28.959l4.432-15.199c2.282-7.833,0.603-16.288-4.501-22.654l-9.919-12.409
		C38.639,262.502,38.639,249.498,45.966,240.354L45.966,240.354z"/>
	<circle display="none" fill="#FFF5CC" cx="256" cy="256" r="158.982"/>
	<g>
		<path fill="#231F20" d="M256,477.639c-7.073-0.009-13.93-2.435-19.434-6.876l-12.395-9.93c-4.833-3.857-11.237-5.127-17.176-3.407
			l-15.196,4.435c-14.008,4.163-29.017-2.057-35.973-14.909l-7.617-13.877c-2.97-5.423-8.396-9.059-14.542-9.743l-15.771-1.731
			c-14.505-1.526-25.968-12.989-27.494-27.494l-1.731-15.771c-0.686-6.145-4.323-11.571-9.746-14.542l-13.873-7.617
			c-12.74-7.058-18.923-21.975-14.912-35.977l4.432-15.203c1.729-5.936,0.459-12.342-3.403-17.17l-9.93-12.395
			c-9.168-11.334-9.168-27.534,0-38.868l9.93-12.395c3.862-4.831,5.133-11.238,3.407-17.176l-4.435-15.196
			c-4.159-14.008,2.061-29.014,14.909-35.973l13.877-7.617c5.424-2.97,9.059-8.396,9.743-14.542l1.731-15.771
			c1.527-14.505,12.989-25.968,27.494-27.494l15.771-1.731c6.145-0.686,11.571-4.323,14.542-9.746l7.617-13.873
			c7.057-12.742,21.975-18.925,35.977-14.912l15.203,4.432c5.936,1.719,12.338,0.45,17.17-3.403l12.395-9.93
			c11.335-9.164,27.532-9.164,38.868,0l12.395,9.93c4.831,3.862,11.238,5.133,17.176,3.407l15.196-4.435
			c14.008-4.163,29.017,2.057,35.973,14.909l7.617,13.877c2.97,5.423,8.396,9.059,14.542,9.743l15.771,1.731
			c14.505,1.527,25.968,12.989,27.494,27.494l1.731,15.771c0.686,6.145,4.323,11.571,9.746,14.542l13.873,7.617
			c12.735,7.059,18.916,21.971,14.909,35.97l-4.432,15.203c-1.729,5.936-0.459,12.342,3.403,17.17l9.93,12.395
			c9.168,11.334,9.168,27.534,0,38.868l-9.93,12.395c-3.862,4.831-5.133,11.238-3.407,17.176l4.435,15.196
			c4.159,14.008-2.061,29.014-14.909,35.973l-13.877,7.617c-2.935,1.608-6.618,0.532-8.226-2.403
			c-1.608-2.935-0.532-6.618,2.403-8.226l0,0l13.88-7.617c7.839-4.246,11.635-13.401,9.099-21.948l-4.439-15.196
			c-2.83-9.73-0.747-20.228,5.581-28.142l9.93-12.395c5.595-6.918,5.595-16.806,0-23.724l-9.93-12.395
			c-6.329-7.912-8.41-18.41-5.578-28.138l4.435-15.199c2.443-8.541-1.329-17.638-9.099-21.944l-13.877-7.617
			c-8.892-4.874-14.85-13.777-15.965-23.855l-1.731-15.774c-0.937-8.849-7.929-15.842-16.778-16.778l-15.771-1.731
			c-10.08-1.111-18.985-7.068-23.859-15.961l-7.617-13.88c-4.252-7.826-13.395-11.616-21.937-9.095l-15.196,4.442
			c-9.73,2.825-20.226,0.744-28.142-5.581l-12.395-9.94c-6.918-5.597-16.806-5.597-23.724,0l-12.395,9.93
			c-7.912,6.33-18.41,8.411-28.138,5.578l-15.199-4.428c-8.541-2.439-17.635,1.332-21.944,9.099l-7.617,13.877
			c-4.874,8.892-13.777,14.85-23.855,15.965l-15.774,1.731c-8.853,0.943-15.843,7.947-16.768,16.803l-1.731,15.771
			c-1.111,10.08-7.068,18.985-15.961,23.859l-13.88,7.617c-7.831,4.24-11.629,13.379-9.109,21.92l4.439,15.196
			c2.83,9.73,0.747,20.228-5.581,28.142l-9.937,12.395c-5.595,6.918-5.595,16.806,0,23.724l9.93,12.395
			c6.329,7.912,8.41,18.41,5.578,28.138l-4.428,15.199c-2.444,8.541,1.328,17.639,9.099,21.944l13.877,7.617
			c8.892,4.874,14.85,13.777,15.965,23.855l1.731,15.774c0.943,8.853,7.947,15.843,16.803,16.768l15.771,1.731
			c10.08,1.111,18.985,7.068,23.859,15.961l7.617,13.88c4.251,7.833,13.401,11.626,21.948,9.099l15.196-4.439
			c9.73-2.829,20.228-0.747,28.142,5.581l12.395,9.93c6.917,5.598,16.806,5.598,23.724,0l12.395-9.93
			c7.911-6.331,18.41-8.413,28.138-5.578l15.199,4.435c8.546,2.53,17.696-1.264,21.944-9.099l7.617-13.877
			c4.874-8.892,13.777-14.85,23.855-15.965l15.774-1.731c8.849-0.937,15.842-7.929,16.778-16.778
			c0.288-3.334,3.223-5.804,6.557-5.516c3.334,0.288,5.803,3.223,5.516,6.557c-0.008,0.095-0.019,0.19-0.031,0.285
			c-1.526,14.505-12.989,25.968-27.494,27.494l-15.771,1.731c-6.145,0.686-11.571,4.323-14.542,9.746l-7.617,13.873
			c-6.958,12.848-21.963,19.067-35.97,14.909l-15.203-4.432c-5.936-1.727-12.341-0.458-17.17,3.403l-12.395,9.93
			C269.958,475.208,263.086,477.637,256,477.639L256,477.639z"/>
	</g>
</g>
<g>
	<g>
		<g>
			<path fill="#F0BC5E" d="M256.019,392.232l-1.868-0.508c-62.096-16.801-105.466-73.888-105.466-138.84v-88.937l6.139-0.88
				c32.343-4.622,63.119-15.177,91.484-31.384l9.71-5.553l9.71,5.553c28.358,16.207,59.134,26.762,91.477,31.384l6.147,0.88v88.937
				c0,64.951-43.37,122.045-105.466,138.84L256.019,392.232z"/>
		</g>
	</g>
	<g>
		<path d="M203.833,265.27l-10.118,10.118l33.681,33.681l105.237-105.237l-10.118-10.118l-95.119,95.119L203.833,265.27z"/>
		<path d="M382.583,133.041c-1.922,0-3.567-0.425-4.956-1.137c0.016,0.564,0.032,1.129,0.037,1.697
			c-41.638-4.694-82.311-18.862-117.852-41.066l-3.792-2.383l-3.792,2.376c-36.529,22.819-78.482,37.152-121.344,41.438
			l-10.819,1.095v13.624h-1.176c0.13,4.771,0.313,9.541,0.452,14.311h0.724v89.881c0,56.901,27.299,107.727,70.897,139.097h-3.099
			c0.435,0.605,0.801,1.256,1.099,1.941c5.492,2.78,11.062,5.428,16.384,8.614c1.969,1.179,4.025,2.41,6,3.756h3.293
			c12.415,6.175,25.717,11.005,39.828,14.147l1.553,0.336l1.553-0.344c79.133-17.581,134.403-86.482,134.403-167.548V134.911
			c-2.126-0.711-4.234-1.476-6.33-2.277C384.71,132.889,383.696,133.041,382.583,133.041z M377.663,252.877
			c0,73.781-49.939,136.564-121.645,153.229c-71.706-16.665-121.645-79.455-121.645-153.229V147.991
			c42.833-4.594,84.758-18.719,121.645-40.994c36.894,22.275,78.811,36.415,121.645,40.994V252.877z"/>
	</g>
</g>
</svg>
