<svg height='300px' width='300px'  fill="#000000" xmlns="http://www.w3.org/2000/svg" xmlns:xlink="http://www.w3.org/1999/xlink" version="1.1" x="0px" y="0px" viewBox="0 0 24 24" style="enable-background:new 0 0 24 24;" xml:space="preserve"><path d="M16.643,2.551H7.357C6.002,2.551,4.9,3.653,4.9,5.008v14.91c0,0.575,0.317,1.096,0.828,1.359  c0.512,0.263,1.119,0.22,1.642-0.157L12,16.958l4.63,4.162c0.017,0.015,0.034,0.029,0.053,0.042  c0.266,0.189,0.576,0.286,0.888,0.286c0.239,0,0.479-0.056,0.701-0.17c0.511-0.263,0.828-0.784,0.828-1.359V5.008  C19.1,3.653,17.998,2.551,16.643,2.551z M17.9,19.918c0,0.181-0.125,0.264-0.179,0.292c-0.051,0.026-0.182,0.074-0.32-0.011  l-5-4.495c-0.229-0.205-0.574-0.205-0.803,0l-4.979,4.48c-0.147,0.104-0.288,0.052-0.342,0.025C6.225,20.183,6.1,20.099,6.1,19.918  V5.008c0-0.693,0.564-1.257,1.258-1.257h9.285c0.693,0,1.258,0.564,1.258,1.257V19.918z"></path></svg>